<svg width="142" height="39" viewBox="0 0 142 39" fill="none" xmlns="http://www.w3.org/2000/svg">
<g clip-path="url(#clip0_581_10827)">
<path d="M52.2851 11.0918C54.756 11.0918 56.3654 11.8872 57.9747 13.0885L56.5198 15.7589C55.3657 14.8742 54.0895 14.2167 52.3014 14.2167C49.0827 14.2167 47.132 16.4326 47.132 19.2653C47.132 22.098 49.0827 24.3139 52.3014 24.3139C54.0895 24.3139 55.3657 23.6564 56.5198 22.7717L57.9747 25.4422C56.3654 26.6434 54.756 27.4389 52.2851 27.4389C46.9125 27.4389 43.5801 23.6808 43.5801 19.2653C43.5801 14.8498 46.9125 11.0918 52.2851 11.0918Z" fill="black"/>
<path d="M67.5008 11.0918C72.0363 11.0918 75.7345 14.7605 75.7345 19.2653C75.7345 23.77 72.0363 27.4389 67.5008 27.4389C62.9411 27.447 59.251 23.7782 59.251 19.2653C59.251 14.7524 62.9411 11.0918 67.5008 11.0918ZM67.5008 24.2246C70.1099 24.2246 72.2638 22.163 72.2638 19.2653C72.2638 16.3677 70.1099 14.306 67.5008 14.306C64.8674 14.306 62.7135 16.3677 62.7135 19.2653C62.7135 22.163 64.8755 24.2246 67.5008 24.2246Z" fill="black"/>
<path d="M78.7256 27.1955V11.3436H85.6913C88.9829 11.3436 90.7954 13.7461 90.7954 16.5302C90.7954 19.3142 88.959 21.6031 85.6913 21.6031H82.245V27.1955H78.7256ZM85.2361 18.8353C86.4798 18.8353 87.2515 17.8613 87.2515 16.5058C87.2515 15.1016 86.4798 14.1276 85.2361 14.1276H82.245V18.8353H85.2361Z" fill="black"/>
<path d="M90.5024 27.1955L96.6228 11.3436H100.045L106.255 27.1955H102.581L101.451 24.2329V24.2816H95.2167V24.2329L94.1274 27.1955H90.5024ZM96.1678 21.4002H100.451L98.3465 15.0611L96.1678 21.4002Z" fill="black"/>
<path d="M114.399 27.1955H108.458V11.3436H114.399C119.593 11.3436 122.836 14.8987 122.836 19.2655C122.836 23.6323 119.593 27.1955 114.399 27.1955ZM114.399 14.1276H111.969V24.4115H114.399C117.415 24.4115 119.3 22.0982 119.3 19.2736C119.3 16.449 117.415 14.1276 114.399 14.1276Z" fill="black"/>
<path d="M133.11 11.0918C137.645 11.0918 141.343 14.7605 141.343 19.2653C141.343 23.77 137.645 27.4389 133.11 27.4389C128.55 27.4389 124.852 23.77 124.852 19.2653C124.852 14.7605 128.55 11.0918 133.11 11.0918ZM133.11 24.2246C135.719 24.2246 137.873 22.163 137.873 19.2653C137.873 16.3677 135.719 14.306 133.11 14.306C130.476 14.306 128.322 16.3677 128.322 19.2653C128.322 22.163 130.484 24.2246 133.11 24.2246Z" fill="black"/>
<path d="M19.2938 37.9988C29.6857 37.9988 38.11 29.5862 38.11 19.2086C38.11 8.83111 29.6857 0.418472 19.2938 0.418472C8.90185 0.418472 0.477539 8.83111 0.477539 19.2086C0.477539 29.5862 8.90185 37.9988 19.2938 37.9988Z" fill="#00C3EF"/>
<path d="M26.536 12.0339C25.4894 12.0328 24.455 12.2577 23.5038 12.6935C22.5526 13.1292 21.707 13.7653 21.0252 14.5582V14.5501L21.0008 14.5744C20.8383 14.7611 20.692 14.9559 20.5538 15.1507L18.9932 17.1718L15.6039 21.5548L15.23 22.0418L15.0023 22.3421C14.6183 22.7282 14.161 23.0341 13.6572 23.2418C13.1534 23.4495 12.6132 23.5547 12.0682 23.5515C9.75984 23.5515 7.86603 21.7415 7.86603 19.201C7.86603 16.6604 9.75984 14.8504 12.0682 14.8504C12.7987 14.8473 13.5169 15.039 14.1484 15.4057C14.78 15.7724 15.3021 16.3008 15.6607 16.9364L17.644 14.6556C16.9657 13.835 16.1141 13.1745 15.15 12.7212C14.1861 12.2679 13.1337 12.0332 12.0682 12.0339C8.06923 12.0339 4.82617 15.2562 4.82617 19.2091C4.82617 23.1619 8.06923 26.3843 12.0682 26.3843C13.8562 26.382 15.5796 25.7166 16.9043 24.5174L22.9922 16.8146V16.8308C23.363 16.2236 23.8852 15.7227 24.5077 15.377C25.1303 15.0313 25.8318 14.8527 26.5441 14.8585C28.8362 14.8585 30.7219 16.6685 30.7219 19.2091C30.7219 21.7496 28.828 23.5596 26.5441 23.5596C24.2357 23.5596 22.342 21.7496 22.342 19.2091L19.9442 22.1555C20.5221 23.4167 21.4504 24.4857 22.619 25.2353C23.7875 25.985 25.1471 26.3838 26.536 26.3843C30.5187 26.3843 33.7617 23.1619 33.7617 19.2091C33.7617 15.2562 30.5187 12.0339 26.536 12.0339Z" fill="white"/>
<path d="M26.5278 20.5714C27.1877 20.5714 27.7226 20.0372 27.7226 19.3783C27.7226 18.7193 27.1877 18.1851 26.5278 18.1851C25.868 18.1851 25.333 18.7193 25.333 19.3783C25.333 20.0372 25.868 20.5714 26.5278 20.5714Z" fill="white"/>
</g>
<defs>
<clipPath id="clip0_581_10827">
<rect width="140.866" height="38.4179" fill="white" transform="translate(0.477539)"/>
</clipPath>
</defs>
</svg>
