<svg width="116" height="35" viewBox="0 0 116 35" fill="none" xmlns="http://www.w3.org/2000/svg">
<g clip-path="url(#clip0_581_10844)">
<path d="M14.1045 4.24817C13.4273 4.24817 12.7654 4.44845 12.2023 4.82369C11.6393 5.19892 11.2004 5.73226 10.9413 6.35626C10.6821 6.98025 10.6143 7.66688 10.7465 8.32931C10.8786 8.99174 11.2047 9.60023 11.6835 10.0778C12.1623 10.5554 12.7724 10.8806 13.4366 11.0124C14.1007 11.1442 14.7891 11.0765 15.4148 10.8181C16.0404 10.5596 16.5751 10.1219 16.9514 9.56032C17.3276 8.99874 17.5284 8.3385 17.5284 7.66309C17.5284 7.21464 17.4398 6.77058 17.2678 6.35626C17.0957 5.94194 16.8435 5.56548 16.5256 5.24838C16.2076 4.93127 15.8302 4.67973 15.4148 4.50811C14.9994 4.3365 14.5541 4.24817 14.1045 4.24817V4.24817ZM14.1045 10.1674C13.6079 10.1674 13.1225 10.0205 12.7096 9.74533C12.2967 9.47015 11.9749 9.07904 11.7848 8.62144C11.5948 8.16384 11.5451 7.66032 11.6419 7.17453C11.7388 6.68875 11.978 6.24253 12.3291 5.8923C12.6802 5.54207 13.1276 5.30356 13.6147 5.20693C14.1017 5.11031 14.6066 5.1599 15.0654 5.34944C15.5242 5.53899 15.9163 5.85997 16.1922 6.27179C16.4681 6.68362 16.6153 7.16779 16.6153 7.66309C16.6141 8.3269 16.3492 8.96317 15.8786 9.43256C15.408 9.90194 14.7701 10.1662 14.1045 10.1674V10.1674Z" fill="#00193C"/>
<path d="M47.6538 25.6119V7.43998H50.5618V15.1805H58.7334V7.43998H61.6505V25.6119H58.7425V17.7986H50.5709V25.6119H47.6538Z" fill="#00193C"/>
<path d="M70.7533 25.8533C69.8122 25.8693 68.8834 25.6385 68.0599 25.1839C67.271 24.7339 66.6254 24.0711 66.1973 23.2716C65.7288 22.3582 65.498 21.3421 65.5262 20.3165V12.3575H68.3018V20.1253C68.3018 21.2727 68.5894 22.1196 69.1647 22.666C69.8227 23.2462 70.6846 23.5426 71.5614 23.4901C72.0737 23.5096 72.5842 23.4174 73.0573 23.22C73.5303 23.0226 73.9545 22.7248 74.3004 22.3473C74.9974 21.5823 75.3459 20.4835 75.3459 19.0507V12.3575H78.1215V25.6119H75.3824V23.6222H74.9487C74.6283 24.2364 74.1571 24.7596 73.5791 25.143C72.9552 25.6165 72.0133 25.8533 70.7533 25.8533Z" fill="#00193C"/>
<path d="M87.2156 25.6119C86.8618 25.6297 86.5082 25.5745 86.1768 25.45C85.8453 25.3254 85.5431 25.1341 85.2891 24.888C85.0466 24.6284 84.8588 24.323 84.7364 23.9899C84.6141 23.6568 84.5599 23.3026 84.5769 22.9483V14.6978H80.9248V12.3575H84.5769V8.53276H87.3525V12.3575H93.552V8.53276H96.2911V12.3575H100.276V14.6978H96.2911V22.4657C96.274 22.573 96.2821 22.6828 96.3149 22.7864C96.3476 22.8901 96.4041 22.9847 96.4798 23.0629C96.5555 23.141 96.6484 23.2006 96.7511 23.2368C96.8538 23.273 96.9636 23.2849 97.0717 23.2716H99.8108V25.6119H96.1587C95.8026 25.6321 95.4462 25.5782 95.1122 25.4536C94.7782 25.3289 94.4738 25.1363 94.2185 24.888C93.9783 24.6272 93.7925 24.3215 93.6718 23.9885C93.5511 23.6555 93.498 23.3019 93.5155 22.9483V14.6978H87.3343V22.4657C87.3343 23.0029 87.5853 23.2716 88.0875 23.2716H90.8677V25.6119H87.2156Z" fill="#00193C"/>
<path d="M109.626 25.9899C108.395 26.0186 107.179 25.7267 106.097 25.143C105.1 24.5894 104.282 23.7652 103.737 22.7662C103.149 21.6579 102.857 20.4178 102.887 19.1646V18.8413C102.857 17.5881 103.149 16.348 103.737 15.2397C104.277 14.2415 105.085 13.4125 106.069 12.8447C107.121 12.254 108.314 11.9567 109.521 11.9841C110.695 11.9588 111.855 12.2515 112.876 12.831C113.832 13.3907 114.611 14.2061 115.127 15.185C115.685 16.2729 115.963 17.4827 115.935 18.7047V19.7565H105.718C105.712 20.2756 105.813 20.7904 106.015 21.2689C106.217 21.7474 106.515 22.1796 106.891 22.5385C107.65 23.2322 108.651 23.603 109.68 23.5721C110.526 23.6337 111.365 23.386 112.041 22.8754C112.556 22.4258 112.974 21.8757 113.269 21.259L115.583 22.4429C115.271 23.0093 114.901 23.5419 114.478 24.032C113.958 24.6275 113.315 25.1042 112.593 25.4298C111.657 25.8321 110.644 26.0233 109.626 25.9899V25.9899ZM105.745 17.6256H113.132C113.085 16.7325 112.688 15.8935 112.027 15.2898C111.321 14.6954 110.416 14.3882 109.493 14.4292C108.576 14.3706 107.671 14.6706 106.972 15.2655C106.272 15.8605 105.832 16.7036 105.745 17.6165V17.6256Z" fill="#00193C"/>
<path opacity="0.75" d="M26.1562 14.9938V21.3456L32.5201 18.1719L26.1562 14.9938Z" fill="#9189FF"/>
<path opacity="0.75" d="M27.366 9.74392L34.7159 17.0746C34.7275 14.6626 34.2267 12.2754 33.2462 10.0704C32.2658 7.86545 30.8282 5.89267 29.0279 4.28205C27.2276 2.67142 25.1057 1.45951 22.8018 0.72614C20.4979 -0.00722913 18.0643 -0.24541 15.6614 0.0272864C13.2585 0.299983 10.9408 1.07737 8.86101 2.30823C6.78118 3.5391 4.98643 5.19551 3.59498 7.16835C2.20353 9.14119 1.24696 11.3857 0.788272 13.754C0.329589 16.1223 0.379206 18.5607 0.933855 20.9084L7.82722 14.0148C7.98585 13.856 8.17438 13.7299 8.38198 13.6439C8.58959 13.5579 8.81218 13.5136 9.03698 13.5136C9.26179 13.5136 9.48438 13.5579 9.69198 13.6439C9.89958 13.7299 10.0881 13.856 10.2467 14.0148L15.4556 19.2101L24.9465 9.74392C25.2675 9.42416 25.7026 9.24456 26.1563 9.24456C26.6099 9.24456 27.045 9.42416 27.366 9.74392V9.74392ZM10.6804 7.66309C10.6804 6.98768 10.8812 6.32744 11.2575 5.76586C11.6337 5.20428 12.1684 4.76658 12.794 4.50811C13.4197 4.24964 14.1081 4.18201 14.7722 4.31378C15.4364 4.44555 16.0465 4.77079 16.5253 5.24837C17.0042 5.72596 17.3302 6.33444 17.4624 6.99687C17.5945 7.6593 17.5267 8.34593 17.2675 8.96992C17.0084 9.59392 16.5695 10.1273 16.0065 10.5025C15.4434 10.8777 14.7815 11.078 14.1043 11.078C13.1962 11.078 12.3254 10.7182 11.6833 10.0778C11.0412 9.43738 10.6804 8.56878 10.6804 7.66309Z" fill="#00B4FF"/>
<path opacity="0.75" d="M20.6644 24.4053L15.4556 19.2101L5.49902 29.1407C7.27005 30.9066 9.40796 32.2635 11.762 33.1156C14.116 33.9678 16.6288 34.2944 19.1231 34.0725C21.6175 33.8507 24.0327 33.0857 26.1984 31.8315C28.3641 30.5774 30.2275 28.8646 31.6573 26.814L26.1791 21.3501L23.0885 24.4053C22.7662 24.7243 22.3305 24.9032 21.8765 24.9032C21.4224 24.9032 20.9868 24.7243 20.6644 24.4053V24.4053Z" fill="#23EB82"/>
<path d="M26.1563 9.24306C26.3811 9.24301 26.6037 9.28723 26.8113 9.37318C27.0189 9.45913 27.2074 9.58512 27.3661 9.74392L34.716 17.0746C34.716 12.5462 32.9124 8.20316 29.7019 5.00104C26.4914 1.79893 22.137 0 17.5967 0V0V0.910647C21.4813 0.91674 25.2349 2.31157 28.1766 4.84202C31.1182 7.37247 33.0529 10.8709 33.6295 14.7024L28.0144 9.10647C27.7705 8.86279 27.4809 8.66946 27.1621 8.53756C26.8433 8.40565 26.5015 8.33776 26.1563 8.33776C25.8112 8.33776 25.4694 8.40565 25.1506 8.53756C24.8318 8.66946 24.5422 8.86279 24.2983 9.10647L15.4557 17.9215L10.8905 13.3683C10.3969 12.8784 9.72887 12.6033 9.0325 12.6033C8.33613 12.6033 7.6681 12.8784 7.17448 13.3683L1.50914 19.0234C1.31731 17.4551 1.35885 15.8671 1.6324 14.3108C2.2756 10.674 4.1426 7.3645 6.92535 4.92839C9.70811 2.49227 13.2404 1.07508 16.9393 0.910647C17.1585 0.910647 17.3776 0.910647 17.5967 0.910647V0C17.3684 0 17.1356 0 16.9119 0C14.3974 0.103568 11.9367 0.758669 9.7049 1.91868C7.47311 3.07869 5.5251 4.71509 3.99953 6.71142C2.47396 8.70775 1.40832 11.0149 0.878461 13.4688C0.3486 15.9226 0.367541 18.4627 0.933937 20.9084L7.8273 14.0149C7.98593 13.856 8.17446 13.7299 8.38207 13.6439C8.58967 13.5579 8.81226 13.5136 9.03706 13.5136C9.26187 13.5136 9.48446 13.5579 9.69206 13.6439C9.89966 13.7299 10.0882 13.856 10.2468 14.0149L15.4557 19.2101L24.9466 9.74392C25.1052 9.58512 25.2938 9.45913 25.5014 9.37318C25.709 9.28723 25.9316 9.24301 26.1563 9.24306V9.24306Z" fill="#00193C"/>
<path d="M21.8742 24.9062C21.4206 24.9043 20.986 24.7244 20.6644 24.4053L15.4556 19.2101L5.49902 29.1407C7.27005 30.9066 9.40796 32.2635 11.762 33.1156C14.116 33.9678 16.6288 34.2944 19.1231 34.0725C21.6175 33.8507 24.0327 33.0857 26.1984 31.8315C28.3641 30.5774 30.2275 28.8646 31.6573 26.814L26.1791 21.3501L23.0885 24.4053C22.7658 24.7255 22.3293 24.9055 21.8742 24.9062V24.9062ZM26.1563 22.6296L30.4521 26.9142C29.0954 28.6793 27.3882 30.1462 25.4371 31.2231C23.486 32.3 21.333 32.9637 19.113 33.1727C16.8929 33.3817 14.6535 33.1314 12.5349 32.4377C10.4162 31.7439 8.46391 30.6215 6.80009 29.1407L15.4739 20.4895L20.039 25.0428C20.2821 25.2869 20.5712 25.4806 20.8897 25.6128C21.2082 25.745 21.5498 25.813 21.8947 25.813C22.2397 25.813 22.5812 25.745 22.8997 25.6128C23.2182 25.4806 23.5073 25.2869 23.7505 25.0428L26.1563 22.6296Z" fill="#00193C"/>
<path d="M26.1562 13.9511V21.3456L33.57 17.6483L26.1562 13.9511ZM27.0693 15.4218L31.5203 17.6483L27.0647 19.8703L27.0693 15.4218Z" fill="#00193C"/>
</g>
<defs>
<clipPath id="clip0_581_10844">
<rect width="115.457" height="34.1493" fill="white" transform="translate(0.477539)"/>
</clipPath>
</defs>
</svg>
