<svg width="25" height="24" viewBox="0 0 25 24" fill="none" xmlns="http://www.w3.org/2000/svg">
<path d="M11.0502 7.8893C11.6448 7.2704 12.4722 6.88714 13.3864 6.88714C14.6052 6.88714 15.6615 7.56427 16.2303 8.57321C16.7352 8.3475 17.2821 8.23097 17.8351 8.23125C20.0291 8.23125 21.8099 10.0257 21.8099 12.2399C21.8099 14.4541 20.0291 16.2486 17.8351 16.2486C17.567 16.2486 17.3056 16.2216 17.0497 16.1707C16.552 17.0577 15.6006 17.6604 14.5172 17.6604C14.0761 17.6613 13.6406 17.5612 13.2442 17.3679C12.7397 18.5529 11.5649 19.3857 10.197 19.3857C8.76828 19.3857 7.5562 18.4851 7.08898 17.2189C6.88102 17.2628 6.66906 17.2848 6.45653 17.2847C4.75691 17.2847 3.38232 15.8898 3.38232 14.1767C3.38232 13.0255 4.00123 12.0234 4.91943 11.4817C4.72463 11.0329 4.62436 10.5489 4.62487 10.0597C4.62487 8.08242 6.22969 6.48438 8.20693 6.48438C9.36483 6.48438 10.4009 7.03624 11.0509 7.89282" stroke="black" stroke-width="2" stroke-linecap="round" stroke-linejoin="round"/>
</svg>
