<svg width="25" height="24" viewBox="0 0 25 24" fill="none" xmlns="http://www.w3.org/2000/svg">
<g clip-path="url(#clip0_1182_8903)">
<path d="M10.9704 14.2622L10.1557 15.1819C9.52639 15.8112 8.72457 16.2399 7.85165 16.4135C6.97873 16.5872 6.07391 16.4981 5.25163 16.1575C4.42934 15.8169 3.72652 15.2401 3.23204 14.5001C2.73756 13.7601 2.47363 12.89 2.47363 12C2.47363 11.11 2.73756 10.2399 3.23204 9.4999C3.72652 8.75988 4.42934 8.1831 5.25163 7.84252C6.07391 7.50193 6.97873 7.41283 7.85165 7.58649C8.72457 7.76015 9.52639 8.18876 10.1557 8.81813L15.792 15.1819C16.4213 15.8112 17.2231 16.2399 18.096 16.4135C18.969 16.5872 19.8738 16.4981 20.6961 16.1575C21.5183 15.8169 22.2212 15.2401 22.7156 14.5001C23.2101 13.7601 23.4741 12.89 23.4741 12C23.4741 11.11 23.2101 10.2399 22.7156 9.4999C22.2212 8.75988 21.5183 8.1831 20.6961 7.84252C19.8738 7.50193 18.969 7.41283 18.096 7.58649C17.2231 7.76015 16.4213 8.18876 15.792 8.81813L14.9773 9.73781" stroke="black" stroke-width="2" stroke-linecap="round" stroke-linejoin="round"/>
</g>
<defs>
<clipPath id="clip0_1182_8903">
<rect width="24" height="24" fill="white" transform="translate(0.973633)"/>
</clipPath>
</defs>
</svg>
