<svg width="25" height="24" viewBox="0 0 25 24" fill="none" xmlns="http://www.w3.org/2000/svg">
<g clip-path="url(#clip0_1182_8900)">
<path d="M10.7236 11.9009C10.1241 10.8159 9.87531 9.57183 10.0115 8.33969C10.1478 7.10755 10.6623 5.94785 11.4844 5.02001C12.3065 4.09217 13.3958 3.44175 14.6026 3.15815C15.8093 2.87455 17.0743 2.9717 18.2236 3.43624L14.4736 7.50031L15.0043 9.96968L17.4736 10.5003L21.5377 6.75031C22.0022 7.89962 22.0994 9.16461 21.8158 10.3714C21.5322 11.5782 20.8818 12.6675 19.9539 13.4896C19.0261 14.3117 17.8664 14.8262 16.6342 14.9624C15.4021 15.0986 14.158 14.8499 13.073 14.2503L7.81738 20.3441C7.39469 20.7667 6.8214 21.0042 6.22363 21.0042C5.62586 21.0042 5.05257 20.7667 4.62988 20.3441C4.20719 19.9214 3.96973 19.3481 3.96973 18.7503C3.96973 18.1525 4.20719 17.5792 4.62988 17.1566L10.7236 11.9009Z" stroke="black" stroke-width="2" stroke-linecap="round" stroke-linejoin="round"/>
</g>
<defs>
<clipPath id="clip0_1182_8900">
<rect width="24" height="24" fill="white" transform="translate(0.973633)"/>
</clipPath>
</defs>
</svg>
