<svg width="29" height="29" viewBox="0 0 29 29" fill="none" xmlns="http://www.w3.org/2000/svg">
<circle cx="14.5" cy="14.4175" r="13.5" stroke="#00193C"/>
<path d="M16.8351 12.3925H15.2803V11.0425C15.2803 10.3464 15.336 9.90605 16.2916 9.90605H16.8528C17.2118 9.90605 17.5 9.60547 17.5 9.23105V8.38467C17.5 8.03135 17.2421 7.73076 16.9034 7.70703C16.5115 7.68066 16.1222 7.66748 15.7278 7.66748C13.9733 7.66748 12.6916 8.78545 12.6916 10.8395V12.3925H11.3972C11.0407 12.3925 10.75 12.6957 10.75 13.0675V14.4175C10.75 14.7893 11.0407 15.0925 11.3972 15.0925H12.6916V20.4925C12.6916 20.8643 12.9823 21.1675 13.3388 21.1675H14.6331C14.9896 21.1675 15.2803 20.8643 15.2803 20.4925V15.0898H16.6885C17.0171 15.0898 17.2927 14.8314 17.3306 14.4913L17.4772 13.1439C17.5228 12.7432 17.2219 12.3925 16.8351 12.3925Z" fill="#00193C"/>
</svg>
