<svg width="29" height="29" viewBox="0 0 29 29" fill="none" xmlns="http://www.w3.org/2000/svg">
<circle cx="14.5" cy="14.4175" r="13.5" stroke="#00193C"/>
<g clip-path="url(#clip0_43_1656)">
<path fill-rule="evenodd" clip-rule="evenodd" d="M12.2599 20.8694C12.2599 20.1015 12.2456 19.942 12.2456 19.194C9.81483 19.7326 9.30863 18.1171 9.30863 18.1171C8.91799 17.07 8.33918 16.8009 8.33918 16.8009C7.54358 16.2475 8.39713 16.2475 8.39713 16.2475C9.27966 16.3073 9.74274 17.1748 9.74274 17.1748C10.5239 18.5508 11.7825 18.162 12.2889 17.9227C12.3612 17.3393 12.5928 16.9355 12.8388 16.7112C10.9 16.5017 8.86022 15.724 8.86022 12.2538C8.86022 11.2666 9.20722 10.4589 9.75705 9.83076C9.6703 9.60645 9.36641 8.67892 9.84398 7.4375C9.84398 7.4375 10.5818 7.19813 12.2455 8.36485C12.9577 8.16715 13.6923 8.06656 14.4301 8.06564C15.168 8.06564 15.9201 8.17046 16.6146 8.36485C18.2785 7.19813 19.0163 7.4375 19.0163 7.4375C19.4939 8.67892 19.1898 9.60645 19.103 9.83076C19.6674 10.4589 20 11.2666 20 12.2538C20 15.724 17.9602 16.4867 16.007 16.7112C16.3254 16.9953 16.6001 17.5337 16.6001 18.3864C16.6001 19.5979 16.5858 20.1766 16.5858 20.8692C16.5858 21.5618 12.2599 21.6374 12.2599 20.8694Z" fill="#24292F"/>
</g>
<defs>
<clipPath id="clip0_43_1656">
<rect width="12" height="14" fill="white" transform="translate(8 7.41748)"/>
</clipPath>
</defs>
</svg>
