<svg width="24" height="24" viewBox="0 0 24 24" fill="none" xmlns="http://www.w3.org/2000/svg">
<path d="M17.4654 10.6855V14.6981L21.6164 12.6919L17.4654 10.6855Z" stroke="#00193C" stroke-width="1.5" stroke-linecap="round" stroke-linejoin="round"/>
<path d="M18.2781 7.25577L23 11.9613C23 5.74124 17.801 0.731075 11.4971 1.0112C6.27478 1.24316 1.89672 5.19175 1.12145 10.3426C0.916854 11.7001 0.971131 13.0839 1.28143 14.4214L5.72186 9.99622C5.82396 9.89435 5.94521 9.81355 6.07867 9.75841C6.21214 9.70328 6.3552 9.6749 6.49968 9.6749C6.64416 9.6749 6.78722 9.70328 6.92068 9.75841C7.05415 9.81355 7.1754 9.89435 7.2775 9.99622L10.6246 13.3317L16.7215 7.25596C16.8236 7.15395 16.9449 7.073 17.0785 7.01777C17.212 6.96254 17.3552 6.9341 17.4998 6.93408C17.6444 6.93406 17.7875 6.96247 17.9211 7.01767C18.0546 7.07287 18.176 7.15378 18.2781 7.25577ZM7.55633 5.91974C7.55633 5.48615 7.68536 5.0623 7.92709 4.70178C8.16882 4.34126 8.5124 4.06027 8.91438 3.89434C9.31637 3.72841 9.7587 3.685 10.1854 3.76959C10.6122 3.85418 11.0042 4.06297 11.3118 4.36957C11.6195 4.67616 11.829 5.06679 11.9139 5.49205C11.9988 5.91731 11.9552 6.35811 11.7887 6.75869C11.6222 7.15928 11.3403 7.50167 10.9785 7.74256C10.6167 7.98345 10.1914 8.11202 9.75626 8.11202C9.46728 8.11215 9.18111 8.05553 8.91409 7.94541C8.64707 7.8353 8.40445 7.67384 8.20006 7.47025C7.99568 7.26667 7.83355 7.02495 7.72293 6.75891C7.61232 6.49287 7.55538 6.20772 7.55538 5.91974H7.55633Z" stroke="#00193C" stroke-width="1.5" stroke-linecap="round" stroke-linejoin="round"/>
<path d="M13.9749 16.6827L10.6134 13.3145L4.18239 19.7573C6.18137 21.7601 8.94357 23 11.9942 23C15.7506 23 19.0668 21.1202 21.0629 18.2504L17.518 14.6989L15.5381 16.6827C15.4355 16.7856 15.3137 16.8673 15.1796 16.9231C15.0455 16.9788 14.9017 17.0075 14.7565 17.0075C14.6113 17.0075 14.4675 16.9788 14.3334 16.9231C14.1993 16.8673 14.0775 16.7856 13.9749 16.6827Z" stroke="#00193C" stroke-width="1.5" stroke-linecap="round" stroke-linejoin="round"/>
</svg>
