<svg width="109" height="33" viewBox="0 0 109 33" fill="none" xmlns="http://www.w3.org/2000/svg">
<g clip-path="url(#clip0_19_3490)">
<path d="M12.8648 4.33667C12.2255 4.33667 11.6006 4.52531 11.069 4.87873C10.5375 5.23215 10.1231 5.73448 9.8785 6.3222C9.63385 6.90992 9.56983 7.55663 9.69456 8.18055C9.81928 8.80447 10.1271 9.37758 10.5792 9.8274C11.0312 10.2772 11.6072 10.5835 12.2342 10.7077C12.8612 10.8318 13.5112 10.7681 14.1018 10.5246C14.6924 10.2812 15.1973 9.86893 15.5524 9.34C15.9076 8.81106 16.0972 8.18921 16.0972 7.55306C16.0972 7.13068 16.0136 6.71243 15.8511 6.3222C15.6887 5.93197 15.4506 5.5774 15.1505 5.27873C14.8503 4.98006 14.494 4.74314 14.1018 4.5815C13.7096 4.41986 13.2893 4.33667 12.8648 4.33667ZM12.8648 9.91175C12.396 9.91175 11.9377 9.77342 11.5479 9.51424C11.1581 9.25507 10.8543 8.88669 10.6749 8.45569C10.4954 8.0247 10.4485 7.55045 10.54 7.09291C10.6314 6.63537 10.8572 6.21509 11.1887 5.88522C11.5202 5.55535 11.9426 5.33071 12.4024 5.2397C12.8622 5.14869 13.3388 5.1954 13.7719 5.37392C14.2051 5.55244 14.5753 5.85476 14.8357 6.24265C15.0962 6.63053 15.2352 7.08656 15.2352 7.55306C15.2341 8.17828 14.984 8.77756 14.5397 9.21966C14.0954 9.66175 13.4931 9.91062 12.8648 9.91175Z" fill="#00193C"/>
<path d="M44.5377 24.4585V7.34302H47.2831V14.6335H54.9977V7.34302H57.7517V24.4585H55.0063V17.0994H47.2917V24.4585H44.5377Z" fill="#00193C"/>
<path d="M66.3455 24.6858C65.457 24.7009 64.5802 24.4835 63.8027 24.0554C63.0579 23.6316 62.4485 23.0073 62.0443 22.2542C61.602 21.394 61.3841 20.4369 61.4107 19.471V11.9746H64.0311V19.2908C64.0311 20.3715 64.3026 21.1692 64.8457 21.6838C65.467 22.2303 66.2806 22.5094 67.1083 22.4601C67.5921 22.4783 68.074 22.3915 68.5206 22.2056C68.9672 22.0197 69.3677 21.7392 69.6942 21.3836C70.3522 20.6632 70.6812 19.6282 70.6812 18.2787V11.9746H73.3016V24.4585H70.7157V22.5844H70.3062C70.0038 23.1629 69.559 23.6557 69.0133 24.0168C68.4243 24.4628 67.535 24.6858 66.3455 24.6858Z" fill="#00193C"/>
<path d="M81.8868 24.4586C81.5529 24.4753 81.219 24.4233 80.9061 24.306C80.5932 24.1887 80.3079 24.0085 80.0681 23.7767C79.8392 23.5322 79.6618 23.2446 79.5463 22.9309C79.4309 22.6171 79.3797 22.2835 79.3957 21.9498V14.179H75.9479V11.9747H79.3957V8.37231H82.0161V11.9747H87.8689V8.37231H90.4548V11.9747H94.2173V14.179H90.4548V21.4952C90.4386 21.5963 90.4463 21.6997 90.4772 21.7973C90.5082 21.895 90.5615 21.9841 90.6329 22.0577C90.7044 22.1313 90.7921 22.1874 90.8891 22.2215C90.9861 22.2556 91.0897 22.2668 91.1918 22.2543H93.7777V24.4586H90.3298C89.9936 24.4776 89.6572 24.4268 89.3419 24.3094C89.0265 24.192 88.7392 24.0106 88.4981 23.7767C88.2714 23.5311 88.096 23.2431 87.982 22.9295C87.8681 22.6159 87.8179 22.2829 87.8344 21.9498V14.179H81.9989V21.4952C81.9989 22.0012 82.2359 22.2543 82.71 22.2543H85.3347V24.4586H81.8868Z" fill="#00193C"/>
<path d="M103.044 24.8145C101.882 24.8415 100.734 24.5666 99.7123 24.0168C98.7716 23.4955 97.999 22.7192 97.4841 21.7782C96.9296 20.7343 96.6536 19.5663 96.6825 18.386V18.0815C96.6536 16.9011 96.9296 15.7331 97.4841 14.6893C97.9944 13.7491 98.7568 12.9683 99.6864 12.4335C100.68 11.8772 101.805 11.5972 102.945 11.623C104.054 11.5991 105.148 11.8748 106.112 12.4206C107.015 12.9478 107.751 13.7158 108.237 14.6378C108.765 15.6624 109.027 16.8019 109 17.9528V18.9435H99.3546C99.3491 19.4324 99.4447 19.9173 99.6352 20.368C99.8257 20.8187 100.107 21.2257 100.462 21.5638C101.179 22.2171 102.124 22.5664 103.096 22.5373C103.894 22.5953 104.686 22.362 105.324 21.8811C105.81 21.4576 106.205 20.9395 106.483 20.3587L108.668 21.4737C108.374 22.0072 108.024 22.5088 107.625 22.9704C107.134 23.5313 106.527 23.9803 105.845 24.287C104.962 24.6659 104.005 24.846 103.044 24.8145ZM99.3804 16.9365H106.354C106.31 16.0953 105.935 15.3051 105.311 14.7364C104.644 14.1767 103.79 13.8873 102.919 13.9259C102.053 13.8708 101.199 14.1533 100.538 14.7136C99.878 15.274 99.4626 16.0681 99.3804 16.9279V16.9365Z" fill="#00193C"/>
<path opacity="0.75" d="M24.2427 14.4575V20.44L30.2506 17.4509L24.2427 14.4575Z" fill="#9189FF"/>
<path opacity="0.75" d="M25.385 9.5129L32.3238 16.4174C32.3348 14.1456 31.8619 11.8972 30.9363 9.82044C30.0108 7.74364 28.6535 5.88555 26.9539 4.36857C25.2543 2.85158 23.251 1.71012 21.076 1.01939C18.9009 0.328654 16.6035 0.10432 14.335 0.361163C12.0664 0.618006 9.87837 1.3502 7.91486 2.5095C5.95135 3.66881 4.25698 5.22892 2.94334 7.08707C1.62971 8.94522 0.726631 11.0592 0.293599 13.2898C-0.139432 15.5205 -0.0925898 17.8171 0.43104 20.0284L6.93889 13.5355C7.08865 13.3859 7.26664 13.2672 7.46263 13.1862C7.65862 13.1051 7.86876 13.0634 8.08099 13.0634C8.29323 13.0634 8.50337 13.1051 8.69936 13.1862C8.89535 13.2672 9.07334 13.3859 9.2231 13.5355L14.1406 18.4287L23.1008 9.5129C23.4038 9.21174 23.8146 9.04258 24.2429 9.04258C24.6712 9.04258 25.0819 9.21174 25.385 9.5129ZM9.63253 7.55305C9.63253 6.9169 9.82211 6.29505 10.1773 5.76611C10.5325 5.23718 11.0373 4.82493 11.6279 4.58149C12.2186 4.33804 12.8685 4.27435 13.4955 4.39845C14.1225 4.52256 14.6985 4.82889 15.1505 5.27871C15.6026 5.72853 15.9105 6.30164 16.0352 6.92556C16.1599 7.54948 16.0959 8.19619 15.8512 8.78391C15.6066 9.37163 15.1923 9.87396 14.6607 10.2274C14.1292 10.5808 13.5042 10.7694 12.8649 10.7694C12.0076 10.7694 11.1855 10.4306 10.5793 9.82738C9.97309 9.22419 9.63253 8.40609 9.63253 7.55305Z" fill="#00B4FF"/>
<path opacity="0.75" d="M19.058 23.3219L14.1405 18.4287L4.74072 27.782C6.41271 29.4452 8.43105 30.7232 10.6534 31.5258C12.8758 32.3284 15.248 32.6361 17.6029 32.4271C19.9578 32.2182 22.2379 31.4976 24.2825 30.3164C26.327 29.1352 28.0862 27.5219 29.4361 25.5905L24.2643 20.4443L21.3465 23.3219C21.0422 23.6223 20.6309 23.7909 20.2022 23.7909C19.7736 23.7909 19.3623 23.6223 19.058 23.3219Z" fill="#23EB82"/>
<path d="M24.2428 9.04115C24.455 9.04111 24.6651 9.08275 24.8611 9.16371C25.0571 9.24466 25.2351 9.36332 25.3849 9.51289L32.3237 16.4174C32.3237 12.1522 30.621 8.0617 27.59 5.04575C24.5591 2.02979 20.4483 0.335449 16.1619 0.335449V0.335449V1.19315C19.8292 1.19889 23.3729 2.51263 26.1501 4.89597C28.9272 7.27931 30.7536 10.5743 31.298 14.1831L25.9969 8.9125C25.7667 8.68299 25.4933 8.5009 25.1923 8.37666C24.8913 8.25243 24.5687 8.18848 24.2428 8.18848C23.9169 8.18848 23.5943 8.25243 23.2933 8.37666C22.9923 8.5009 22.7189 8.68299 22.4887 8.9125L14.1406 17.2151L9.83072 12.9266C9.36472 12.4651 8.73404 12.2061 8.07662 12.2061C7.4192 12.2061 6.78852 12.4651 6.32252 12.9266L0.974014 18.2529C0.792912 16.7757 0.832123 15.28 1.09038 13.8143C1.69761 10.3889 3.46019 7.2718 6.08732 4.97732C8.71445 2.68283 12.0492 1.34803 15.5413 1.19315C15.7481 1.19315 15.955 1.19315 16.1619 1.19315V0.335449C15.9464 0.335449 15.7266 0.335449 15.5154 0.335449C13.1415 0.432997 10.8184 1.05001 8.71142 2.14258C6.60444 3.23515 4.76538 4.77642 3.32512 6.65669C1.88487 8.53696 0.878829 10.71 0.378601 13.0212C-0.121627 15.3324 -0.103745 17.7248 0.430975 20.0284L6.93882 13.5355C7.08859 13.3859 7.26657 13.2672 7.46256 13.1861C7.65856 13.1051 7.8687 13.0634 8.08093 13.0634C8.29316 13.0634 8.5033 13.1051 8.6993 13.1861C8.89529 13.2672 9.07327 13.3859 9.22304 13.5355L14.1406 18.4287L23.1007 9.51289C23.2505 9.36332 23.4285 9.24466 23.6245 9.16371C23.8205 9.08275 24.0306 9.04111 24.2428 9.04115Z" fill="#00193C"/>
<path d="M20.2001 23.7937C19.7719 23.7919 19.3616 23.6224 19.058 23.3219L14.1405 18.4287L4.74072 27.782C6.41271 29.4452 8.43105 30.7232 10.6534 31.5258C12.8758 32.3284 15.248 32.6361 17.6029 32.4271C19.9578 32.2182 22.2379 31.4976 24.2825 30.3164C26.327 29.1352 28.0862 27.5219 29.4361 25.5905L24.2643 20.4443L21.3465 23.3219C21.0418 23.6235 20.6298 23.793 20.2001 23.7937ZM24.2427 21.6494L28.2983 25.6849C27.0175 27.3474 25.4057 28.729 23.5637 29.7433C21.7217 30.7576 19.6892 31.3827 17.5933 31.5796C15.4974 31.7764 13.3833 31.5407 11.3831 30.8873C9.38292 30.2338 7.53979 29.1767 5.96903 27.782L14.1577 19.6338L18.4675 23.9223C18.6971 24.1522 18.97 24.3347 19.2707 24.4592C19.5714 24.5837 19.8938 24.6478 20.2195 24.6478C20.5452 24.6478 20.8676 24.5837 21.1683 24.4592C21.469 24.3347 21.7419 24.1522 21.9714 23.9223L24.2427 21.6494Z" fill="#00193C"/>
<path d="M24.2427 13.4756V20.4402L31.2418 16.9579L24.2427 13.4756ZM25.1046 14.8608L29.3067 16.9579L25.1003 19.0507L25.1046 14.8608Z" fill="#00193C"/>
</g>
<defs>
<clipPath id="clip0_19_3490">
<rect width="109" height="32.1639" fill="white" transform="translate(0 0.335449)"/>
</clipPath>
</defs>
</svg>
