<svg width="29" height="29" viewBox="0 0 29 29" fill="none" xmlns="http://www.w3.org/2000/svg">
<circle cx="14.5" cy="14.4175" r="13.5" stroke="#00193C"/>
<path d="M9.81971 11.9039C10.6601 11.9039 11.2002 11.2962 11.2002 10.5357C11.1698 9.74554 10.6894 9.16748 9.85009 9.16748C9.00966 9.16748 8.5 9.74554 8.5 10.5357C8.5 11.2962 9.00966 11.9039 9.81971 11.9039Z" fill="#00193C"/>
<path d="M11.2002 12.5116V20.4175H8.5V12.5116H11.2002Z" fill="#00193C"/>
<path d="M17.6502 12.5116C19.2107 12.5116 20.5 13.8194 20.5 15.4008V20.4175H17.7998V15.8568C17.7998 15.1876 17.2598 14.6403 16.6005 14.6403C15.9401 14.6403 15.4 15.1876 15.4 15.8568V20.4175H12.6998V12.5116H15.4V13.6369C15.9097 12.938 16.7197 12.5116 17.6502 12.5116Z" fill="#00193C"/>
</svg>
