<svg width="136" height="40" viewBox="0 0 136 40" fill="none" xmlns="http://www.w3.org/2000/svg">
<g clip-path="url(#clip0_7854_141826)">
<path d="M15.9636 4.97656C15.1704 4.97656 14.395 5.21116 13.7355 5.65068C13.076 6.09021 12.5619 6.71492 12.2584 7.44583C11.9549 8.17673 11.8754 8.981 12.0302 9.75692C12.1849 10.5328 12.5669 11.2456 13.1278 11.805C13.6886 12.3644 14.4032 12.7454 15.1812 12.8997C15.9591 13.054 16.7655 12.9748 17.4983 12.6721C18.2311 12.3693 18.8575 11.8566 19.2982 11.1988C19.7388 10.541 19.974 9.76769 19.974 8.97656C19.974 8.45127 19.8703 7.93113 19.6688 7.44583C19.4672 6.96053 19.1718 6.51957 18.7994 6.14814C18.427 5.7767 17.9849 5.48206 17.4983 5.28104C17.0118 5.08003 16.4902 4.97656 15.9636 4.97656ZM15.9636 11.9099C15.3819 11.9099 14.8133 11.7379 14.3297 11.4155C13.846 11.0932 13.4691 10.6351 13.2465 10.0991C13.0239 9.5631 12.9656 8.97331 13.0791 8.4043C13.1926 7.83529 13.4727 7.31262 13.884 6.90238C14.2953 6.49215 14.8193 6.21278 15.3898 6.09959C15.9603 5.98641 16.5517 6.0445 17.0891 6.26652C17.6265 6.48853 18.0858 6.86451 18.4089 7.34689C18.7321 7.82927 18.9046 8.3964 18.9046 8.97656C18.9032 9.7541 18.5929 10.4994 18.0416 11.0492C17.4904 11.599 16.7432 11.9085 15.9636 11.9099Z" fill="#00193C"/>
<path d="M55.2578 30.0002V8.71484H58.664V17.7815H68.2357V8.71484H71.6526V30.0002H68.2464V20.8482H58.6747V30.0002H55.2578Z" fill="#00193C"/>
<path d="M82.3207 30.2846C81.2183 30.3033 80.1304 30.033 79.1657 29.5006C78.2417 28.9735 77.4855 28.1971 76.9841 27.2606C76.4353 26.1907 76.165 25.0005 76.198 23.7992V14.4766H79.4492V23.5752C79.4492 24.9192 79.786 25.9112 80.4598 26.5512C81.2306 27.2308 82.2401 27.578 83.2671 27.5166C83.8673 27.5393 84.4652 27.4313 85.0193 27.2002C85.5734 26.969 86.0703 26.6201 86.4755 26.1779C87.2918 25.2819 87.7 23.9948 87.7 22.3166V14.4766H90.9512V30.0019H87.7428V27.6712H87.2348C86.8595 28.3906 86.3076 29.0035 85.6306 29.4526C84.8998 30.0072 83.7965 30.2846 82.3207 30.2846Z" fill="#00193C"/>
<path d="M101.603 30.0014C101.189 30.0222 100.774 29.9576 100.386 29.8117C99.9979 29.6658 99.644 29.4417 99.3464 29.1534C99.0624 28.8494 98.8423 28.4917 98.6991 28.1015C98.5558 27.7113 98.4923 27.2965 98.5122 26.8814V17.2174H94.2344V14.4761H98.5122V9.99609H101.763V14.4761H109.025V9.99609H112.233V14.4761H116.902V17.2174H112.233V26.3161C112.213 26.4418 112.223 26.5704 112.261 26.6918C112.3 26.8132 112.366 26.9241 112.454 27.0156C112.543 27.1072 112.652 27.1769 112.772 27.2194C112.892 27.2618 113.021 27.2757 113.148 27.2601H116.356V30.0014H112.078C111.661 30.0251 111.244 29.9619 110.853 29.8159C110.461 29.6699 110.105 29.4443 109.806 29.1534C109.524 28.848 109.307 28.4899 109.165 28.0998C109.024 27.7098 108.962 27.2957 108.982 26.8814V17.2174H101.742V26.3161C101.742 26.9454 102.036 27.2601 102.624 27.2601H105.881V30.0014H101.603Z" fill="#00193C"/>
<path d="M127.848 30.4425C126.407 30.4762 124.983 30.1342 123.715 29.4505C122.548 28.8022 121.589 27.8368 120.95 26.6665C120.262 25.3683 119.92 23.9158 119.956 22.4479V22.0692C119.92 20.6013 120.262 19.1487 120.95 17.8505C121.583 16.6814 122.529 15.7102 123.683 15.0452C124.915 14.3533 126.311 14.0051 127.725 14.0372C129.101 14.0075 130.459 14.3504 131.656 15.0292C132.775 15.6847 133.688 16.6399 134.292 17.7865C134.946 19.0608 135.272 20.4778 135.238 21.9092V23.1412H123.271C123.264 23.7492 123.383 24.3522 123.619 24.9127C123.856 25.4732 124.205 25.9794 124.645 26.3999C125.535 27.2124 126.707 27.6467 127.912 27.6105C128.903 27.6826 129.886 27.3926 130.677 26.7945C131.281 26.2678 131.77 25.6235 132.115 24.9012L134.826 26.2879C134.461 26.9513 134.027 27.5751 133.532 28.1492C132.923 28.8467 132.169 29.4051 131.324 29.7865C130.228 30.2577 129.041 30.4817 127.848 30.4425ZM123.303 20.6452H131.955C131.9 19.5991 131.436 18.6164 130.661 17.9092C129.834 17.2131 128.774 16.8532 127.693 16.9012C126.619 16.8326 125.559 17.1839 124.74 17.8808C123.92 18.5777 123.405 19.5653 123.303 20.6345V20.6452Z" fill="#00193C"/>
<path opacity="0.75" d="M30.0781 17.5625V25.0025L37.5322 21.2852L30.0781 17.5625Z" fill="#9189FF"/>
<path opacity="0.75" d="M31.4953 11.4119L40.1044 19.9986C40.118 17.1733 39.5313 14.3772 38.3829 11.7944C37.2345 9.21163 35.5505 6.90086 33.4418 5.01429C31.3332 3.12772 28.8476 1.70817 26.149 0.849156C23.4504 -0.00985965 20.5999 -0.288848 17.7853 0.0305694C14.9707 0.349987 12.256 1.26056 9.8198 2.70231C7.38364 4.14406 5.2814 6.08426 3.65155 8.3951C2.0217 10.7059 0.90124 13.335 0.363971 16.1091C-0.173298 18.8831 -0.115181 21.7392 0.534496 24.4893L8.60889 16.4146C8.7947 16.2285 9.01553 16.0809 9.2587 15.9801C9.50187 15.8793 9.7626 15.8275 10.0259 15.8275C10.2892 15.8275 10.55 15.8793 10.7931 15.9801C11.0363 16.0809 11.2571 16.2285 11.4429 16.4146L17.5442 22.4999L28.6612 11.4119C29.0372 11.0374 29.5468 10.827 30.0782 10.827C30.6096 10.827 31.1193 11.0374 31.4953 11.4119ZM11.9509 8.9746C11.9509 8.18348 12.1861 7.41012 12.6268 6.75232C13.0675 6.09453 13.6938 5.58184 14.4267 5.27909C15.1595 4.97633 15.9658 4.89712 16.7438 5.05146C17.5218 5.2058 18.2364 5.58677 18.7972 6.14618C19.3581 6.70559 19.7401 7.41832 19.8948 8.19424C20.0495 8.97017 19.9701 9.77443 19.6666 10.5053C19.363 11.2362 18.849 11.861 18.1895 12.3005C17.53 12.74 16.7546 12.9746 15.9614 12.9746C14.8978 12.9746 13.8777 12.5532 13.1256 11.803C12.3735 11.0529 11.9509 10.0355 11.9509 8.9746Z" fill="#00B4FF"/>
<path opacity="0.75" d="M23.6465 28.5853L17.5452 22.5L5.88281 34.132C7.95727 36.2005 10.4615 37.7898 13.2188 38.7879C15.9761 39.7861 18.9194 40.1687 21.8411 39.9088C24.7629 39.6489 27.5918 38.7529 30.1286 37.2839C32.6653 35.8148 34.848 33.8086 36.5227 31.4067L30.106 25.0067L26.4859 28.5853C26.1083 28.9589 25.598 29.1685 25.0662 29.1685C24.5344 29.1685 24.0241 28.9589 23.6465 28.5853Z" fill="#23EB82"/>
<path d="M30.0817 10.8267C30.345 10.8266 30.6057 10.8784 30.8489 10.9791C31.0921 11.0798 31.3129 11.2273 31.4988 11.4133L40.1079 20C40.1079 14.6957 37.9952 9.60859 34.2347 5.85786C30.4742 2.10714 25.3738 0 20.0556 0V0V1.06667C24.6057 1.0738 29.0025 2.70761 32.4481 5.6716C35.8937 8.63559 38.1598 12.7334 38.8352 17.2213L32.2581 10.6667C31.9725 10.3812 31.6333 10.1548 31.2598 10.0003C30.8864 9.84578 30.486 9.76625 30.0817 9.76625C29.6774 9.76625 29.2771 9.84578 28.9037 10.0003C28.5302 10.1548 28.191 10.3812 27.9054 10.6667L17.5477 20.992L12.2004 15.6587C11.6223 15.0848 10.8398 14.7627 10.0241 14.7627C9.20841 14.7627 8.42593 15.0848 7.84775 15.6587L1.21177 22.2827C0.987072 20.4456 1.03572 18.5855 1.35615 16.7627C2.10954 12.5027 4.29641 8.62625 7.55593 5.77276C10.8155 2.91927 14.9529 1.25928 19.2856 1.06667C19.5423 1.06667 19.7989 1.06667 20.0556 1.06667V0C19.7882 0 19.5155 0 19.2535 0C16.3082 0.121313 13.4259 0.888651 10.8117 2.2474C8.19753 3.60616 5.91578 5.52292 4.12883 7.86128C2.34188 10.1996 1.09367 12.9021 0.473031 15.7763C-0.147611 18.6506 -0.125424 21.6259 0.538011 24.4907L8.61241 16.416C8.79822 16.2299 9.01905 16.0823 9.26222 15.9815C9.50539 15.8807 9.76612 15.8289 10.0294 15.8289C10.2928 15.8289 10.5535 15.8807 10.7967 15.9815C11.0398 16.0823 11.2607 16.2299 11.4465 16.416L17.5477 22.5013L28.6647 11.4133C28.8506 11.2273 29.0714 11.0798 29.3146 10.9791C29.5577 10.8784 29.8185 10.8266 30.0817 10.8267Z" fill="#00193C"/>
<path d="M25.0635 29.172C24.5322 29.1698 24.0232 28.959 23.6465 28.5853L17.5452 22.5L5.88281 34.132C7.95727 36.2005 10.4615 37.7898 13.2188 38.7879C15.9761 39.7861 18.9194 40.1687 21.8411 39.9088C24.7629 39.6489 27.5918 38.7529 30.1286 37.2839C32.6653 35.8148 34.848 33.8086 36.5227 31.4067L30.106 25.0067L26.4859 28.5853C26.1079 28.9603 25.5967 29.1712 25.0635 29.172ZM30.0793 26.5053L35.1111 31.524C33.522 33.5916 31.5222 35.3098 29.2368 36.5712C26.9514 37.8326 24.4296 38.61 21.8292 38.8548C19.2288 39.0996 16.6057 38.8065 14.1241 37.9938C11.6425 37.1812 9.35566 35.8665 7.40679 34.132L17.5666 23.9987L22.9139 29.332C23.1987 29.6179 23.5373 29.8448 23.9104 29.9996C24.2834 30.1545 24.6835 30.2342 25.0876 30.2342C25.4916 30.2342 25.8917 30.1545 26.2648 29.9996C26.6378 29.8448 26.9765 29.6179 27.2612 29.332L30.0793 26.5053Z" fill="#00193C"/>
<path d="M30.0781 16.3398V25.0012L38.7621 20.6705L30.0781 16.3398ZM31.1476 18.0625L36.3612 20.6705L31.1422 23.2732L31.1476 18.0625Z" fill="#00193C"/>
</g>
<defs>
<clipPath id="clip0_7854_141826">
<rect width="135.238" height="40" fill="white"/>
</clipPath>
</defs>
</svg>
