<svg width="24" height="24" viewBox="0 0 24 24" fill="none" xmlns="http://www.w3.org/2000/svg">
<path d="M12 13.8731C13.9849 13.8731 15.594 12.264 15.594 10.2791C15.594 8.29415 13.9849 6.68506 12 6.68506C10.0151 6.68506 8.40601 8.29415 8.40601 10.2791C8.40601 12.264 10.0151 13.8731 12 13.8731Z" stroke="#141B34" stroke-width="1.797" stroke-linecap="round" stroke-linejoin="round"/>
<path d="M12 18.4721C16.5249 18.4721 20.193 14.8039 20.193 10.2791C20.193 5.75419 16.5249 2.08606 12 2.08606C7.47514 2.08606 3.80701 5.75419 3.80701 10.2791C3.80701 14.8039 7.47514 18.4721 12 18.4721Z" stroke="#141B34" stroke-width="1.797" stroke-linecap="round" stroke-linejoin="round"/>
<path d="M12 21.914V18.472" stroke="#141B34" stroke-width="1.797" stroke-linecap="round" stroke-linejoin="round"/>
<path d="M1.54297 21.9139H22.457" stroke="#141B34" stroke-width="1.797" stroke-linecap="round" stroke-linejoin="round"/>
</svg>
