<svg width="24" height="24" viewBox="0 0 24 24" fill="none" xmlns="http://www.w3.org/2000/svg">
<g id="git-compare">
<g id="elements">
<path id="Vector" d="M5 7.5L5 13.5C5 16.3284 5 17.7426 5.87868 18.6213C6.75736 19.5 8.17157 19.5 11 19.5H14M14 19.5C14 20.2002 12.0057 21.5085 11.5 22M14 19.5C14 18.7998 12.0057 17.4915 11.5 17" stroke="#141B34" stroke-width="2" stroke-linecap="round" stroke-linejoin="round"/>
<path id="Vector_2" d="M13 5V6V5ZM18.1213 5.87868L18.8284 5.17157L18.8284 5.17157L18.1213 5.87868ZM13.197 3.21708C13.593 2.83214 13.602 2.19904 13.2171 1.80301C12.8321 1.40698 12.199 1.39798 11.803 1.78292L13.197 3.21708ZM11.803 8.21708C12.199 8.60202 12.8321 8.59302 13.2171 8.19699C13.602 7.80096 13.593 7.16786 13.197 6.78292L11.803 8.21708ZM13 4H10V6H13V4ZM20 11C20 9.61406 20.0021 8.474 19.8812 7.57494C19.7565 6.64711 19.4845 5.82768 18.8284 5.17157L17.4142 6.58579C17.6368 6.80836 17.8042 7.13538 17.8991 7.84143C17.9979 8.57625 18 9.55752 18 11H20ZM13 6C14.4425 6 15.4237 6.00212 16.1586 6.10092C16.8646 6.19584 17.1916 6.36322 17.4142 6.58579L18.8284 5.17157C18.1723 4.51546 17.3529 4.2435 16.4251 4.11875C15.526 3.99788 14.3859 4 13 4V6ZM11 5C11 5.14015 10.954 5.21035 10.9684 5.18353C10.9785 5.16464 11.0102 5.11436 11.0808 5.03149C11.2227 4.86493 11.4388 4.66177 11.7068 4.43467C11.9705 4.21127 12.2507 3.9925 12.5137 3.78594C12.754 3.5972 13.0237 3.38554 13.197 3.21708L11.803 1.78292C11.7235 1.86023 11.5542 1.99642 11.2783 2.2131C11.0252 2.41196 10.712 2.65617 10.4139 2.9088C10.1201 3.15773 9.80608 3.44365 9.55821 3.73469C9.43392 3.88062 9.30592 4.05126 9.20499 4.23986C9.10831 4.42054 9 4.6848 9 5H11ZM13.197 6.78292C13.0237 6.61446 12.754 6.4028 12.5137 6.21406C12.2507 6.0075 11.9705 5.78873 11.7068 5.56533C11.4388 5.33823 11.2227 5.13507 11.0808 4.96851C11.0102 4.88564 10.9785 4.83536 10.9684 4.81647C10.954 4.78965 11 4.85985 11 5H9C9 5.3152 9.10831 5.57946 9.20499 5.76014C9.30592 5.94874 9.43392 6.11938 9.55821 6.26531C9.80608 6.55635 10.1201 6.84227 10.4139 7.0912C10.712 7.34383 11.0252 7.58804 11.2783 7.7869C11.5542 8.00358 11.7235 8.13977 11.803 8.21708L13.197 6.78292ZM18 11V17H20V11H18Z" fill="#141B34"/>
<path id="Vector_3" d="M20 19C20 19.5523 19.5523 20 19 20V22C20.6569 22 22 20.6569 22 19H20ZM19 20C18.4477 20 18 19.5523 18 19H16C16 20.6569 17.3431 22 19 22V20ZM18 19C18 18.4477 18.4477 18 19 18V16C17.3431 16 16 17.3431 16 19H18ZM19 18C19.5523 18 20 18.4477 20 19H22C22 17.3431 20.6569 16 19 16V18Z" fill="#141B34"/>
<circle id="Ellipse 1638" cx="5" cy="5" r="2" stroke="#141B34" stroke-width="2"/>
</g>
</g>
</svg>
