<svg width="24" height="24" viewBox="0 0 24 24" fill="none" xmlns="http://www.w3.org/2000/svg">
<g id="teaching ">
<g id="elements">
<path id="Vector 7338" d="M13 15C10.7083 21 4.29167 15 2 21" stroke="#141B34" stroke-width="2" stroke-linecap="round" stroke-linejoin="round"/>
<path id="Vector 7339" d="M15.4961 15H16.9974C19.3544 15 20.5329 15 21.2652 14.2678C21.9974 13.5355 21.9974 12.357 21.9974 10V8C21.9974 5.64298 21.9974 4.46447 21.2652 3.73223C20.5329 3 19.3544 3 16.9974 3H12.9974C10.6404 3 9.46186 3 8.72963 3.73223C8.10921 4.35264 8.01447 5.29344 8 7" stroke="#141B34" stroke-width="2" stroke-linecap="round" stroke-linejoin="round"/>
<circle id="Ellipse 2007" cx="7.5" cy="12.5" r="2.5" stroke="#141B34" stroke-width="2" stroke-linecap="round" stroke-linejoin="round"/>
<path id="Vector 7340" d="M12 7H18M18 11H15" stroke="#141B34" stroke-width="2" stroke-linecap="round" stroke-linejoin="round"/>
</g>
</g>
</svg>
