<svg width="29" height="29" viewBox="0 0 29 29" fill="none" xmlns="http://www.w3.org/2000/svg">
<circle cx="14.5" cy="14.4175" r="13.5" stroke="#00193C"/>
<path d="M21.25 10.41C20.8998 10.9414 20.4559 11.4075 19.9441 11.7832C19.9495 11.8965 19.9516 12.0108 19.9516 12.1252C19.9516 15.6284 17.3215 19.6675 12.5094 19.6675C11.0321 19.6675 9.10771 19.1426 8.5 18.4761C8.70472 18.5012 8.91376 18.5132 9.12387 18.5132C10.3501 18.5132 11.4782 18.0895 12.3725 17.3784C11.2282 17.3577 10.2628 16.5911 9.92984 15.537C10.4503 15.6197 11.1108 15.4923 11.1108 15.4923C11.1108 15.4923 9.06568 15.1362 9.01181 12.8591C9.60335 13.2076 10.1971 13.1913 10.1971 13.1913C10.1971 13.1913 9.0172 12.4551 9.03336 10.985C9.04306 10.1182 9.38786 9.65208 9.38786 9.65208C11.6226 12.441 14.7786 12.4225 14.7786 12.4225C14.7786 12.4225 14.7118 12.0261 14.7118 11.8192C14.7118 10.3556 15.8819 9.16748 17.3268 9.16748C18.0789 9.16748 18.7588 9.48982 19.2362 10.0049C19.832 9.88621 20.3923 9.66515 20.8977 9.36132C20.6692 10.288 19.7469 10.8282 19.7469 10.8282C19.7469 10.8282 20.5367 10.7389 21.25 10.41Z" fill="#00193C"/>
</svg>
