<svg width="29" height="29" viewBox="0 0 29 29" fill="none" xmlns="http://www.w3.org/2000/svg">
<circle cx="14.5" cy="14.4175" r="13.5" stroke="#00193C"/>
<g clip-path="url(#clip0_43_1647)">
<path fill-rule="evenodd" clip-rule="evenodd" d="M21.143 9.32855C21.8749 9.50964 22.45 10.0413 22.6459 10.7178H22.6446C23 11.9427 23 14.5 23 14.5C23 14.5 23 17.0573 22.6446 18.2822C22.4486 18.9587 21.8735 19.4904 21.1416 19.6714C19.8163 20 14.5 20 14.5 20C14.5 20 9.18365 20 7.85841 19.6714C7.12652 19.4904 6.55137 18.9587 6.35545 18.2822C6 17.0573 6 14.5 6 14.5C6 14.5 6 11.9427 6.35545 10.7178C6.55137 10.0413 7.12652 9.50964 7.85841 9.32855C9.18365 9 14.5 9 14.5 9C14.5 9 19.8163 9 21.143 9.32855ZM17.2177 14.5L12.7997 12.1432V16.8568L17.2177 14.5Z" fill="#00193C"/>
</g>
<defs>
<clipPath id="clip0_43_1647">
<rect width="17" height="11" fill="white" transform="translate(6 9)"/>
</clipPath>
</defs>
</svg>
