<svg width="30" height="31" viewBox="0 0 30 31" fill="none" xmlns="http://www.w3.org/2000/svg">
<rect y="0.205078" width="30" height="30" rx="15" fill="#9189FF"/>
<path d="M11.1024 13.9891C11.0704 11.4291 12.6704 9.87708 15.1664 9.87708C17.5504 9.87708 19.1824 11.2691 19.1824 13.3971C19.1824 14.9171 18.3024 16.1011 16.5104 16.9971L14.7344 17.8931C14.1904 18.1811 13.5344 18.5971 13.5344 19.1251H19.1504V21.2051H11.1504L11.1344 19.4291C11.1344 17.6851 12.6224 16.5331 13.6624 16.0211L15.4864 15.1091C16.3024 14.7251 16.7664 14.1491 16.7664 13.3971C16.7664 12.4531 16.1744 11.8291 15.1664 11.8291C14.0624 11.8291 13.4864 12.7091 13.5184 13.9891H11.1024Z" fill="#00193C"/>
</svg>
