<svg width="30" height="30" viewBox="0 0 30 30" fill="none" xmlns="http://www.w3.org/2000/svg">
<rect width="30" height="30" rx="15" fill="#00B4FF"/>
<path d="M15.0631 21.128C12.7271 21.128 10.8391 19.768 10.8391 17.464H13.1591C13.1591 18.52 14.0231 19.048 15.0631 19.048C16.1671 19.048 16.8711 18.504 16.8711 17.608C16.8711 16.744 16.1671 16.216 15.0631 16.216H13.9911V14.248H15.0151C15.8951 14.248 16.4711 13.72 16.4711 12.968C16.4711 12.216 15.8311 11.736 14.9031 11.736C13.9911 11.736 13.3191 12.184 13.3031 13.224H11.0311C11.0471 10.984 12.9191 9.672 14.9511 9.672C17.1431 9.672 18.7911 11.048 18.7911 12.712C18.7911 13.752 18.2631 14.648 17.4631 15.096C18.5511 15.496 19.2551 16.456 19.2551 17.672C19.2551 19.848 17.3031 21.128 15.0631 21.128Z" fill="#00193C"/>
</svg>
