<svg width="353" height="330" viewBox="0 0 353 330" fill="none" xmlns="http://www.w3.org/2000/svg">
<g clip-path="url(#clip0_269_1926)">
<path d="M100.979 176.671C104.175 176.671 106.766 174.088 106.766 170.901C106.766 167.715 104.175 165.132 100.979 165.132C97.7839 165.132 95.1934 167.715 95.1934 170.901C95.1934 174.088 97.7839 176.671 100.979 176.671Z" fill="white" stroke="#00193C" stroke-width="2.85" stroke-miterlimit="10"/>
<path d="M281.653 104.896H79.5199C78.5688 104.896 77.792 105.666 77.792 106.619V248.762C77.792 249.711 78.5635 250.485 79.5199 250.485H281.653C282.605 250.485 283.381 249.716 283.381 248.762V106.619C283.381 105.671 282.61 104.896 281.653 104.896Z" fill="white"/>
<g filter="url(#filter0_d_269_1926)">
<path d="M280.459 105.007H80.7144C79.1239 105.007 77.8398 106.235 77.8398 107.752V247.624C77.8398 249.141 79.1292 250.369 80.7144 250.369H280.465C282.055 250.369 283.339 249.141 283.339 247.624V107.752C283.339 106.235 282.05 105.007 280.465 105.007H280.459Z" fill="#F6F8FA"/>
</g>
<path d="M85.5547 180.633C85.5547 179.047 86.844 177.767 88.4293 177.767H272.449C274.039 177.767 275.323 179.052 275.323 180.633V192.109H85.5547V180.633Z" fill="white"/>
<path d="M107.125 183.5H92.7469C91.9542 183.5 91.3096 184.143 91.3096 184.933C91.3096 185.724 91.9542 186.366 92.7469 186.366H107.125C107.918 186.366 108.562 185.724 108.562 184.933C108.562 184.143 107.918 183.5 107.125 183.5Z" fill="#E1E8F1"/>
<path d="M127.251 183.5H115.748C114.955 183.5 114.311 184.143 114.311 184.933C114.311 185.724 114.955 186.366 115.748 186.366H127.251C128.044 186.366 128.689 185.724 128.689 184.933C128.689 184.143 128.044 183.5 127.251 183.5Z" fill="#E1E8F1"/>
<path d="M85.5547 192.536H275.329V228.966C275.329 230.552 274.039 231.833 272.454 231.833H88.4293C86.8387 231.833 85.5547 230.547 85.5547 228.966V192.536Z" fill="white"/>
<path d="M141.625 223.518H93.1746C92.382 223.518 91.7373 224.16 91.7373 224.951C91.7373 225.741 92.382 226.384 93.1746 226.384H141.625C142.417 226.384 143.062 225.741 143.062 224.951C143.062 224.16 142.417 223.518 141.625 223.518Z" fill="#E1E8F1"/>
<path d="M134.295 215.198H93.1795C92.3869 215.198 91.7422 215.841 91.7422 216.631C91.7422 217.422 92.3869 218.065 93.1795 218.065H134.295C135.088 218.065 135.732 217.422 135.732 216.631C135.732 215.841 135.088 215.198 134.295 215.198Z" fill="#E1E8F1"/>
<path d="M145.218 206.878H93.1746C92.382 206.878 91.7373 207.521 91.7373 208.311C91.7373 209.101 92.382 209.744 93.1746 209.744H145.218C146.011 209.744 146.655 209.101 146.655 208.311C146.655 207.521 146.011 206.878 145.218 206.878Z" fill="#E1E8F1"/>
<path d="M137.889 198.559H93.1746C92.382 198.559 91.7373 199.201 91.7373 199.992C91.7373 200.782 92.382 201.425 93.1746 201.425H137.889C138.681 201.425 139.326 200.782 139.326 199.992C139.326 199.201 138.681 198.559 137.889 198.559Z" fill="#E1E8F1"/>
<path d="M170.238 223.518H155.718C154.925 223.518 154.28 224.16 154.28 224.951C154.28 225.741 154.925 226.384 155.718 226.384H170.238C171.031 226.384 171.676 225.741 171.676 224.951C171.676 224.16 171.031 223.518 170.238 223.518Z" fill="#E1E8F1"/>
<path d="M170.238 215.198H155.718C154.925 215.198 154.28 215.841 154.28 216.631C154.28 217.422 154.925 218.065 155.718 218.065H170.238C171.031 218.065 171.676 217.422 171.676 216.631C171.676 215.841 171.031 215.198 170.238 215.198Z" fill="#E1E8F1"/>
<path d="M170.238 206.878H155.718C154.925 206.878 154.28 207.521 154.28 208.311C154.28 209.101 154.925 209.744 155.718 209.744H170.238C171.031 209.744 171.676 209.101 171.676 208.311C171.676 207.521 171.031 206.878 170.238 206.878Z" fill="#E1E8F1"/>
<path d="M170.238 198.559H155.718C154.925 198.559 154.28 199.201 154.28 199.992C154.28 200.782 154.925 201.425 155.718 201.425H170.238C171.031 201.425 171.676 200.782 171.676 199.992C171.676 199.201 171.031 198.559 170.238 198.559Z" fill="#E1E8F1"/>
<path d="M191.797 223.518H182.021C181.229 223.518 180.584 224.16 180.584 224.951C180.584 225.741 181.229 226.384 182.021 226.384H191.797C192.59 226.384 193.234 225.741 193.234 224.951C193.234 224.16 192.59 223.518 191.797 223.518Z" fill="#E1E8F1"/>
<path d="M191.797 215.198H182.021C181.229 215.198 180.584 215.841 180.584 216.631C180.584 217.422 181.229 218.065 182.021 218.065H191.797C192.59 218.065 193.234 217.422 193.234 216.631C193.234 215.841 192.59 215.198 191.797 215.198Z" fill="#E1E8F1"/>
<path d="M191.797 206.878H182.021C181.229 206.878 180.584 207.521 180.584 208.311C180.584 209.101 181.229 209.744 182.021 209.744H191.797C192.59 209.744 193.234 209.101 193.234 208.311C193.234 207.521 192.59 206.878 191.797 206.878Z" fill="#E1E8F1"/>
<path d="M191.797 198.559H182.021C181.229 198.559 180.584 199.201 180.584 199.992C180.584 200.782 181.229 201.425 182.021 201.425H191.797C192.59 201.425 193.234 200.782 193.234 199.992C193.234 199.201 192.59 198.559 191.797 198.559Z" fill="#E1E8F1"/>
<g opacity="0.45">
<path d="M208.622 198.563H203.158C202.365 198.563 201.721 199.206 201.721 199.997C201.721 200.787 202.365 201.43 203.158 201.43H208.622C209.414 201.43 210.059 200.787 210.059 199.997C210.059 199.206 209.414 198.563 208.622 198.563Z" fill="white"/>
</g>
<g opacity="0.45">
<path d="M208.622 198.563H203.158C202.365 198.563 201.721 199.206 201.721 199.997C201.721 200.787 202.365 201.43 203.158 201.43H208.622C209.414 201.43 210.059 200.787 210.059 199.997C210.059 199.206 209.414 198.563 208.622 198.563Z" fill="#B6FFDA"/>
</g>
<g opacity="0.45">
<path d="M208.622 206.878H203.158C202.365 206.878 201.721 207.521 201.721 208.311C201.721 209.101 202.365 209.744 203.158 209.744H208.622C209.414 209.744 210.059 209.101 210.059 208.311C210.059 207.521 209.414 206.878 208.622 206.878Z" fill="white"/>
</g>
<g opacity="0.45">
<path d="M208.622 206.878H203.158C202.365 206.878 201.721 207.521 201.721 208.311C201.721 209.101 202.365 209.744 203.158 209.744H208.622C209.414 209.744 210.059 209.101 210.059 208.311C210.059 207.521 209.414 206.878 208.622 206.878Z" fill="#B6FFDA"/>
</g>
<g opacity="0.45">
<path d="M208.622 215.198H203.158C202.365 215.198 201.721 215.841 201.721 216.631C201.721 217.422 202.365 218.065 203.158 218.065H208.622C209.414 218.065 210.059 217.422 210.059 216.631C210.059 215.841 209.414 215.198 208.622 215.198Z" fill="white"/>
</g>
<g opacity="0.45">
<path d="M208.622 215.198H203.158C202.365 215.198 201.721 215.841 201.721 216.631C201.721 217.422 202.365 218.065 203.158 218.065H208.622C209.414 218.065 210.059 217.422 210.059 216.631C210.059 215.841 209.414 215.198 208.622 215.198Z" fill="#B6FFDA"/>
</g>
<g opacity="0.45">
<path d="M208.622 223.518H203.158C202.365 223.518 201.721 224.16 201.721 224.951C201.721 225.741 202.365 226.384 203.158 226.384H208.622C209.414 226.384 210.059 225.741 210.059 224.951C210.059 224.16 209.414 223.518 208.622 223.518Z" fill="white"/>
</g>
<g opacity="0.45">
<path d="M208.622 223.518H203.158C202.365 223.518 201.721 224.16 201.721 224.951C201.721 225.741 202.365 226.384 203.158 226.384H208.622C209.414 226.384 210.059 225.741 210.059 224.951C210.059 224.16 209.414 223.518 208.622 223.518Z" fill="#B6FFDA"/>
</g>
<path d="M228.464 223.518H219.122C218.329 223.518 217.685 224.16 217.685 224.951C217.685 225.741 218.329 226.384 219.122 226.384H228.464C229.257 226.384 229.901 225.741 229.901 224.951C229.901 224.16 229.257 223.518 228.464 223.518Z" fill="#E1E8F1"/>
<path d="M228.464 215.198H219.122C218.329 215.198 217.685 215.841 217.685 216.631C217.685 217.422 218.329 218.065 219.122 218.065H228.464C229.257 218.065 229.901 217.422 229.901 216.631C229.901 215.841 229.257 215.198 228.464 215.198Z" fill="#E1E8F1"/>
<path d="M228.464 206.878H219.122C218.329 206.878 217.685 207.521 217.685 208.311C217.685 209.101 218.329 209.744 219.122 209.744H228.464C229.257 209.744 229.901 209.101 229.901 208.311C229.901 207.521 229.257 206.878 228.464 206.878Z" fill="#E1E8F1"/>
<path d="M228.464 198.559H219.122C218.329 198.559 217.685 199.201 217.685 199.992C217.685 200.782 218.329 201.425 219.122 201.425H228.464C229.257 201.425 229.901 200.782 229.901 199.992C229.901 199.201 229.257 198.559 228.464 198.559Z" fill="#E1E8F1"/>
<path d="M266.414 223.518H239.819C239.026 223.518 238.382 224.16 238.382 224.951C238.382 225.741 239.026 226.384 239.819 226.384H266.414C267.207 226.384 267.851 225.741 267.851 224.951C267.851 224.16 267.207 223.518 266.414 223.518Z" fill="#E1E8F1"/>
<path d="M266.414 215.198H239.819C239.026 215.198 238.382 215.841 238.382 216.631C238.382 217.422 239.026 218.065 239.819 218.065H266.414C267.207 218.065 267.851 217.422 267.851 216.631C267.851 215.841 267.207 215.198 266.414 215.198Z" fill="#E1E8F1"/>
<path d="M266.414 206.878H239.819C239.026 206.878 238.382 207.521 238.382 208.311C238.382 209.101 239.026 209.744 239.819 209.744H266.414C267.207 209.744 267.851 209.101 267.851 208.311C267.851 207.521 267.207 206.878 266.414 206.878Z" fill="#E1E8F1"/>
<path d="M266.414 198.559H239.819C239.026 198.559 238.382 199.201 238.382 199.992C238.382 200.782 239.026 201.425 239.819 201.425H266.414C267.207 201.425 267.851 200.782 267.851 199.992C267.851 199.201 267.207 198.559 266.414 198.559Z" fill="#E1E8F1"/>
<path fill-rule="evenodd" clip-rule="evenodd" d="M281.653 104.896C282.605 104.896 283.381 105.666 283.381 106.619V115.429H77.792V106.33C77.792 105.539 78.4367 104.896 79.2293 104.896H281.653Z" fill="#D9DDE2"/>
<path fill-rule="evenodd" clip-rule="evenodd" d="M85.6393 108.758C86.5165 108.758 87.2299 109.469 87.2299 110.344C87.2299 111.218 86.5165 111.93 85.6393 111.93C84.7622 111.93 84.0488 111.218 84.0488 110.344C84.0488 109.469 84.7622 108.758 85.6393 108.758ZM91.045 108.758C91.9222 108.758 92.6355 109.469 92.6355 110.344C92.6355 111.218 91.9222 111.93 91.045 111.93C90.1678 111.93 89.4545 111.218 89.4545 110.344C89.4545 109.469 90.1678 108.758 91.045 108.758ZM96.4559 108.758C97.3331 108.758 98.0465 109.469 98.0465 110.344C98.0465 111.218 97.3331 111.93 96.4559 111.93C95.5788 111.93 94.8654 111.218 94.8654 110.344C94.8654 109.469 95.5788 108.758 96.4559 108.758Z" fill="white"/>
<path d="M283.381 115.798H77.792V142.333H283.381V115.798Z" fill="white"/>
<path opacity="0.75" d="M90.2637 122.131V123.517L91.6534 122.826L90.2637 122.131Z" fill="#9189FF"/>
<path opacity="0.75" d="M90.5275 120.988L92.1339 122.589C92.1339 122.063 92.0282 121.541 91.8116 121.061C91.5949 120.582 91.2832 120.15 90.8869 119.797C90.4906 119.444 90.0308 119.18 89.5236 119.022C89.0216 118.864 88.4879 118.812 87.9595 118.87C87.4363 118.928 86.9291 119.096 86.4746 119.365C86.0202 119.634 85.6292 119.997 85.3227 120.424C85.0162 120.856 84.8101 121.346 84.7097 121.862C84.6093 122.379 84.6199 122.911 84.7414 123.422L86.2474 121.915C86.2844 121.878 86.3214 121.852 86.3689 121.836C86.4165 121.815 86.4641 121.81 86.5116 121.81C86.5592 121.81 86.612 121.82 86.6543 121.836C86.7018 121.857 86.7388 121.883 86.7758 121.915L87.9172 123.048L89.9939 120.982C90.0625 120.914 90.1577 120.872 90.2581 120.872C90.3585 120.872 90.4536 120.909 90.5223 120.982L90.5275 120.988ZM86.8762 120.535C86.8762 120.387 86.9185 120.245 87.003 120.118C87.0876 119.997 87.2038 119.902 87.3412 119.844C87.4786 119.786 87.6266 119.771 87.7745 119.802C87.9172 119.829 88.0546 119.902 88.1603 120.008C88.2659 120.113 88.3346 120.245 88.3663 120.387C88.3928 120.529 88.3822 120.682 88.3241 120.819C88.2659 120.956 88.1708 121.072 88.0493 121.151C87.9278 121.235 87.7798 121.277 87.6318 121.277C87.4311 121.277 87.2408 121.198 87.1034 121.061C86.9608 120.919 86.8868 120.735 86.8868 120.535H86.8762Z" fill="#00B4FF"/>
<path opacity="0.75" d="M89.0635 124.186L87.9222 123.053L85.7451 125.218C86.1309 125.603 86.6011 125.898 87.1137 126.088C87.6263 126.272 88.1758 126.346 88.7254 126.298C89.2696 126.251 89.798 126.082 90.2736 125.808C90.7492 125.534 91.1561 125.16 91.4678 124.712L90.2683 123.522L89.592 124.191C89.5233 124.259 89.4281 124.302 89.3278 124.302C89.2274 124.302 89.1322 124.265 89.0635 124.191V124.186Z" fill="#23EB82"/>
<path d="M87.6265 119.787C87.4786 119.787 87.3359 119.829 87.2091 119.913C87.0875 119.997 86.9924 120.113 86.9343 120.245C86.8762 120.382 86.8603 120.529 86.892 120.677C86.9185 120.819 86.9924 120.956 87.0981 121.056C87.2038 121.162 87.3359 121.23 87.4839 121.262C87.6318 121.288 87.7798 121.278 87.9172 121.22C88.0545 121.162 88.1708 121.067 88.2553 120.946C88.3399 120.825 88.3822 120.677 88.3822 120.529C88.3822 120.429 88.361 120.335 88.324 120.245C88.287 120.155 88.2289 120.071 88.1602 120.003C88.0915 119.934 88.007 119.876 87.9172 119.839C87.8273 119.802 87.7269 119.781 87.6318 119.781L87.6265 119.787ZM87.6265 121.083C87.5156 121.083 87.4099 121.051 87.32 120.988C87.2302 120.93 87.1615 120.84 87.1192 120.74C87.077 120.64 87.0664 120.529 87.0875 120.424C87.1087 120.319 87.1615 120.219 87.2355 120.145C87.3148 120.066 87.4099 120.018 87.5156 119.997C87.6212 119.976 87.7322 119.987 87.8326 120.029C87.933 120.071 88.0175 120.14 88.081 120.229C88.1391 120.319 88.1761 120.424 88.1761 120.535C88.1761 120.677 88.118 120.819 88.0123 120.919C87.9119 121.019 87.7692 121.077 87.6265 121.077V121.083Z" fill="#00193C"/>
<path d="M94.9658 124.449V120.481H95.5999V122.173H97.3859V120.481H98.0253V124.449H97.3912V122.742H95.6052V124.449H94.9658Z" fill="#00193C"/>
<path d="M100.018 124.502C99.812 124.502 99.6112 124.455 99.4263 124.354C99.2519 124.254 99.1145 124.112 99.0194 123.938C98.919 123.738 98.8662 123.517 98.8715 123.295V121.557H99.4791V123.253C99.4791 123.506 99.5425 123.691 99.6694 123.807C99.812 123.933 100.002 123.996 100.192 123.986C100.303 123.986 100.414 123.97 100.52 123.928C100.626 123.886 100.716 123.817 100.79 123.738C100.943 123.569 101.017 123.332 101.017 123.016V121.557H101.624V124.449H101.027V124.017H100.932C100.864 124.149 100.758 124.265 100.631 124.349C100.494 124.455 100.288 124.502 100.013 124.502H100.018Z" fill="#00193C"/>
<path d="M103.621 124.45C103.542 124.45 103.468 124.439 103.394 124.413C103.32 124.387 103.257 124.344 103.199 124.292C103.146 124.234 103.104 124.171 103.077 124.097C103.051 124.023 103.04 123.949 103.04 123.87V122.068H102.242V121.557H103.04V120.725H103.648V121.557H105.006V120.725H105.603V121.557H106.475V122.068H105.603V123.765C105.603 123.765 105.603 123.812 105.603 123.833C105.608 123.854 105.624 123.876 105.64 123.891C105.656 123.907 105.677 123.923 105.698 123.928C105.719 123.939 105.746 123.939 105.767 123.933H106.364V124.445H105.566C105.487 124.445 105.413 124.439 105.339 124.408C105.265 124.381 105.201 124.339 105.143 124.286C105.09 124.229 105.048 124.16 105.022 124.092C104.995 124.018 104.985 123.944 104.99 123.865V122.063H103.637V123.76C103.637 123.876 103.69 123.933 103.801 123.933H104.409V124.445H103.611L103.621 124.45Z" fill="#00193C"/>
<path d="M108.52 124.534C108.25 124.539 107.986 124.476 107.748 124.349C107.531 124.228 107.352 124.049 107.23 123.828C107.103 123.585 107.04 123.317 107.045 123.043V122.974C107.04 122.7 107.103 122.432 107.23 122.189C107.346 121.973 107.526 121.789 107.743 121.668C107.975 121.541 108.234 121.473 108.498 121.478C108.757 121.473 109.011 121.536 109.233 121.662C109.444 121.783 109.613 121.963 109.724 122.173C109.846 122.41 109.909 122.674 109.904 122.943V123.174H107.669C107.669 123.285 107.69 123.401 107.732 123.506C107.774 123.612 107.843 123.707 107.922 123.786C108.086 123.938 108.308 124.018 108.53 124.012C108.715 124.028 108.9 123.97 109.048 123.859C109.159 123.759 109.254 123.643 109.317 123.506L109.825 123.765C109.756 123.891 109.677 124.007 109.582 124.112C109.465 124.244 109.328 124.344 109.169 124.418C108.963 124.508 108.741 124.55 108.52 124.539V124.534ZM107.669 122.711H109.286C109.275 122.516 109.191 122.331 109.043 122.2C108.889 122.068 108.689 122.005 108.488 122.01C108.287 121.999 108.091 122.063 107.938 122.194C107.785 122.326 107.69 122.511 107.669 122.706V122.711Z" fill="#00193C"/>
<path d="M90.2635 120.877C90.3111 120.877 90.3639 120.887 90.4062 120.903C90.4537 120.924 90.4907 120.951 90.5277 120.982L92.1341 122.584C92.1341 121.593 91.7378 120.65 91.035 119.949C90.3322 119.249 89.3811 118.859 88.3877 118.859V119.059C89.2384 119.059 90.0574 119.365 90.7021 119.918C91.3468 120.471 91.7695 121.235 91.8963 122.068L90.6704 120.845C90.6176 120.793 90.5541 120.75 90.4855 120.719C90.4168 120.692 90.3428 120.677 90.2635 120.677C90.1843 120.677 90.1156 120.692 90.0416 120.719C89.9729 120.745 89.9095 120.787 89.8566 120.845L87.9226 122.768L86.924 121.773C86.8183 121.667 86.6703 121.604 86.5171 121.604C86.3638 121.604 86.2212 121.662 86.1102 121.773L84.8684 123.006C84.8262 122.663 84.8367 122.315 84.8949 121.978C85.0375 121.182 85.4444 120.461 86.0521 119.928C86.6597 119.396 87.4312 119.085 88.245 119.054H88.3877V118.854H88.2397C87.6902 118.875 87.1512 119.017 86.665 119.27C86.1789 119.523 85.7509 119.881 85.418 120.313C85.0851 120.75 84.8526 121.251 84.7363 121.788C84.6201 122.326 84.6254 122.879 84.7469 123.411L86.2529 121.904C86.2899 121.867 86.3268 121.841 86.3744 121.825C86.422 121.804 86.4695 121.799 86.5171 121.799C86.5646 121.799 86.6175 121.809 86.6597 121.825C86.7073 121.846 86.7443 121.873 86.7813 121.904L87.9226 123.037L89.9993 120.972C90.0363 120.935 90.0733 120.908 90.1208 120.893C90.1684 120.872 90.216 120.866 90.2635 120.866V120.877Z" fill="#00193C"/>
<path d="M89.3278 124.296C89.2274 124.296 89.1322 124.254 89.0635 124.186L87.9222 123.053L85.7451 125.218C86.1309 125.603 86.6011 125.898 87.1137 126.088C87.6263 126.272 88.1758 126.346 88.7254 126.298C89.2696 126.251 89.798 126.082 90.2736 125.808C90.7492 125.534 91.1561 125.16 91.4678 124.712L90.2683 123.522L89.592 124.191C89.5233 124.259 89.4281 124.302 89.3278 124.302V124.296ZM90.263 123.801L91.2036 124.734C90.9077 125.118 90.5325 125.44 90.1045 125.671C89.6765 125.909 89.2062 126.051 88.7201 126.098C88.2339 126.146 87.7425 126.088 87.2828 125.94C86.8178 125.787 86.3951 125.545 86.0305 125.218L87.9275 123.332L88.9262 124.328C88.979 124.381 89.0424 124.423 89.1111 124.454C89.1798 124.481 89.2538 124.496 89.333 124.496C89.4123 124.496 89.481 124.481 89.555 124.454C89.6237 124.423 89.6871 124.381 89.7399 124.328L90.2683 123.801H90.263Z" fill="#00193C"/>
<path d="M90.2637 121.904V123.517L91.8859 122.71L90.2637 121.904ZM90.4645 122.226L91.4367 122.71L90.4645 123.195V122.226Z" fill="#00193C"/>
<path d="M283.233 239.009H77.792V250.485H283.233V239.009Z" fill="white"/>
<path d="M86.5644 244.314H102.808C103.283 244.314 103.669 244.699 103.669 245.173C103.669 245.648 103.283 246.032 102.808 246.032H86.5644C86.0889 246.032 85.7031 245.648 85.7031 245.173C85.7031 244.699 86.0889 244.314 86.5644 244.314Z" fill="#E1E8F1"/>
<path d="M107.41 244.314H119.342C119.817 244.314 120.203 244.699 120.203 245.173C120.203 245.648 119.817 246.032 119.342 246.032H107.41C106.935 246.032 106.549 245.648 106.549 245.173C106.549 244.699 106.935 244.314 107.41 244.314Z" fill="#E1E8F1"/>
<g filter="url(#filter1_d_269_1926)">
<path d="M183.787 211.742C203.199 211.742 218.937 196.05 218.937 176.692C218.937 157.335 203.199 141.643 183.787 141.643C164.374 141.643 148.637 157.335 148.637 176.692C148.637 196.05 164.374 211.742 183.787 211.742Z" fill="white"/>
</g>
<path d="M87.4258 280.129C59.4305 254.98 41.8291 218.55 41.8291 178.02C41.8291 124.265 72.7835 77.7239 117.889 55.1514" stroke="#00193C" stroke-width="1.85" stroke-miterlimit="10"/>
<path d="M116.287 62.8962L114.871 62.3903L117.392 55.4352L110.253 53.433L110.66 51.9893L119.357 54.4236L116.287 62.8962Z" fill="#00193C"/>
<path d="M315.478 201.062C304.487 265.971 247.841 315.416 179.618 315.416C154.486 315.416 130.924 308.708 110.639 296.984" stroke="#00193C" stroke-width="1.85" stroke-miterlimit="10"/>
<path d="M118.021 294.065L118.375 295.525L111.157 297.237L113.403 304.293L111.965 304.746L109.233 296.157L118.021 294.065Z" fill="#00193C"/>
<path d="M179.623 40.6191C255.175 40.6191 316.529 101.255 317.401 176.387" stroke="#00193C" stroke-width="1.85" stroke-miterlimit="10"/>
<path d="M311.092 171.576L312.164 170.522L317.353 175.813L322.262 170.27L323.393 171.265L317.406 178.015L311.092 171.576Z" fill="#00193C"/>
<path d="M289.162 100.976C292.358 100.976 294.948 98.3926 294.948 95.2061C294.948 92.0197 292.358 89.4365 289.162 89.4365C285.967 89.4365 283.376 92.0197 283.376 95.2061C283.376 98.3926 285.967 100.976 289.162 100.976Z" fill="#23EB82" stroke="#00193C" stroke-width="1.85" stroke-miterlimit="10"/>
<path d="M205.71 319.062C208.906 319.062 211.496 316.479 211.496 313.292C211.496 310.106 208.906 307.522 205.71 307.522C202.514 307.522 199.924 310.106 199.924 313.292C199.924 316.479 202.514 319.062 205.71 319.062Z" fill="#9189FF" stroke="#00193C" stroke-width="1.85" stroke-miterlimit="10"/>
<path d="M43.0224 159.268C46.218 159.268 48.8086 156.685 48.8086 153.498C48.8086 150.312 46.218 147.729 43.0224 147.729C39.8269 147.729 37.2363 150.312 37.2363 153.498C37.2363 156.685 39.8269 159.268 43.0224 159.268Z" fill="#CDF5FF" stroke="#00193C" stroke-width="1.85" stroke-miterlimit="10"/>
<path opacity="0.75" d="M196.357 173.683V182.993L205.71 178.34L196.357 173.683Z" fill="#9189FF"/>
<path opacity="0.75" d="M198.139 165.985L208.939 176.734C208.955 173.198 208.221 169.7 206.778 166.464C205.336 163.235 203.222 160.342 200.58 157.981C197.932 155.621 194.82 153.845 191.428 152.77C188.041 151.695 184.469 151.348 180.933 151.748C177.404 152.149 174.001 153.287 170.941 155.094C167.887 156.896 165.245 159.325 163.205 162.218C161.16 165.11 159.755 168.398 159.078 171.871C158.402 175.343 158.476 178.915 159.29 182.361L169.419 172.255C169.652 172.023 169.932 171.839 170.233 171.712C170.54 171.586 170.867 171.523 171.195 171.523C171.522 171.523 171.855 171.586 172.157 171.712C172.463 171.839 172.738 172.023 172.97 172.255L180.622 179.869L194.566 165.99C195.037 165.521 195.676 165.258 196.342 165.258C197.008 165.258 197.647 165.521 198.123 165.99L198.139 165.985ZM173.62 162.934C173.62 161.944 173.916 160.974 174.471 160.152C175.021 159.33 175.808 158.687 176.727 158.308C177.647 157.929 178.661 157.829 179.634 158.023C180.611 158.213 181.509 158.693 182.212 159.393C182.915 160.094 183.396 160.985 183.591 161.959C183.787 162.929 183.686 163.935 183.306 164.852C182.926 165.769 182.281 166.549 181.451 167.102C180.622 167.65 179.649 167.945 178.656 167.945C177.319 167.945 176.04 167.418 175.095 166.475C174.149 165.537 173.62 164.267 173.62 162.934Z" fill="#00B4FF"/>
<path opacity="0.75" d="M188.294 187.483L180.643 179.869L166.017 194.428C168.616 197.015 171.76 199.006 175.222 200.255C178.677 201.504 182.371 201.983 186.038 201.657C189.7 201.33 193.251 200.208 196.432 198.369C199.613 196.53 202.356 194.022 204.453 191.013L196.4 183.004L191.861 187.483C191.386 187.952 190.746 188.215 190.08 188.215C189.415 188.215 188.775 187.952 188.3 187.483H188.294Z" fill="#23EB82"/>
<path d="M178.656 157.929C177.657 157.929 176.685 158.224 175.861 158.772C175.031 159.32 174.386 160.105 174.006 161.022C173.625 161.933 173.525 162.945 173.721 163.914C173.911 164.884 174.392 165.78 175.094 166.48C175.797 167.181 176.695 167.655 177.673 167.85C178.651 168.045 179.66 167.945 180.579 167.566C181.499 167.186 182.286 166.544 182.836 165.722C183.385 164.894 183.681 163.93 183.681 162.94C183.681 162.281 183.549 161.633 183.301 161.022C183.047 160.416 182.677 159.862 182.212 159.399C181.742 158.935 181.187 158.566 180.579 158.313C179.972 158.06 179.316 157.934 178.656 157.934V157.929ZM178.656 166.607C177.927 166.607 177.213 166.391 176.606 165.985C175.998 165.579 175.528 165.005 175.248 164.336C174.968 163.667 174.894 162.929 175.036 162.218C175.179 161.506 175.528 160.853 176.046 160.337C176.563 159.826 177.219 159.473 177.937 159.33C178.656 159.188 179.396 159.262 180.067 159.536C180.743 159.815 181.319 160.284 181.726 160.89C182.128 161.496 182.349 162.202 182.349 162.929C182.349 163.899 181.958 164.836 181.266 165.521C180.574 166.206 179.639 166.596 178.661 166.596L178.656 166.607Z" fill="#00193C"/>
<path d="M196.368 165.253C196.701 165.253 197.029 165.316 197.33 165.442C197.636 165.569 197.911 165.753 198.144 165.985L208.944 176.734C208.944 170.095 206.292 163.725 201.573 159.035C196.854 154.341 190.455 151.706 183.787 151.706V153.039C189.494 153.05 195.01 155.094 199.333 158.803C203.655 162.513 206.498 167.645 207.343 173.256L199.095 165.053C198.735 164.694 198.313 164.41 197.842 164.22C197.372 164.025 196.87 163.925 196.363 163.925C195.856 163.925 195.354 164.025 194.883 164.22C194.413 164.41 193.99 164.694 193.631 165.053L180.637 177.972L173.932 171.302C173.208 170.585 172.225 170.179 171.2 170.179C170.175 170.179 169.197 170.585 168.473 171.302L160.151 179.59C159.865 177.293 159.929 174.964 160.33 172.682C161.276 167.35 164.019 162.502 168.109 158.93C172.199 155.357 177.388 153.281 182.825 153.039H183.792V151.706H182.788C179.094 151.859 175.475 152.818 172.199 154.52C168.922 156.222 166.058 158.619 163.818 161.543C161.578 164.473 160.008 167.85 159.231 171.449C158.455 175.048 158.481 178.773 159.311 182.356L169.44 172.25C169.673 172.018 169.953 171.834 170.254 171.702C170.561 171.576 170.888 171.512 171.216 171.512C171.543 171.512 171.876 171.576 172.177 171.702C172.484 171.829 172.759 172.013 172.991 172.25L180.643 179.864L194.587 165.985C194.82 165.753 195.1 165.569 195.401 165.442C195.708 165.316 196.035 165.253 196.363 165.253H196.368Z" fill="#00193C"/>
<path d="M190.069 188.215C189.404 188.215 188.764 187.952 188.289 187.483L180.637 179.869L166.011 194.428C168.611 197.015 171.755 199.006 175.216 200.255C178.671 201.504 182.365 201.983 186.032 201.657C189.694 201.33 193.245 200.208 196.426 198.369C199.607 196.53 202.35 194.022 204.447 191.013L196.394 183.004L191.855 187.483C191.38 187.952 190.74 188.215 190.069 188.215ZM196.363 184.88L202.672 191.161C200.68 193.748 198.17 195.898 195.301 197.478C192.431 199.059 189.271 200.028 186.006 200.334C182.746 200.64 179.454 200.276 176.341 199.259C173.229 198.242 170.36 196.598 167.913 194.422L180.658 181.74L187.364 188.416C187.723 188.774 188.146 189.058 188.616 189.253C189.086 189.443 189.583 189.548 190.096 189.548C190.608 189.548 191.105 189.448 191.575 189.253C192.046 189.058 192.468 188.774 192.828 188.416L196.363 184.88Z" fill="#00193C"/>
<path d="M196.357 172.161V182.999L207.253 177.577L196.357 172.155V172.161ZM197.7 174.316L204.241 177.582L197.694 180.839V174.316H197.7Z" fill="#00193C"/>
<g filter="url(#filter2_d_269_1926)">
<path d="M182.344 77.8181C201.757 77.8181 217.494 62.1258 217.494 42.7684C217.494 23.411 201.757 7.71875 182.344 7.71875C162.932 7.71875 147.194 23.411 147.194 42.7684C147.194 62.1258 162.932 77.8181 182.344 77.8181Z" fill="#23EB82"/>
</g>
<path d="M176.69 31.0561H176.642L176.499 31.0086C177.583 29.8811 178.196 28.3794 178.196 26.7355C178.196 23.3053 175.416 20.5391 171.981 20.5391C168.547 20.5391 165.767 23.3106 165.767 26.7355C165.767 28.3794 166.428 29.8811 167.463 31.0086L167.226 31.0561C164.636 31.994 162.845 34.2491 162.518 36.9732L161.952 42.511C161.952 42.7481 162 42.9799 162.142 43.1222C162.285 43.3119 162.518 43.4067 162.755 43.4067H167.279L168.504 41.8102H163.654L164.124 37.1629C164.362 35.05 165.773 33.3112 167.749 32.563L169.07 32.1889C169.915 32.6579 170.951 32.895 171.987 32.895C173.022 32.895 174.011 32.6104 174.904 32.1889L176.177 32.563C178.201 33.3165 179.564 35.05 179.849 37.1629L180.32 41.8102H175.474L176.7 43.4067H181.223C181.461 43.4067 181.646 43.3119 181.836 43.1222C181.979 42.9325 182.074 42.7481 182.027 42.511L181.461 36.9732C181.128 34.2544 179.295 31.9518 176.705 31.0613L176.69 31.0561ZM167.363 26.688C167.363 24.1536 169.434 22.0882 171.976 22.0882C174.518 22.0882 176.589 24.1536 176.589 26.688C176.589 29.2224 174.518 31.2879 171.976 31.2879C169.434 31.2879 167.363 29.2224 167.363 26.688Z" fill="black"/>
<path d="M202.065 58.6603C201.737 55.9362 199.946 53.6389 197.357 52.7431H197.309L197.119 52.6483C198.202 51.5207 198.862 50.019 198.862 48.3751C198.862 44.945 196.083 42.1787 192.648 42.1787C189.214 42.1787 186.434 44.9502 186.434 48.3751C186.434 50.019 187.095 51.5207 188.178 52.6483L187.94 52.6957C185.351 53.6336 183.517 55.8888 183.232 58.6128L182.667 64.1506C182.619 64.3877 182.714 64.6196 182.857 64.7618C183 64.9515 183.232 65.0463 183.47 65.0463H201.927C202.165 65.0463 202.35 64.9515 202.54 64.7618C202.683 64.5721 202.778 64.3877 202.73 64.1506L202.07 58.655L202.065 58.6603ZM192.601 43.7805C195.142 43.7805 197.214 45.846 197.214 48.3804C197.214 50.9148 195.142 52.9802 192.601 52.9802C190.059 52.9802 187.988 50.9148 187.988 48.3804C187.988 45.846 190.059 43.7805 192.601 43.7805ZM184.268 63.4972L184.738 58.85C184.976 56.7371 186.387 54.9983 188.363 54.2975L189.684 53.9234C190.529 54.3923 191.518 54.6295 192.601 54.6295C193.684 54.6295 194.625 54.3449 195.518 53.9234L196.839 54.2975C198.863 55.0036 200.226 56.7845 200.511 58.8974L200.981 63.5447H184.268V63.4972Z" fill="black"/>
<path d="M172.638 40.6775C172.352 40.2559 171.649 40.2559 171.317 40.6775L163.501 51.1471C163.311 51.3842 163.311 51.7108 163.406 51.9901C163.549 52.2746 163.829 52.4116 164.114 52.4116H168.162C168.87 58.5132 173.626 63.3976 179.132 63.4924C179.459 63.4924 179.745 63.3027 179.887 63.0235C180.03 62.7389 179.983 62.4123 179.745 62.1804C177.626 59.7409 176.215 56.1685 175.882 52.4643H179.745C180.03 52.4643 180.31 52.2746 180.453 52.0428C180.595 51.7583 180.548 51.4316 180.358 51.1997L172.638 40.6827V40.6775ZM175.042 50.8204C174.804 50.8204 174.619 50.9152 174.476 51.0575C174.334 51.1997 174.239 51.4316 174.239 51.6687C174.381 55.2833 175.512 58.8978 177.346 61.6693C173.251 60.684 169.953 56.5057 169.721 51.6213C169.673 51.1997 169.346 50.8678 168.923 50.8678H165.768L171.982 42.5585L178.196 50.8678H175.042V50.8204Z" fill="black"/>
<path d="M192.601 39.692C197.922 39.692 202.207 35.3714 202.207 30.1129C202.207 24.8544 197.922 20.4863 192.601 20.4863C187.28 20.4863 182.994 24.8069 182.994 30.0654C182.994 35.3239 187.28 39.692 192.601 39.692ZM192.601 22.0881C197.023 22.0881 200.606 25.6553 200.606 30.0707C200.606 34.4862 197.029 38.0533 192.601 38.0533C188.173 38.0533 184.595 34.4862 184.595 30.0707C184.595 25.6553 188.173 22.0881 192.601 22.0881Z" fill="black"/>
<path d="M190.714 33.4476C190.857 33.5899 191.089 33.6847 191.279 33.6847C191.517 33.6847 191.702 33.5899 191.845 33.4476L197.213 28.0943C197.541 27.7676 197.541 27.2512 197.213 26.9667C196.886 26.64 196.368 26.64 196.083 26.9667L191.327 31.751L189.113 29.5433C188.785 29.2166 188.267 29.2166 187.982 29.5433C187.654 29.8699 187.654 30.3863 187.982 30.6708L190.714 33.4423V33.4476Z" fill="black"/>
<g filter="url(#filter3_d_269_1926)">
<path d="M301.184 261.876C320.839 261.876 336.773 245.988 336.773 226.389C336.773 206.79 320.839 190.902 301.184 190.902C281.529 190.902 265.596 206.79 265.596 226.389C265.596 245.988 281.529 261.876 301.184 261.876Z" fill="#9189FF"/>
</g>
<path fill-rule="evenodd" clip-rule="evenodd" d="M299.398 216.188C299.102 215.893 299.102 215.409 299.398 215.114C299.694 214.813 300.18 214.813 300.476 215.114L303.821 218.449L309.253 213.032C309.554 212.737 310.035 212.737 310.336 213.032C310.632 213.327 310.632 213.812 310.336 214.107L304.36 220.061C304.064 220.356 303.578 220.356 303.282 220.061L299.398 216.188ZM293.533 217.311H287.335L293.068 234.493H315.795C316.35 234.504 316.836 234.145 317 233.618L321.776 218.96C321.903 218.575 321.835 218.154 321.597 217.827C321.359 217.5 320.979 217.306 320.572 217.306H316.196C315.938 221.162 313.723 224.619 310.321 226.479C306.923 228.334 302.807 228.334 299.404 226.479C296.006 224.624 293.787 221.162 293.528 217.306L293.533 217.311ZM304.867 206.746C302.262 206.746 299.758 207.779 297.913 209.618C296.069 211.457 295.034 213.949 295.034 216.552C295.034 219.155 296.069 221.647 297.913 223.486C299.758 225.325 302.257 226.358 304.867 226.358C307.478 226.358 309.977 225.325 311.821 223.486C313.665 221.647 314.701 219.155 314.701 216.552C314.701 213.954 313.66 211.462 311.821 209.623C309.977 207.784 307.478 206.752 304.873 206.752L304.867 206.746ZM315.975 246.032C315.261 246.032 314.617 245.606 314.347 244.947C314.078 244.294 314.226 243.535 314.727 243.034C315.229 242.534 315.99 242.381 316.646 242.655C317.306 242.924 317.734 243.566 317.734 244.278C317.734 245.247 316.947 246.032 315.975 246.032ZM295.504 246.032C294.791 246.032 294.151 245.606 293.876 244.947C293.607 244.288 293.755 243.535 294.257 243.029C294.759 242.528 295.52 242.376 296.175 242.65C296.835 242.918 297.263 243.561 297.263 244.272C297.263 245.242 296.476 246.027 295.504 246.027V246.032ZM275.25 210.008H282.378C282.928 209.997 283.419 210.35 283.578 210.872L291.509 234.641C289.855 235.141 288.819 236.775 289.073 238.477C289.327 240.178 290.79 241.443 292.518 241.448H293.834C292.555 242.196 291.937 243.709 292.323 245.137C292.714 246.565 294.014 247.555 295.499 247.555C296.983 247.555 298.283 246.565 298.669 245.137C299.06 243.709 298.442 242.196 297.163 241.448H314.305C313.026 242.196 312.408 243.709 312.793 245.137C313.185 246.565 314.484 247.555 315.969 247.555C317.454 247.555 318.754 246.565 319.14 245.137C319.531 243.709 318.913 242.196 317.634 241.448H318.395L322.247 242.818C322.643 242.955 323.071 242.744 323.214 242.355C323.356 241.965 323.15 241.533 322.759 241.385L318.78 239.973C318.696 239.941 318.611 239.931 318.521 239.931H292.513C291.43 239.931 290.547 239.056 290.547 237.971C290.547 236.885 291.424 236.016 292.513 236.016H315.79C317.005 236.026 318.083 235.247 318.448 234.093L323.224 219.434C323.499 218.586 323.351 217.659 322.828 216.937C322.3 216.215 321.459 215.788 320.566 215.788H316.191C315.932 211.931 313.718 208.475 310.315 206.615C306.918 204.76 302.801 204.76 299.398 206.615C296.001 208.469 293.781 211.931 293.522 215.788H286.817L285.015 210.393C284.645 209.249 283.572 208.475 282.362 208.485H275.234C274.811 208.485 274.468 208.828 274.468 209.249C274.468 209.671 274.811 210.013 275.234 210.013L275.25 210.008Z" fill="black"/>
<g filter="url(#filter4_d_269_1926)">
<path d="M68.2965 297.669C88.0361 297.669 104.038 281.713 104.038 262.029C104.038 242.346 88.0361 226.39 68.2965 226.39C48.5568 226.39 32.5547 242.346 32.5547 262.029C32.5547 281.713 48.5568 297.669 68.2965 297.669Z" fill="#00B4FF"/>
</g>
<path d="M87.0128 248.794H76.9624C77.866 248.214 78.4895 247.324 78.7326 246.281C78.9756 245.211 78.7907 244.115 78.2147 243.193C77.4591 241.997 76.1645 241.28 74.7483 241.28C73.9821 241.28 73.2318 241.496 72.5766 241.907C70.8222 242.998 69.311 245.343 68.2964 247.255C67.2766 245.337 65.7548 242.998 64.0163 241.907C63.3611 241.496 62.6107 241.28 61.8445 241.28C60.4337 241.28 59.1338 241.997 58.3729 243.198C57.7969 244.131 57.6119 245.227 57.855 246.281C58.0981 247.324 58.7269 248.214 59.6305 248.794H49.5906C49.1573 248.794 48.8086 249.142 48.8086 249.568V254.311C48.8086 254.737 49.1573 255.085 49.5906 255.085H51.6092V282.005C51.6092 282.437 51.9579 282.784 52.3912 282.784H84.2175C84.6455 282.784 84.989 282.437 84.989 282.005V255.085H87.0128C87.4408 255.085 87.7895 254.737 87.7895 254.311V249.568C87.7895 249.142 87.4408 248.794 87.0181 248.794H87.0128ZM83.4354 268.932V281.225H69.1208V268.932H83.4354ZM83.4354 255.08V267.383H69.1208V255.08H83.4354ZM69.2687 248.794C70.0191 247.282 71.6466 244.326 73.4009 243.225C73.8183 242.972 74.2833 242.835 74.7536 242.835C75.6361 242.835 76.4393 243.277 76.899 244.015C77.2583 244.584 77.3798 245.264 77.2266 245.922C77.0734 246.586 76.6718 247.139 76.1064 247.498C74.352 248.594 71.1287 248.778 69.274 248.789L69.2687 248.794ZM86.236 250.343V253.526H69.1102V250.343H86.236ZM67.5567 268.932V281.225H53.1627V268.932H67.5567ZM67.5567 255.08V267.383H53.1627V255.08H67.5567ZM61.8445 242.835C62.3201 242.835 62.7851 242.972 63.1867 243.225C64.9674 244.331 66.5844 247.287 67.3294 248.794C65.4694 248.783 62.2461 248.599 60.4971 247.508C59.9264 247.15 59.5301 246.591 59.3768 245.933C59.2236 245.274 59.3398 244.6 59.6992 244.025C60.1642 243.283 60.9674 242.84 61.8445 242.84V242.835ZM67.5567 250.343V253.526H50.3568V250.343H67.5567Z" fill="black"/>
</g>
<defs>
<filter id="filter0_d_269_1926" x="60.7598" y="95.0468" width="239.659" height="179.522" filterUnits="userSpaceOnUse" color-interpolation-filters="sRGB">
<feFlood flood-opacity="0" result="BackgroundImageFix"/>
<feColorMatrix in="SourceAlpha" type="matrix" values="0 0 0 0 0 0 0 0 0 0 0 0 0 0 0 0 0 0 127 0" result="hardAlpha"/>
<feOffset dy="7.12"/>
<feGaussianBlur stdDeviation="8.54"/>
<feColorMatrix type="matrix" values="0 0 0 0 0.858824 0 0 0 0 0.890196 0 0 0 0 0.929412 0 0 0 1 0"/>
<feBlend mode="normal" in2="BackgroundImageFix" result="effect1_dropShadow_269_1926"/>
<feBlend mode="normal" in="SourceGraphic" in2="effect1_dropShadow_269_1926" result="shape"/>
</filter>
<filter id="filter1_d_269_1926" x="131.557" y="131.683" width="104.46" height="104.26" filterUnits="userSpaceOnUse" color-interpolation-filters="sRGB">
<feFlood flood-opacity="0" result="BackgroundImageFix"/>
<feColorMatrix in="SourceAlpha" type="matrix" values="0 0 0 0 0 0 0 0 0 0 0 0 0 0 0 0 0 0 127 0" result="hardAlpha"/>
<feOffset dy="7.12"/>
<feGaussianBlur stdDeviation="8.54"/>
<feColorMatrix type="matrix" values="0 0 0 0 0.858824 0 0 0 0 0.890196 0 0 0 0 0.929412 0 0 0 1 0"/>
<feBlend mode="normal" in2="BackgroundImageFix" result="effect1_dropShadow_269_1926"/>
<feBlend mode="normal" in="SourceGraphic" in2="effect1_dropShadow_269_1926" result="shape"/>
</filter>
<filter id="filter2_d_269_1926" x="130.114" y="-2.24125" width="104.46" height="104.26" filterUnits="userSpaceOnUse" color-interpolation-filters="sRGB">
<feFlood flood-opacity="0" result="BackgroundImageFix"/>
<feColorMatrix in="SourceAlpha" type="matrix" values="0 0 0 0 0 0 0 0 0 0 0 0 0 0 0 0 0 0 127 0" result="hardAlpha"/>
<feOffset dy="7.12"/>
<feGaussianBlur stdDeviation="8.54"/>
<feColorMatrix type="matrix" values="0 0 0 0 0.858824 0 0 0 0 0.890196 0 0 0 0 0.929412 0 0 0 1 0"/>
<feBlend mode="normal" in2="BackgroundImageFix" result="effect1_dropShadow_269_1926"/>
<feBlend mode="normal" in="SourceGraphic" in2="effect1_dropShadow_269_1926" result="shape"/>
</filter>
<filter id="filter3_d_269_1926" x="243.456" y="177.982" width="115.457" height="115.254" filterUnits="userSpaceOnUse" color-interpolation-filters="sRGB">
<feFlood flood-opacity="0" result="BackgroundImageFix"/>
<feColorMatrix in="SourceAlpha" type="matrix" values="0 0 0 0 0 0 0 0 0 0 0 0 0 0 0 0 0 0 127 0" result="hardAlpha"/>
<feOffset dy="9.22"/>
<feGaussianBlur stdDeviation="11.07"/>
<feColorMatrix type="matrix" values="0 0 0 0 0.858824 0 0 0 0 0.890196 0 0 0 0 0.929412 0 0 0 1 0"/>
<feBlend mode="normal" in2="BackgroundImageFix" result="effect1_dropShadow_269_1926"/>
<feBlend mode="normal" in="SourceGraphic" in2="effect1_dropShadow_269_1926" result="shape"/>
</filter>
<filter id="filter4_d_269_1926" x="15.4747" y="216.43" width="105.643" height="105.439" filterUnits="userSpaceOnUse" color-interpolation-filters="sRGB">
<feFlood flood-opacity="0" result="BackgroundImageFix"/>
<feColorMatrix in="SourceAlpha" type="matrix" values="0 0 0 0 0 0 0 0 0 0 0 0 0 0 0 0 0 0 127 0" result="hardAlpha"/>
<feOffset dy="7.12"/>
<feGaussianBlur stdDeviation="8.54"/>
<feColorMatrix type="matrix" values="0 0 0 0 0.858824 0 0 0 0 0.890196 0 0 0 0 0.929412 0 0 0 1 0"/>
<feBlend mode="normal" in2="BackgroundImageFix" result="effect1_dropShadow_269_1926"/>
<feBlend mode="normal" in="SourceGraphic" in2="effect1_dropShadow_269_1926" result="shape"/>
</filter>
<clipPath id="clip0_269_1926">
<rect width="353" height="330" fill="white"/>
</clipPath>
</defs>
</svg>
