<svg width="51" height="51" viewBox="0 0 51 51" fill="none" xmlns="http://www.w3.org/2000/svg">
<path d="M14.2105 8.44043C10.6388 8.44043 7.7373 11.3463 7.7373 14.9137C7.7373 18.481 10.6432 21.3869 14.2105 21.3869C17.7779 21.3869 20.6838 18.481 20.6838 14.9137C20.6838 11.3463 17.7779 8.44043 14.2105 8.44043ZM11.2826 19.4379C11.115 19.4379 10.9475 19.3761 10.8196 19.2483C10.5638 18.9925 10.5638 18.578 10.8196 18.3267L14.2282 14.9181L10.8196 11.5139C10.5638 11.2581 10.5638 10.8436 10.8196 10.5923C11.0753 10.3409 11.4898 10.3365 11.7412 10.5923L15.6084 14.4595C15.7318 14.5829 15.798 14.7461 15.798 14.9225C15.798 15.0989 15.7274 15.262 15.6084 15.3855L11.7412 19.2527C11.6133 19.3805 11.4457 19.4423 11.2782 19.4423L11.2826 19.4379ZM15.1454 19.2483C15.0175 19.3761 14.8499 19.4379 14.6824 19.4379C14.5148 19.4379 14.3472 19.3761 14.2194 19.2483C13.9636 18.9925 13.9636 18.578 14.2194 18.3267L17.6279 14.9181L14.2194 11.5139C13.9636 11.2581 13.9636 10.8436 14.2194 10.5923C14.4751 10.3409 14.8896 10.3365 15.141 10.5923L19.0081 14.4595C19.1316 14.5829 19.1978 14.7461 19.1978 14.9225C19.1978 15.0989 19.1272 15.262 19.0081 15.3855L15.141 19.2527L15.1454 19.2483Z" fill="white"/>
<path d="M14.2101 7.13477C9.9196 7.13477 6.43164 10.6227 6.43164 14.9132C6.43164 19.2037 9.9196 22.6917 14.2101 22.6917C18.5006 22.6917 21.9886 19.2037 21.9886 14.9132C21.9886 10.6227 18.5006 7.13477 14.2101 7.13477ZM14.2101 21.3909C10.6384 21.3909 7.73687 18.485 7.73687 14.9176C7.73687 11.3503 10.6428 8.4444 14.2101 8.4444C17.7774 8.4444 20.6833 11.3503 20.6833 14.9176C20.6833 18.485 17.7774 21.3909 14.2101 21.3909Z" fill="#7066FF"/>
<path d="M15.8069 14.9175C15.8069 14.7455 15.7364 14.578 15.6173 14.4545L11.7501 10.5873C11.4944 10.3316 11.0799 10.3316 10.8285 10.5873C10.5772 10.8431 10.5728 11.2576 10.8285 11.5089L14.2371 14.9131L10.8285 18.3217C10.5728 18.5774 10.5728 18.9919 10.8285 19.2433C10.9564 19.3712 11.124 19.4329 11.2915 19.4329C11.4591 19.4329 11.6267 19.3712 11.7545 19.2433L15.6217 15.3761C15.7452 15.2526 15.8113 15.0895 15.8113 14.9131L15.8069 14.9175Z" fill="#7066FF"/>
<path d="M19.0167 14.4545L15.1495 10.5873C14.8938 10.3316 14.4793 10.3316 14.2279 10.5873C13.9766 10.8431 13.9722 11.2576 14.2279 11.5089L17.6365 14.9131L14.2279 18.3217C13.9722 18.5774 13.9722 18.9919 14.2279 19.2433C14.3558 19.3712 14.5234 19.4329 14.691 19.4329C14.8585 19.4329 15.0261 19.3712 15.154 19.2433L19.0211 15.3761C19.1446 15.2526 19.2108 15.0895 19.2108 14.9131C19.2108 14.7367 19.1402 14.5736 19.0211 14.4501L19.0167 14.4545Z" fill="#7066FF"/>
<path d="M40.6505 24.928C40.3507 24.6282 39.8612 24.6282 39.5613 24.928C38.6838 25.7967 37.5285 26.2773 36.3071 26.2773H14.4269C12.6366 26.2773 10.9477 27.0534 9.78359 28.4027C9.51019 28.7246 9.54547 29.2097 9.86296 29.4875C10.0085 29.611 10.1849 29.6727 10.3656 29.6727C10.5817 29.6727 10.7978 29.5845 10.9477 29.4081C11.8208 28.3983 13.0863 27.8163 14.4269 27.8163H36.3115C37.9386 27.8163 39.482 27.1769 40.6505 26.0216C40.9459 25.7217 40.9504 25.2323 40.6505 24.9324V24.928Z" fill="#7066FF"/>
<path d="M24.4137 15.7821H36.8796C37.81 15.7821 38.7845 16.2451 39.5518 17.0476C39.7017 17.2064 39.9045 17.2814 40.1074 17.2814C40.297 17.2814 40.491 17.2108 40.6409 17.0697C40.7909 16.9286 40.8746 16.739 40.879 16.5361C40.8835 16.3289 40.8085 16.1349 40.6674 15.9849C39.6091 14.8781 38.2289 14.2432 36.884 14.2432H24.4182C23.9948 14.2432 23.6465 14.5871 23.6465 15.0148C23.6465 15.4382 23.9948 15.7821 24.4182 15.7821H24.4137Z" fill="#7066FF"/>
<path d="M31.077 38.3016H14.4221C13.3285 38.3016 12.2746 37.9135 11.4412 37.208C11.2869 37.0757 11.0796 37.0096 10.8812 37.0272C10.6783 37.0449 10.4887 37.1375 10.3564 37.2962C10.2242 37.4549 10.158 37.6534 10.1757 37.8562C10.1933 38.0591 10.2903 38.2487 10.4446 38.381C11.5514 39.3202 12.9625 39.8405 14.4177 39.8405H31.077C31.5003 39.8405 31.8442 39.4966 31.8442 39.0733C31.8442 38.6499 31.5003 38.3016 31.0726 38.3016H31.077Z" fill="#7066FF"/>
<path d="M41.4791 17.8594C39.7329 17.8594 38.3086 19.2793 38.3086 21.0298C38.3086 22.7804 39.7285 24.2003 41.4791 24.2003C43.2297 24.2003 44.6495 22.7804 44.6495 21.0298C44.6495 19.2793 43.2297 17.8594 41.4791 17.8594ZM43.1106 21.0298C43.1106 21.9294 42.3786 22.6614 41.4791 22.6614C40.5795 22.6614 39.8475 21.9294 39.8475 21.0298C39.8475 20.1303 40.5795 19.3983 41.4791 19.3983C42.3786 19.3983 43.1106 20.1303 43.1106 21.0298Z" fill="#7066FF"/>
<path d="M12.2218 33.6148C12.2218 31.8686 10.8019 30.4443 9.05133 30.4443C7.30074 30.4443 5.88086 31.8642 5.88086 33.6148C5.88086 35.3654 7.30074 36.7853 9.05133 36.7853C10.8019 36.7853 12.2218 35.3654 12.2218 33.6148ZM10.6829 33.6148C10.6829 34.5144 9.95088 35.2463 9.05133 35.2463C8.15178 35.2463 7.4198 34.5144 7.4198 33.6148C7.4198 32.7153 8.15178 31.9833 9.05133 31.9833C9.95088 31.9833 10.6829 32.7153 10.6829 33.6148Z" fill="#7066FF"/>
<path d="M41.8981 34.3557L44.2616 32.1157C44.4556 31.9304 44.5174 31.6482 44.4203 31.4013C44.3189 31.1544 44.0808 30.9912 43.8118 30.9912H34.2034C33.8418 30.9912 33.5508 31.2822 33.5508 31.6438V46.1998C33.5508 46.5614 33.8418 46.8524 34.2034 46.8524C34.565 46.8524 34.856 46.5614 34.856 46.1998V38.1215H43.8118C44.0676 38.1215 44.3013 37.9715 44.4071 37.7334C44.5129 37.4997 44.4688 37.2219 44.2969 37.0323L41.8981 34.3601V34.3557ZM34.8604 36.8118V32.2964H42.1803L40.5443 33.8486C40.2886 34.0911 40.2709 34.4968 40.5091 34.757L42.3567 36.8118H34.8648H34.8604Z" fill="#7066FF"/>
</svg>
