<svg width="51" height="50" viewBox="0 0 51 50" fill="none" xmlns="http://www.w3.org/2000/svg">
<path d="M42.9076 41.878H24.7182L17.2264 29.5666L25.2694 19.0542L33.5285 29.8444C33.6961 30.0648 33.9783 30.1662 34.2473 30.1045L37.2899 29.3946L42.3123 37.2083C42.4094 37.3627 42.5725 37.4729 42.7533 37.5126C42.9385 37.5523 43.1281 37.5214 43.2869 37.42C43.4456 37.3186 43.5558 37.1598 43.5955 36.9746C43.6352 36.7894 43.5999 36.6042 43.4985 36.4455L38.207 28.2128C38.0483 27.9659 37.7485 27.8424 37.453 27.9086L34.3663 28.6273L25.9705 17.6519V15.0679H34.0841C34.3266 15.0679 34.5515 14.9444 34.6882 14.7328C34.8205 14.5255 34.8337 14.2698 34.7191 14.0449L33.1096 10.8347L34.7147 7.62458C34.8249 7.4041 34.8117 7.14394 34.6794 6.93669C34.5471 6.72944 34.3222 6.60156 34.0841 6.60156H25.265C24.8769 6.60156 24.5595 6.91905 24.5595 7.30709V17.6475L16.4326 28.2701L14.4042 24.9321C14.2808 24.7293 14.0647 24.6014 13.8222 24.5926C13.5752 24.5749 13.3636 24.694 13.2225 24.888L7.04909 33.5219C6.93886 33.6763 6.89476 33.8615 6.92563 34.0467C6.95649 34.2319 7.05791 34.395 7.21225 34.5008C7.37099 34.6111 7.55619 34.6552 7.7414 34.6243C7.9266 34.5934 8.08975 34.492 8.19558 34.3377L13.7516 26.5725L23.1263 41.9839H7.63116C7.24311 41.9839 6.92563 42.3014 6.92563 42.6894C6.92563 43.0774 7.24311 43.3949 7.63116 43.3949H24.3875C24.511 43.3949 24.63 43.3641 24.7535 43.2847H42.9076C43.2957 43.2847 43.6132 42.9672 43.6132 42.5792C43.6132 42.1911 43.2957 41.8736 42.9076 41.8736V41.878ZM31.6941 10.5173C31.5971 10.7157 31.5971 10.9538 31.6941 11.1478L32.9464 13.6524H25.9749V8.00821H32.9464L31.6941 10.5128V10.5173Z" fill="#7066FF"/>
</svg>
