<svg width="51" height="51" viewBox="0 0 51 51" fill="none" xmlns="http://www.w3.org/2000/svg">
<path d="M48.3311 16.9393L45.5001 14.1084L42.6736 16.9393C42.5325 17.076 42.4531 17.2656 42.4531 17.4597C42.4531 17.6625 42.5281 17.8477 42.6736 17.9888C42.8059 18.1211 42.9955 18.2005 43.1939 18.2005C43.3968 18.2005 43.5864 18.1255 43.7187 17.9888L44.7505 16.957V23.8579C44.7505 24.268 45.0856 24.6032 45.4957 24.6032C45.9058 24.6032 46.2409 24.268 46.2409 23.8579V16.957L47.2728 17.9888C47.5506 18.271 48.0533 18.271 48.3223 17.9888C48.4634 17.8477 48.5427 17.6625 48.5427 17.4641C48.5427 17.2656 48.4678 17.076 48.3223 16.9349L48.3311 16.9393Z" fill="#7066FF"/>
<path d="M36.2138 11.9432L38.4892 9.67232V21.243C38.4892 21.6531 38.8243 21.9882 39.2344 21.9882C39.6445 21.9882 39.9796 21.6531 39.9796 21.243V9.67232L42.2505 11.9432C42.3828 12.0755 42.5724 12.1549 42.7708 12.1549C42.9693 12.1549 43.1633 12.0799 43.2956 11.9432C43.4367 11.8021 43.516 11.6169 43.516 11.4185C43.516 11.2201 43.4411 11.0305 43.2956 10.8894L39.2255 6.81934L35.1599 10.885C35.0188 11.0261 34.9395 11.2113 34.9395 11.4097C34.9395 11.6081 35.0144 11.7977 35.1599 11.9388C35.4333 12.221 35.9272 12.2255 36.2138 11.9388V11.9432Z" fill="#7066FF"/>
<path d="M6.39224 14.1084L3.5613 16.9393C3.42019 17.076 3.34082 17.2656 3.34082 17.4641C3.34082 17.6405 3.40255 17.8124 3.52602 17.9579L3.5613 17.9932C3.8391 18.2754 4.32856 18.2798 4.61518 17.9932L5.64702 16.9614V23.8623C5.64702 24.2724 5.98215 24.6076 6.39224 24.6076C6.80232 24.6076 7.13745 24.2724 7.13745 23.8623V16.9614L8.16929 17.9932C8.30157 18.1255 8.49119 18.2049 8.68962 18.2049C8.90128 18.2137 9.08648 18.1299 9.21876 17.9932C9.35987 17.8521 9.43924 17.6669 9.43924 17.4685C9.43924 17.2701 9.36428 17.0804 9.21876 16.9393L6.38783 14.1084H6.39224Z" fill="#7066FF"/>
<path d="M9.11729 12.1554C9.31572 12.1554 9.50974 12.0804 9.64202 11.9437L11.9129 9.67279V21.2479C11.9129 21.658 12.2481 21.9931 12.6582 21.9931C13.0683 21.9931 13.4034 21.658 13.4034 21.2479V9.67279L15.6743 11.9437C15.9521 12.2259 16.4416 12.2303 16.7238 11.9437C16.8649 11.8026 16.9443 11.6174 16.9443 11.419C16.9443 11.2206 16.8649 11.0309 16.7238 10.8898L16.6576 10.8237L12.6582 6.82422L8.59255 10.8942C8.45144 11.0353 8.37207 11.2206 8.37207 11.419C8.37207 11.6174 8.44703 11.807 8.58814 11.9481C8.72043 12.0804 8.91004 12.1598 9.10847 12.1598L9.11729 12.1554Z" fill="#7066FF"/>
<path d="M25.9313 27.227C30.6231 27.227 34.4418 23.4083 34.4418 18.7165C34.4418 14.0247 30.6231 10.2061 25.9313 10.2061C21.2396 10.2061 17.4209 14.0247 17.4209 18.7165C17.4209 23.4083 21.2396 27.227 25.9313 27.227ZM25.9313 13.6455C27.2851 13.6455 28.3875 14.7479 28.3875 16.1016C28.3875 17.4554 27.2851 18.5578 25.9313 18.5578C24.5776 18.5578 23.4752 17.4554 23.4752 16.1016C23.4752 14.7479 24.5776 13.6455 25.9313 13.6455ZM25.9313 19.9115C28.3787 19.9115 30.3585 21.8076 30.4732 24.2417C29.1944 25.2912 27.5849 25.8732 25.9313 25.8732C24.2778 25.8732 22.6683 25.2956 21.3939 24.2417C21.5086 21.8473 23.5281 19.9115 25.9313 19.9115ZM29.7412 16.1016C29.7412 13.9983 28.0303 12.2918 25.9313 12.2918C23.8324 12.2918 22.1215 14.0027 22.1215 16.1016C22.1215 17.2569 22.6462 18.3417 23.5414 19.0649C21.8966 19.7968 20.6575 21.2741 20.2121 23.0114C19.2817 21.7767 18.7746 20.2643 18.7746 18.7121C18.7746 14.7655 21.9848 11.5554 25.9358 11.5554C29.8867 11.5554 33.0925 14.7655 33.0925 18.7121C33.0925 20.2599 32.5854 21.7767 31.655 23.0114C31.214 21.2696 29.9705 19.7968 28.3257 19.0649C29.2209 18.3417 29.7456 17.2525 29.7456 16.1016H29.7412Z" fill="#7066FF"/>
<path d="M18.1835 34.1591C18.3158 34.1591 18.4481 34.1194 18.5583 34.0356C18.7832 33.8725 18.8758 33.5859 18.792 33.3213L17.7823 30.2082L20.428 28.2856C20.6529 28.1224 20.7455 27.8358 20.6617 27.5712C20.5779 27.3067 20.331 27.1303 20.0532 27.1303H16.7813L15.7715 24.0171C15.6877 23.7526 15.4408 23.5762 15.163 23.5762C14.8852 23.5762 14.6426 23.7526 14.5545 24.0171L13.5447 27.1303H10.2728C9.99497 27.1303 9.75245 27.3067 9.66425 27.5712C9.58047 27.8358 9.67307 28.1224 9.89796 28.2856L12.5437 30.2082L11.5339 33.3213C11.4457 33.5859 11.5427 33.8725 11.7676 34.0356C11.9837 34.1944 12.3012 34.1944 12.5172 34.0356L15.163 32.1131L17.8087 34.0356C17.919 34.115 18.0512 34.1591 18.1835 34.1591ZM13.9018 30.1641C13.9856 29.8995 13.893 29.6129 13.6681 29.4497L12.235 28.409H14.0077C14.2855 28.409 14.528 28.2327 14.6162 27.9681L15.163 26.2836L15.7098 27.9681C15.798 28.2327 16.0405 28.409 16.3183 28.409H18.0909L16.6578 29.4497C16.4329 29.6129 16.3403 29.8995 16.4241 30.1641L16.9709 31.8485L15.5378 30.8079C15.4276 30.7285 15.2997 30.6844 15.163 30.6844C15.0263 30.6844 14.8984 30.7285 14.7882 30.8079L13.3551 31.8485L13.9018 30.1641Z" fill="#7066FF"/>
<path d="M42.4184 27.1342H39.1465L38.1367 24.021C38.0529 23.7565 37.806 23.5801 37.5282 23.5801C37.2504 23.5801 37.0079 23.7565 36.9197 24.021L35.9099 27.1342H32.638C32.3602 27.1342 32.1177 27.3106 32.0295 27.5751C31.9457 27.8397 32.0383 28.1263 32.2632 28.2895L34.9089 30.2121L33.8991 33.3252C33.811 33.5898 33.908 33.8764 34.1329 34.0396C34.2431 34.1189 34.3754 34.163 34.5077 34.163C34.64 34.163 34.7722 34.1233 34.8825 34.0396L37.5282 32.117L40.1739 34.0396C40.3944 34.1983 40.7075 34.1983 40.9236 34.0396C41.1485 33.8764 41.2411 33.5898 41.1573 33.3252L40.1475 30.2121L42.7976 28.2895C43.0225 28.1263 43.1151 27.8397 43.0313 27.5751C42.9476 27.3106 42.7006 27.1342 42.4228 27.1342H42.4184ZM36.2671 30.1636C36.3509 29.899 36.2583 29.6124 36.0334 29.4492L34.6003 28.4085H36.3729C36.6507 28.4085 36.8932 28.2322 36.9814 27.9676L37.5282 26.2831L38.075 27.9676C38.1632 28.2322 38.4057 28.4085 38.6835 28.4085H40.4562L39.0231 29.4492C38.7982 29.6124 38.7056 29.899 38.7893 30.1636L39.3361 31.848L37.903 30.8073C37.6781 30.6442 37.3783 30.6442 37.1534 30.8073L35.7203 31.848L36.2671 30.1636Z" fill="#7066FF"/>
<path d="M34.1636 35.1026H28.5811L26.857 29.7935C26.7732 29.5289 26.5263 29.3525 26.2485 29.3525C25.9707 29.3525 25.7282 29.5289 25.64 29.7935L23.9158 35.1026H18.3333C18.0555 35.1026 17.813 35.279 17.7248 35.5436C17.641 35.8081 17.7336 36.0948 17.9585 36.2579L22.4739 39.5386L20.7498 44.8477C20.6616 45.1123 20.7586 45.3989 20.9835 45.5621C21.0937 45.6459 21.226 45.6855 21.3583 45.6855C21.4906 45.6855 21.6229 45.6459 21.7331 45.5621L26.2485 42.2814L30.7639 45.5621C30.9843 45.7208 31.2974 45.7208 31.5135 45.5621C31.7384 45.3989 31.831 45.1123 31.7472 44.8477L30.0231 39.5386L34.5385 36.2579C34.7633 36.0948 34.8559 35.8081 34.7722 35.5436C34.684 35.279 34.4414 35.1026 34.1636 35.1026ZM23.8365 39.4901C23.9202 39.2255 23.8276 38.9389 23.6027 38.7758L20.3 36.377H24.3832C24.661 36.377 24.9036 36.2006 24.9918 35.936L26.2529 32.0556L27.514 35.936C27.5978 36.2006 27.8447 36.377 28.1225 36.377H32.2058L28.903 38.7758C28.6781 38.9389 28.5855 39.2255 28.6693 39.4901L29.9305 43.3705L26.6277 40.9717C26.4028 40.8086 26.103 40.8086 25.8781 40.9717L22.5753 43.3705L23.8365 39.4901Z" fill="#7066FF"/>
</svg>
