<svg width="51" height="50" viewBox="0 0 51 50" fill="none" xmlns="http://www.w3.org/2000/svg">
<g clip-path="url(#clip0_269_2063)">
<path d="M29.7498 36.89C29.9747 36.9165 30.1907 36.7886 30.2789 36.5813C30.3671 36.3697 30.3054 36.1271 30.129 35.986C30.0099 35.889 27.1437 33.574 24.7185 34.3766C24.6435 34.403 24.5774 34.4383 24.5024 34.4647C25.0668 32.0218 24.4142 29.4511 22.743 27.577C22.549 27.3786 22.2315 27.3742 22.0286 27.5638C19.7842 29.6451 20.0002 32.3878 20.644 34.4295C20.5999 34.4118 20.5602 34.3898 20.5162 34.3766C18.0909 33.574 15.2247 35.889 15.1056 35.986C14.9292 36.1316 14.8675 36.3741 14.9557 36.5813C15.0439 36.793 15.26 36.9165 15.4848 36.8944C19.136 36.4843 21.451 37.7675 22.0992 38.1908V41.1629C19.5416 41.304 17.0061 42.6798 14.5412 45.2682C14.4001 45.4181 14.3604 45.6342 14.4398 45.8238C14.5192 46.0134 14.7088 46.1324 14.9116 46.1324H29.7983C29.9923 46.1324 30.1687 46.0266 30.2569 45.8546C30.3451 45.6827 30.3274 45.4754 30.2172 45.3211C30.1025 45.1623 27.4171 41.4848 23.1266 41.1673V38.1908C23.7748 37.7675 26.0854 36.4887 29.7454 36.8944L29.7498 36.89ZM25.0404 35.3467C25.2917 35.2673 25.5563 35.2232 25.8209 35.2276C26.544 35.2585 27.254 35.4525 27.8978 35.7876C26.4029 35.8229 24.9301 36.158 23.5632 36.7754C23.841 36.1183 24.3701 35.6024 25.036 35.3467H25.0404ZM21.6626 36.7754C20.3001 36.1624 18.8273 35.8273 17.3369 35.792C18.2011 35.3731 19.2771 35.0424 20.1987 35.3511C20.8204 35.5892 21.3275 36.061 21.6053 36.6651L21.667 36.7798L21.6626 36.7754ZM22.3505 28.7014C23.1443 29.7465 23.6117 31.0076 23.6866 32.3217C23.7616 33.6313 23.4485 34.9366 22.7783 36.0698C22.7783 36.0742 22.6724 36.2815 22.6195 36.3829C22.6063 36.3609 22.4211 36.0081 22.3329 35.867C21.5392 34.3589 20.256 31.1002 22.3505 28.7014ZM23.131 42.1947C25.7194 42.4152 27.6949 44.0776 28.6827 45.105H16.1683C18.1394 43.2927 20.1281 42.3138 22.1036 42.1859V44.0776C22.1036 44.3598 22.3329 44.5891 22.6151 44.5891C22.8973 44.5891 23.1266 44.3598 23.1266 44.0776V42.1947H23.131Z" fill="#7066FF"/>
<path d="M7.64924 41.939V40.7396C8.80013 40.4265 9.8011 39.7122 10.4714 38.7245C11.2298 37.5295 11.3533 36.0082 10.8418 34.2002C10.8021 34.0591 10.7051 33.9445 10.5728 33.8783C10.4405 33.8122 10.2862 33.8078 10.1539 33.8651C8.76044 34.5398 7.6801 35.7259 7.13773 37.1767C6.59535 35.7259 5.51501 34.5398 4.126 33.8651C3.9893 33.8078 3.83937 33.8166 3.70709 33.8783C3.5748 33.9445 3.47779 34.0591 3.43811 34.2002C2.9266 36.0082 3.05006 37.5295 3.80851 38.7245C4.47876 39.7122 5.47973 40.4265 6.63063 40.7396V41.8993C6.56007 41.8993 6.48952 41.8993 6.41897 41.9082C2.87809 42.1551 0.660082 45.1933 0.567482 45.3212C0.457243 45.4755 0.439604 45.6827 0.527796 45.8547C0.615987 46.0267 0.792369 46.1325 0.98639 46.1325H13.0642C13.2714 46.1325 13.4566 46.009 13.536 45.8238C13.6154 45.6342 13.5801 45.4138 13.4346 45.2682C11.5517 43.2928 9.6159 42.1771 7.65805 41.9434L7.64924 41.939ZM10.0039 35.1218C10.2729 36.1493 10.1318 37.2428 9.60708 38.1688C9.13526 38.8656 8.45178 39.3859 7.65805 39.6593C7.79475 36.9871 9.21022 35.6598 10.0083 35.1218H10.0039ZM6.6174 39.6593C5.82368 39.3903 5.13579 38.8656 4.66396 38.1688C4.13923 37.2428 3.99812 36.1493 4.2671 35.1218C5.06523 35.6642 6.4807 36.9871 6.6174 39.6593ZM2.11083 45.1051C3.26613 43.888 4.81389 43.1208 6.4807 42.9312C6.5248 42.9312 6.5733 42.9312 6.62181 42.9312V44.0777C6.62181 44.3599 6.8511 44.5892 7.13332 44.5892C7.41553 44.5892 7.64483 44.3599 7.64483 44.0777V42.9797C9.2014 43.2663 10.6433 44.0027 11.781 45.1051H2.11083Z" fill="#7066FF"/>
<path d="M50.0071 45.1802C49.8615 44.9862 46.4441 40.6031 41.1968 40.1622V33.3317L42.4799 32.0001C42.4799 32.0001 42.4888 32.0001 42.4932 32.0001C43.8337 32.0001 44.8876 31.5944 45.6284 30.7962C46.96 29.3543 46.7219 27.1848 46.7131 27.0922C46.6822 26.8144 46.4441 26.6028 46.1663 26.6028H46.1531C44.4819 26.638 43.2472 27.1451 42.4755 28.1108C41.5804 29.2353 41.6068 30.6331 41.673 31.246L41.1923 31.7443V27.2245C41.1923 27.1672 41.2276 26.3117 41.8141 25.4519C42.1889 25.5401 42.5505 25.5886 42.9033 25.5886C43.5382 25.5886 44.1379 25.443 44.6935 25.1608C46.5852 24.1907 47.2643 21.9198 47.2908 21.8228C47.3349 21.6729 47.3128 21.5097 47.229 21.3774C47.1452 21.2451 47.0086 21.1525 46.8542 21.1261C44.3628 20.6984 42.599 21.0026 41.6068 22.0433C40.4912 23.2074 40.8263 24.8081 40.844 24.8786C40.844 24.8874 40.8484 24.8918 40.8528 24.9007C40.769 25.0285 40.6941 25.1608 40.6279 25.2887C40.6235 25.2755 40.6147 25.2622 40.6103 25.249C40.6852 25.1608 40.7337 25.0506 40.7426 24.9271C40.747 24.8433 40.8572 22.9031 39.3051 21.2628C37.9381 19.8209 35.7598 19.0889 32.823 19.0889C32.748 19.0889 32.6687 19.0889 32.5893 19.0889C32.4173 19.0889 32.2586 19.1726 32.1572 19.3093C32.0557 19.446 32.0205 19.6224 32.069 19.7856C32.0866 19.8517 33.7578 25.615 38.7009 25.615C38.9699 25.615 39.2477 25.5974 39.5388 25.5621C39.918 26.3602 40.0635 27.0966 40.09 27.2598V35.8672L38.2864 33.9403C38.3658 33.345 38.4231 31.9956 37.5589 30.7081C36.624 29.3058 34.9175 28.4151 32.4967 28.0667C32.3468 28.0447 32.1924 28.0888 32.0734 28.1814C31.9543 28.2784 31.8794 28.4151 31.8661 28.5694C31.8573 28.6885 31.6545 31.5371 33.4359 33.3229C34.3399 34.2313 35.579 34.6899 37.1179 34.6899C37.2326 34.6899 37.3516 34.6811 37.4663 34.6767L40.09 37.4767V40.1445C36.0596 40.3385 32.898 43.4473 31.5134 44.8186C31.3899 44.9421 31.2797 45.0524 31.1826 45.145C31.0548 45.2684 30.9974 45.4448 31.0239 45.6168C31.0107 45.7094 31.0195 45.802 31.0548 45.8902C31.1385 46.0974 31.3414 46.2341 31.5663 46.2341L49.5661 46.2077C49.7778 46.2077 49.9674 46.0886 50.06 45.899C50.1085 45.7976 50.1217 45.6873 50.1085 45.5815C50.1261 45.4404 50.0908 45.2949 50.0026 45.1802H50.0071ZM43.3442 28.7855C43.8204 28.1902 44.5877 27.8374 45.6284 27.7316C45.6107 28.3357 45.4696 29.3323 44.817 30.0422C44.5304 30.3509 44.16 30.567 43.719 30.7081L44.0674 30.3465C44.279 30.126 44.2702 29.7776 44.0541 29.566C43.8337 29.3543 43.4853 29.3631 43.2737 29.5792L42.8062 30.0687C42.8768 29.6454 43.0267 29.1823 43.3486 28.7855H43.3442ZM34.2252 32.5468C33.2419 31.5635 33.017 30.0863 32.9729 29.2617C34.7235 29.6101 35.9538 30.2936 36.6329 31.3033C36.968 31.8016 37.1223 32.3175 37.1841 32.7629L35.8083 31.2989C35.601 31.0785 35.2527 31.0652 35.0278 31.2725C34.8073 31.4797 34.7941 31.8281 35.0013 32.053L36.3992 33.5434C35.4952 33.4332 34.7676 33.098 34.2164 32.5468H34.2252ZM40.6456 44.4041C40.9498 44.4041 41.1968 44.1572 41.1968 43.853V41.4145C44.4025 41.7231 46.9071 43.7119 48.1859 44.9686L33.0699 44.9906C34.6089 43.5355 37.087 41.5379 40.0944 41.388V43.853C40.0944 44.1572 40.3413 44.4041 40.6456 44.4041ZM46.0032 22.1094C45.7121 22.7356 45.1345 23.6969 44.1908 24.1819C43.7719 24.398 43.3089 24.495 42.8151 24.4818C43.0885 24.301 43.4015 24.1378 43.7763 24.0099C44.063 23.9085 44.2173 23.5954 44.1159 23.3088C44.0145 23.0222 43.7014 22.8679 43.4148 22.9693C42.8283 23.1721 42.3432 23.4411 41.9464 23.7365C42.0081 23.4279 42.1404 23.0883 42.4138 22.8017C43.0488 22.1403 44.279 21.9066 46.0032 22.1094ZM33.383 20.1957C35.7068 20.275 37.4266 20.8836 38.4937 21.9992C38.9346 22.4622 39.208 22.9516 39.3756 23.397C38.9038 22.9296 38.3217 22.5327 37.5897 22.3034C37.2987 22.2108 36.99 22.374 36.8974 22.665C36.8048 22.9561 36.968 23.2647 37.259 23.3573C37.9513 23.5734 38.4849 24.0055 38.8906 24.5038C35.5569 24.6052 33.9518 21.6067 33.383 20.1957Z" fill="#7066FF"/>
<path d="M5.37372 23.5693C5.43986 23.5693 5.51042 23.5561 5.57656 23.5296L41.0647 9.47637L39.7462 12.5278C39.6272 12.8056 39.7551 13.1319 40.0329 13.2509C40.1034 13.2818 40.1784 13.295 40.2533 13.295C40.465 13.295 40.6678 13.1716 40.7604 12.9643L42.608 8.69146C42.7271 8.41366 42.5992 8.08735 42.3214 7.9683L38.0486 6.12069C37.7708 6.00163 37.4444 6.12951 37.3254 6.40731C37.2063 6.68511 37.3342 7.01142 37.612 7.13048L40.6634 8.44894L5.17088 22.5022C4.88867 22.6124 4.74756 22.9343 4.86221 23.2166C4.94599 23.4326 5.15765 23.5649 5.37372 23.5649V23.5693Z" fill="#7066FF"/>
</g>
<defs>
<clipPath id="clip0_269_2063">
<rect width="50" height="50" fill="white" transform="translate(0.34668)"/>
</clipPath>
</defs>
</svg>
