<svg width="51" height="51" viewBox="0 0 51 51" fill="none" xmlns="http://www.w3.org/2000/svg">
<path d="M46.572 43.8997L40.9983 34.2471L38.2997 29.5686H41.8582C42.1712 29.5686 42.4226 29.3173 42.4226 29.0042V23.3247C42.4226 23.0116 42.1712 22.7602 41.8582 22.7602H37.7044C37.3604 21.3536 36.8048 20.0131 36.0508 18.7696L38.9875 15.8328C39.0934 15.727 39.1551 15.5815 39.1551 15.4316C39.1551 15.2816 39.0934 15.1405 38.9875 15.0303L34.9704 11.0132C34.75 10.7927 34.3928 10.7927 34.1679 11.0132L31.2311 13.9499C29.9876 13.1959 28.6471 12.6403 27.2405 12.2964V8.14255C27.2405 7.82947 26.9891 7.57812 26.6761 7.57812H20.9965C20.6835 7.57812 20.4321 7.82947 20.4321 8.14255V12.2964C19.0255 12.6403 17.685 13.1959 16.4415 13.9499L13.5047 11.0132C13.2842 10.7927 12.9226 10.7927 12.7022 11.0132L8.68505 15.0303C8.46457 15.2508 8.46457 15.6123 8.68505 15.8328L11.6218 18.7696C10.8678 20.0131 10.3078 21.3492 9.96823 22.7602H5.81442C5.50134 22.7602 5.25 23.0116 5.25 23.3247V29.0042C5.25 29.3173 5.50134 29.5686 5.81442 29.5686H9.96823C10.3122 30.9753 10.8678 32.3158 11.6218 33.5593L8.68505 36.496C8.46457 36.7165 8.46457 37.0781 8.68505 37.2986L12.7022 41.3157C12.808 41.4215 12.9535 41.4832 13.1034 41.4832C13.2534 41.4832 13.3945 41.4259 13.5047 41.3157L16.4415 38.3789C17.685 39.1329 19.0255 39.6885 20.4321 40.0325V44.1863C20.4321 44.4994 20.6835 44.7507 20.9965 44.7507H46.0825C46.2854 44.7507 46.4706 44.6405 46.572 44.4685C46.6734 44.2921 46.6734 44.0761 46.572 43.8997ZM21.1112 39.0271C19.5282 38.692 18.0333 38.0746 16.6664 37.1839C16.4415 37.0384 16.146 37.0693 15.9564 37.2589L13.099 40.1163L9.88445 36.8973L12.7418 34.0399C12.9315 33.8503 12.9623 33.5548 12.8168 33.33C11.9261 31.9674 11.3087 30.4682 10.9736 28.8851C10.9207 28.6205 10.687 28.4353 10.418 28.4353H6.37885V23.8891H10.418C10.687 23.8891 10.9163 23.6995 10.9736 23.4393C11.3087 21.8563 11.9261 20.3614 12.8168 18.9945C12.9623 18.7696 12.9315 18.4741 12.7418 18.2845L9.88445 15.4271L13.099 12.2126L15.9564 15.07C16.146 15.2596 16.4415 15.2904 16.6664 15.1449C18.0289 14.2542 19.5282 13.6369 21.1112 13.3017C21.3758 13.2488 21.561 13.0151 21.561 12.7461V8.70697H26.1072V12.7461C26.1072 13.0151 26.2968 13.2444 26.557 13.3017C28.14 13.6325 29.6349 14.2542 31.0018 15.1449C31.2267 15.2904 31.5222 15.2596 31.7118 15.07L34.5692 12.217L37.7881 15.4316L34.9307 18.2889C34.7411 18.4786 34.7103 18.774 34.8558 18.9989C35.7465 20.3658 36.3639 21.8607 36.699 23.4437C36.7519 23.7083 36.9856 23.8935 37.2546 23.8935H41.2937V28.4398H37.647L35.4246 24.5946C35.3232 24.4182 35.138 24.3124 34.9352 24.3124C34.7323 24.3124 34.5471 24.4226 34.4457 24.5946L33.8901 25.5559C33.5726 20.2865 29.1851 16.0974 23.8363 16.0974C18.4875 16.0974 13.7693 20.6172 13.7693 26.1644C13.7693 31.7116 18.2891 36.2359 23.8363 36.2359C25.4061 36.2359 26.945 35.8699 28.334 35.1732L23.4571 43.6175H21.561V39.5783C21.561 39.3093 21.3758 39.08 21.1156 39.0227L21.1112 39.0271ZM29.5864 33.0081C27.9769 34.3574 25.9397 35.1026 23.8363 35.1026C18.9064 35.1026 14.8981 31.0943 14.8981 26.1644C14.8981 22.2311 17.4513 18.8886 20.9833 17.6937V25.3751H17.6188C17.3895 25.3751 17.1823 25.5118 17.0941 25.7235C17.0059 25.9351 17.0544 26.1776 17.2175 26.3408L23.435 32.5583C23.5409 32.6641 23.6864 32.7258 23.8363 32.7258C23.9862 32.7258 24.1273 32.6685 24.2376 32.5583L30.455 26.3408C30.6182 26.1776 30.6667 25.9351 30.5785 25.7235C30.4903 25.5118 30.2875 25.3751 30.0538 25.3751H26.6893V17.6937C30.2257 18.8842 32.7789 22.2311 32.7789 26.1644C32.7789 26.6803 32.7304 27.2007 32.6422 27.721L29.5908 33.0081H29.5864ZM26.1204 26.5084H28.6824L23.8319 31.3589L18.9814 26.5084H21.5477C21.8608 26.5084 22.1122 26.257 22.1122 25.9439V17.3938C22.6678 17.2836 23.2454 17.2262 23.8319 17.2262C24.4184 17.2262 24.996 17.2836 25.5516 17.3938V25.9439C25.5516 26.257 25.8074 26.5084 26.1204 26.5084ZM26.6761 43.6175H24.7667L29.8509 34.8116L30.4991 33.6871C30.4991 33.6871 30.5256 33.6474 30.5344 33.6254L34.9307 26.0057L40.015 34.8116L45.0992 43.6175H26.6761ZM35.4996 31.8263V36.7915C35.4996 37.1045 35.2482 37.3559 34.9352 37.3559C34.6221 37.3559 34.3707 37.1045 34.3707 36.7915V31.8263C34.3707 31.5132 34.6221 31.2619 34.9352 31.2619C35.2482 31.2619 35.4996 31.5132 35.4996 31.8263ZM35.4996 39.7415V40.0369C35.4996 40.35 35.2482 40.6013 34.9352 40.6013C34.6221 40.6013 34.3707 40.35 34.3707 40.0369V39.7415C34.3707 39.4284 34.6221 39.177 34.9352 39.177C35.2482 39.177 35.4996 39.4284 35.4996 39.7415Z" fill="#7066FF" stroke="#7066FF" stroke-width="0.7" stroke-miterlimit="10"/>
</svg>
