<svg width="51" height="50" viewBox="0 0 51 50" fill="none" xmlns="http://www.w3.org/2000/svg">
<path d="M25.9129 28.5474C32.4346 28.5474 37.7437 23.2383 37.7437 16.7166C37.7437 10.1949 32.4346 4.88574 25.9129 4.88574C19.3911 4.88574 14.082 10.1949 14.082 16.7166C14.082 23.2383 19.3911 28.5474 25.9129 28.5474ZM32.6198 24.7111C30.7413 26.2897 28.3602 27.1584 25.9129 27.1584C23.4656 27.1584 21.0844 26.2897 19.2059 24.7111L19.1883 24.6979V24.6758C19.2985 21.0821 22.3147 18.1541 25.9129 18.1541C29.5111 18.1541 32.5228 21.0159 32.6375 24.6758V24.6979L32.6198 24.7111ZM22.1559 13.0037C22.1559 10.9312 23.8448 9.24239 25.9173 9.24239C27.9898 9.24239 29.6786 10.9312 29.6786 13.0037C29.6786 15.0762 27.9898 16.7651 25.9173 16.7651C23.8448 16.7651 22.1559 15.0762 22.1559 13.0037ZM25.9129 6.27475C31.6718 6.27475 36.3547 10.9577 36.3547 16.7166C36.3547 19.133 35.5081 21.4921 33.9647 23.353L33.8986 23.4323L33.881 23.3353C33.3562 20.6279 31.4292 18.3217 28.8541 17.3163L28.7703 17.2854L28.8452 17.2325C30.2342 16.2668 31.0632 14.6882 31.0632 13.0037C31.0632 10.164 28.7526 7.85338 25.9129 7.85338C23.0731 7.85338 20.7625 10.164 20.7625 13.0037C20.7625 14.6882 21.5915 16.2668 22.9805 17.2325L23.0555 17.2854L22.9717 17.3163C20.3965 18.3217 18.4695 20.6279 17.9448 23.3353L17.9272 23.4323L17.861 23.353C16.3221 21.4877 15.471 19.133 15.471 16.7166C15.471 10.9577 20.154 6.27475 25.9129 6.27475Z" fill="#7066FF"/>
<path d="M17.1297 35.7089L12.8745 35.0915L10.9828 31.2552C10.8637 31.0171 10.6256 30.8672 10.3566 30.8672C10.0876 30.8672 9.84952 31.0171 9.73487 31.2552L7.84316 35.0915L3.6144 35.7045C3.34982 35.7442 3.13375 35.925 3.05438 36.1763C2.9706 36.4321 3.04115 36.7054 3.23077 36.8906L6.291 39.8759L5.56783 44.0915C5.52374 44.3516 5.62957 44.6162 5.84122 44.7705C5.96028 44.8587 6.1058 44.9028 6.2469 44.9028C6.35714 44.9028 6.46738 44.8764 6.57321 44.8234L10.3566 42.8347L14.14 44.8234C14.3737 44.9469 14.6603 44.9249 14.872 44.7705C15.0881 44.6118 15.1939 44.3516 15.1498 44.0915L14.4266 39.8759L17.4869 36.8906C17.6765 36.7054 17.7426 36.4321 17.6633 36.1763C17.5883 35.9338 17.3766 35.753 17.1297 35.7089ZM13.1964 39.1351C13.0332 39.2939 12.9583 39.5232 12.9979 39.7525L13.5447 42.9406L10.6829 41.4369C10.5859 41.384 10.4713 41.3575 10.3566 41.3575C10.242 41.3575 10.1317 41.384 10.0347 41.4369L7.17291 42.9406L7.7197 39.7525C7.75938 39.5276 7.68442 39.2983 7.52127 39.1351L5.20625 36.8774L8.40318 36.4144C8.62807 36.3791 8.8265 36.238 8.92351 36.0352L10.3566 33.1381L11.7853 36.0352C11.8867 36.2424 12.0808 36.3835 12.31 36.4144L15.507 36.8774L13.192 39.1351H13.1964Z" fill="#7066FF"/>
<path d="M32.7215 35.7089L28.4663 35.0915L26.5746 31.2552C26.4555 31.0171 26.2174 30.8672 25.9484 30.8672C25.6794 30.8672 25.4413 31.0171 25.3267 31.2552L23.435 35.0915L19.2062 35.7045C18.9416 35.7442 18.7256 35.925 18.6462 36.1763C18.5624 36.4321 18.633 36.7054 18.8226 36.8906L21.8828 39.8759L21.1596 44.0915C21.1155 44.3516 21.2214 44.6162 21.433 44.7705C21.5521 44.8587 21.6976 44.9028 21.8387 44.9028C21.9489 44.9028 22.0592 44.8764 22.165 44.8234L25.9484 42.8347L29.7318 44.8234C29.9655 44.9469 30.2521 44.9249 30.4638 44.7705C30.6799 44.6118 30.7857 44.3516 30.7416 44.0915L30.0184 39.8759L33.0787 36.8906C33.2683 36.7054 33.3344 36.4321 33.2551 36.1763C33.1801 35.9338 32.9684 35.753 32.7215 35.7089ZM28.7882 39.1351C28.625 39.2939 28.5501 39.5232 28.5897 39.7525L29.1365 42.9406L26.2747 41.4369C26.1777 41.384 26.0631 41.3575 25.9484 41.3575C25.8338 41.3575 25.7235 41.384 25.6265 41.4369L22.7647 42.9406L23.3115 39.7525C23.3512 39.5276 23.2762 39.2983 23.1131 39.1351L20.798 36.8774L23.995 36.4144C24.2199 36.3791 24.4183 36.238 24.5153 36.0352L25.9484 33.1381L27.3771 36.0352C27.4785 36.2424 27.6725 36.3835 27.9018 36.4144L31.0988 36.8774L28.7838 39.1351H28.7882Z" fill="#7066FF"/>
<path d="M48.8478 36.1763C48.764 35.925 48.5524 35.7442 48.2878 35.7045L44.059 35.0915L42.1673 31.2552C42.0483 31.0171 41.8102 30.8672 41.5412 30.8672C41.2722 30.8672 41.0341 31.0171 40.9194 31.2552L39.0277 35.0915L34.799 35.7045C34.5344 35.7442 34.3183 35.925 34.239 36.1763C34.1552 36.4321 34.2257 36.7054 34.4153 36.8906L37.4756 39.8759L36.7524 44.0915C36.7083 44.3516 36.8141 44.6162 37.0258 44.7705C37.1449 44.8587 37.2904 44.9028 37.4315 44.9028C37.5417 44.9028 37.652 44.8764 37.7578 44.8234L41.5412 42.8347L45.3246 44.8234C45.5583 44.9469 45.8449 44.9249 46.0566 44.7705C46.2726 44.6118 46.3785 44.3516 46.3344 44.0915L45.6112 39.8759L48.6714 36.8951C48.8655 36.7099 48.936 36.4365 48.8522 36.1807L48.8478 36.1763ZM44.3809 39.1351C44.2178 39.2939 44.1428 39.5232 44.1825 39.7525L44.7293 42.9406L41.8675 41.4369C41.7705 41.384 41.6558 41.3575 41.5412 41.3575C41.4265 41.3575 41.3163 41.384 41.2193 41.4369L38.3575 42.9406L38.9043 39.7525C38.944 39.5276 38.869 39.2983 38.7058 39.1351L36.3908 36.8774L39.5877 36.4144C39.8126 36.3791 40.0111 36.238 40.1081 36.0352L41.5412 33.1381L42.9699 36.0352C43.0713 36.2424 43.2653 36.3835 43.4946 36.4144L46.6915 36.8774L44.3765 39.1351H44.3809Z" fill="#7066FF"/>
</svg>
