<svg width="51" height="51" viewBox="0 0 51 51" fill="none" xmlns="http://www.w3.org/2000/svg">
<path d="M35.262 22.3505C35.3854 22.5401 35.5045 22.7297 35.6192 22.9193L35.068 23.2456L34.7328 23.4397L34.5212 23.5631C34.4198 23.3868 34.3139 23.2192 34.2037 23.0516L35.2664 22.3461L35.262 22.3505ZM35.9631 28.3255L36.5937 28.2858L37.2375 28.2461C37.211 27.7787 37.1581 27.3113 37.0743 26.8527L36.4393 26.9673L35.8176 27.0776C35.8925 27.4876 35.941 27.9066 35.9631 28.3255ZM36.1351 25.6797L36.748 25.4901C36.6113 25.0447 36.4437 24.595 36.2585 24.1717L35.6677 24.4318L35.09 24.6876C35.2576 25.0668 35.4031 25.4637 35.5221 25.8605L36.1307 25.6797H36.1351ZM35.9631 29.5822C35.9366 30.0011 35.8881 30.42 35.8176 30.8301L36.4393 30.9403L37.0743 31.055C37.1537 30.5964 37.211 30.129 37.2375 29.6616L36.5937 29.6219L35.9631 29.5822ZM35.5266 32.0471C35.4075 32.4484 35.2576 32.8408 35.0944 33.2245L35.6721 33.4802L36.2629 33.7404C36.4526 33.3083 36.6157 32.8673 36.748 32.4219L36.1351 32.2323L35.5266 32.0515V32.0471ZM42.6171 35.6321C41.4486 39.6095 38.0753 42.6609 32.8676 44.4644C28.996 45.805 25.5169 45.9857 25.3757 45.9946H25.314C25.1685 45.9857 21.6849 45.805 17.8222 44.4644C12.6057 42.6609 9.23676 39.6051 8.07263 35.6321C5.35193 26.3676 7.94475 12.6451 8.0594 12.0674C8.12114 11.7587 8.39894 11.5427 8.71202 11.5515C15.344 11.7896 20.6443 10.1757 24.948 6.6172C25.1817 6.42317 25.5257 6.42317 25.7594 6.6172C30.0631 10.1757 35.3678 11.794 41.9954 11.5515C42.304 11.5383 42.5863 11.7587 42.648 12.0674C42.7582 12.6451 45.3511 26.3676 42.6348 35.6321H42.6215H42.6171ZM41.4706 12.8391C35.0768 12.9714 29.6398 11.3222 25.3361 7.92683C21.0279 11.3222 15.5998 12.9758 9.20148 12.8391C8.7517 15.476 6.94378 27.3069 9.28085 35.2661C11.7678 43.7325 24.6085 44.6673 25.3361 44.7114C26.068 44.6629 38.8999 43.7325 41.3913 35.2661C43.7283 27.3069 41.9248 15.476 41.4706 12.8391ZM35.1826 14.8719C34.9313 14.6205 34.53 14.6205 34.2786 14.8719C34.0273 15.1232 34.0273 15.5245 34.2786 15.7759L35.5398 17.037H25.3317C18.757 17.037 13.4126 22.3858 13.4126 28.956C13.4126 35.5263 18.7614 40.8751 25.3317 40.8751C29.3267 40.8751 33.0396 38.8864 35.2576 35.5571C35.381 35.3675 35.5001 35.1779 35.6147 34.9883L35.0636 34.6664L34.7284 34.4724L34.5168 34.3489C34.4153 34.5253 34.3095 34.6885 34.1993 34.8604C32.2194 37.8325 28.9034 39.6095 25.3317 39.6095C19.4625 39.6095 14.687 34.834 14.687 28.9648C14.687 23.0957 19.4625 18.3202 25.3317 18.3202H35.5398L34.2786 19.5813C34.0273 19.8326 34.0273 20.2339 34.2786 20.4853C34.4021 20.6087 34.5697 20.6749 34.7284 20.6749C34.8872 20.6749 35.0547 20.6131 35.1782 20.4853L37.5285 18.135C37.7798 17.8836 37.7798 17.4824 37.5285 17.231L35.1782 14.8807L35.187 14.8719H35.1826ZM24.7408 24.3921V28.9163C24.7408 29.2691 25.0274 29.5557 25.3802 29.5557H28.8196C29.1724 29.5557 29.459 29.2691 29.459 28.9163C29.459 28.5636 29.1724 28.277 28.8196 28.277H26.0151V24.3877C26.0151 24.035 25.7285 23.7483 25.3757 23.7483C25.023 23.7483 24.7364 24.035 24.7364 24.3877L24.7408 24.3921ZM25.4595 20.8733C29.847 20.8733 33.4188 24.445 33.4188 28.8326C33.4188 33.2201 29.847 36.7918 25.4595 36.7918C21.072 36.7918 17.5003 33.2201 17.5003 28.8326C17.5003 24.445 21.072 20.8733 25.4595 20.8733ZM25.4595 22.1477C21.7731 22.1477 18.7746 25.1462 18.7746 28.8326C18.7746 32.519 21.7731 35.5175 25.4595 35.5175C29.1459 35.5175 32.1444 32.519 32.1444 28.8326C32.1444 25.1462 29.1459 22.1477 25.4595 22.1477Z" fill="#7066FF" stroke="#7066FF" stroke-width="0.7" stroke-linecap="round" stroke-linejoin="round"/>
</svg>
