<svg width="51" height="50" viewBox="0 0 51 50" fill="none" xmlns="http://www.w3.org/2000/svg">
<path d="M45.4736 27.4535C45.3634 27.2771 45.1914 27.158 44.9886 27.1095C44.7857 27.061 44.5741 27.0963 44.4021 27.2065L42.2194 28.5691C41.7167 28.9219 41.3066 29.3672 41.0023 29.892C40.9847 29.8787 40.9627 29.8655 40.9406 29.8523L26.2832 20.2527C25.8511 19.9705 25.3396 19.8734 24.8325 19.9793C24.321 20.0851 23.8888 20.3805 23.611 20.8127L21.9707 23.3305C21.5033 24.0405 20.7933 24.5299 19.9687 24.7019C19.1397 24.8739 18.2975 24.7107 17.5964 24.2521L17.4862 24.1772L20.8639 18.9915C21.177 18.5021 21.6311 18.1273 22.1779 17.9112L25.4895 16.5883C26.8873 16.0327 28.4571 16.0989 29.7932 16.7691L33.3385 18.5462C34.9039 19.3267 36.7427 19.2737 38.2816 18.3918L45.2928 12.9107C45.4604 12.7829 45.5618 12.5977 45.5883 12.3904C45.6147 12.1832 45.5574 11.9759 45.4295 11.8172C45.3017 11.6496 45.1165 11.5438 44.9048 11.5173C44.6931 11.4953 44.4903 11.5526 44.3316 11.6761L37.4482 17.0646C36.3899 17.6554 35.1112 17.6863 34.0352 17.1483L30.49 15.3713C28.7526 14.4982 26.7198 14.4144 24.9075 15.1376L21.5915 16.4604C21.1593 16.6324 20.7448 16.8882 20.3612 17.2189C19.2147 17.1086 18.0682 17.3115 17.0408 17.8098C16.3794 18.1361 15.5812 18.092 14.9727 17.6951L6.32557 11.6584C6.15359 11.5394 5.94635 11.4909 5.74351 11.5261C5.53626 11.5614 5.35987 11.6761 5.24082 11.848C5.12176 12.02 5.07325 12.2273 5.10853 12.4301C5.14381 12.6374 5.25845 12.8137 5.43043 12.9328L14.0996 18.9871C15.1756 19.6882 16.5646 19.772 17.7199 19.212C18.1476 19.0048 18.615 18.8681 19.1133 18.8019L16.0795 23.4584C15.6606 24.1022 15.8414 24.9709 16.4852 25.3942L16.7277 25.553C17.7904 26.2453 19.0471 26.479 20.2774 26.2232C21.5121 25.963 22.5748 25.2355 23.2627 24.1772L24.903 21.6593C24.9604 21.5711 25.0397 21.5182 25.1412 21.4962C25.2382 21.4741 25.3352 21.4917 25.419 21.5491L40.0587 31.1266C40.2924 31.281 40.4776 31.475 40.6011 31.7131C40.7334 31.96 40.8039 32.2334 40.8039 32.5112C40.8039 32.8331 40.7113 33.1418 40.5349 33.4152C40.0455 34.1692 39.0225 34.3809 38.2596 33.8958L30.8074 29.0145C30.6928 28.9395 30.5605 28.8954 30.4106 28.891C30.1989 28.8734 29.9917 28.9527 29.8329 29.1115C29.7977 29.1423 29.7668 29.182 29.7315 29.2393C29.6169 29.4157 29.5772 29.623 29.6169 29.8258C29.661 30.0287 29.78 30.205 29.952 30.3153L36.0857 34.3324C36.4429 34.5661 36.6898 34.9277 36.778 35.351C36.8662 35.7743 36.7868 36.202 36.5531 36.5592L36.4825 36.665C36.0063 37.397 35.0142 37.6131 34.2734 37.1501L27.734 33.0448C27.6943 33.0183 27.6634 33.0051 27.6326 32.9919C27.6282 32.9919 27.5929 32.9698 27.5841 32.9698C27.3195 32.8684 27.0108 32.9257 26.7947 33.1154C26.7771 33.1286 26.7639 33.1506 26.7551 33.1727C26.7374 33.1815 26.7242 33.1947 26.711 33.208L26.6625 33.2565C26.6625 33.2565 26.6316 33.2961 26.6228 33.3226C26.614 33.3535 26.6095 33.3579 26.6051 33.3667C26.5963 33.3755 26.5743 33.4196 26.5699 33.4328C26.561 33.4593 26.5522 33.4946 26.5478 33.5122C26.539 33.5387 26.539 33.5519 26.5302 33.5695C26.5214 33.596 26.5169 33.6269 26.5214 33.6577C26.5214 33.6577 26.5214 33.6798 26.5302 33.6886C26.5258 33.6754 26.5214 33.6621 26.5214 33.6621V33.7151C26.5125 33.7591 26.5214 33.79 26.5214 33.8165C26.5214 33.8165 26.5258 33.8562 26.5302 33.8606C26.539 33.9091 26.5522 33.9355 26.5566 33.9443C26.5699 33.9973 26.5743 34.0149 26.5919 34.0502L26.6933 34.2089C26.7154 34.2398 26.733 34.2574 26.7506 34.2795C26.7551 34.2839 26.7992 34.3192 26.8036 34.3236C26.8256 34.3456 26.8433 34.3633 26.8697 34.3809L31.7114 37.4323C32.0818 37.6616 32.3332 38.0276 32.4258 38.4509C32.5139 38.8742 32.4346 39.3108 32.2009 39.6724C31.9539 40.0428 31.5879 40.2897 31.1646 40.3735C30.7369 40.4617 30.3003 40.3735 29.9432 40.1266L27.9015 38.7464C27.7825 38.6449 27.659 38.5435 27.5311 38.4553L23.7742 35.9551C23.7742 35.9551 23.7301 35.9287 23.7125 35.9242C23.6684 35.9022 23.6507 35.8978 23.6287 35.8934L23.5008 35.8625C23.4743 35.8625 23.4479 35.8625 23.4347 35.8581H23.3685C23.3244 35.8537 23.2847 35.8581 23.2318 35.8669C23.223 35.8669 23.1921 35.8757 23.1833 35.8757C23.1569 35.8846 23.1216 35.8934 23.0907 35.9066L23.0334 35.9331C23.0334 35.9331 22.9937 35.9595 22.9761 35.9772C22.954 35.9816 22.932 35.9948 22.9143 36.008C22.8967 36.0213 22.8791 36.0345 22.8658 36.0521C22.8614 36.0565 22.835 36.0786 22.8306 36.0874C22.8129 36.105 22.7909 36.1315 22.76 36.1712L22.7115 36.2505C22.685 36.2902 22.6718 36.3167 22.6586 36.352L22.6409 36.4093C22.6277 36.4402 22.6233 36.4578 22.6189 36.4798C22.6189 36.4887 22.6101 36.5901 22.6101 36.5989C22.6101 36.6474 22.6101 36.6783 22.6101 36.7136C22.6101 36.7224 22.6189 36.7753 22.6189 36.7841L22.6365 36.8502C22.6453 36.8899 22.6498 36.9076 22.6762 36.9561L22.6983 37.0046L22.7203 37.0531C22.7379 37.0884 22.7644 37.1148 22.7997 37.1325L22.7909 37.1413C22.7909 37.1413 22.8173 37.1766 22.8261 37.181C22.8438 37.1986 22.8614 37.2118 22.8746 37.2207L26.8918 39.9502C27.1475 40.2103 27.3063 40.5146 27.3636 40.8497C27.4385 41.2951 27.3283 41.7449 27.0593 42.1153C26.5302 42.8164 25.5512 42.9839 24.8237 42.4989L13.9188 35.2275C12.9399 34.5705 12.2741 33.5739 12.0404 32.423C11.6435 30.4387 10.2854 28.8028 8.40688 28.0532L6.15359 27.1536C5.76114 27.0037 5.29814 27.2021 5.14381 27.5902C4.98947 27.987 5.18349 28.4412 5.58035 28.6L7.83364 29.4995C9.22706 30.0595 10.2324 31.2677 10.5235 32.7361C10.8365 34.3015 11.7405 35.6508 13.0634 36.5328L23.9638 43.7997C24.493 44.1525 25.1103 44.3377 25.7453 44.3377C26.7506 44.3377 27.7119 43.857 28.316 43.0501C28.6953 42.5474 28.9113 41.9565 28.9554 41.3392L29.0745 41.4186C29.5992 41.7757 30.2122 41.9653 30.8427 41.9653C31.0588 41.9653 31.2749 41.9433 31.4777 41.9036C32.3155 41.7316 33.0387 41.2422 33.5105 40.5234C33.85 40.0031 34.0264 39.3946 34.022 38.7684C35.4331 39.2755 36.9632 38.7728 37.7657 37.5337L37.8363 37.4279C38.189 36.8943 38.3654 36.2726 38.3478 35.6288C38.6035 35.6949 38.8681 35.7258 39.1283 35.7258C40.2219 35.7258 41.2272 35.1834 41.8225 34.2707C42.1621 33.7503 42.3429 33.1418 42.3429 32.5156C42.3429 32.1188 42.2635 31.7131 42.0915 31.281C42.2635 30.6989 42.6118 30.1962 43.0704 29.8743L45.2179 28.5338C45.5795 28.3089 45.6941 27.8283 45.4736 27.4623V27.4535Z" fill="#7066FF"/>
<path d="M17.0109 12.8404C17.152 12.9815 17.3504 13.0609 17.5621 13.0609C17.7693 13.0609 17.9721 12.9815 18.1088 12.8404C18.2588 12.6905 18.3381 12.4964 18.3381 12.2848C18.3381 12.0775 18.2544 11.8835 18.1088 11.738L16.1598 9.78896C15.8688 9.49352 15.3529 9.49352 15.0574 9.78896C14.9075 9.93889 14.8281 10.1329 14.8281 10.3446C14.8281 10.5518 14.9119 10.7458 15.0574 10.8914L17.0064 12.836L17.0109 12.8404Z" fill="#7066FF"/>
<path d="M33.1321 13.0656C33.3437 13.0656 33.5421 12.9863 33.6788 12.8452L35.6279 10.8961C35.7778 10.7462 35.8572 10.5522 35.8572 10.3405C35.8572 10.1333 35.7734 9.93927 35.6279 9.79375C35.4779 9.64382 35.2839 9.56445 35.0767 9.56445C34.8694 9.56445 34.6754 9.64823 34.5299 9.79375L32.5809 11.7428C32.4309 11.8927 32.3516 12.0867 32.3516 12.2984C32.3516 12.5056 32.4353 12.6996 32.5809 12.8452C32.722 12.9863 32.9248 13.0656 33.1321 13.0656Z" fill="#7066FF"/>
<path d="M25.3449 10.151C25.7727 10.151 26.1254 9.80266 26.1254 9.37052V6.45139C26.1254 6.02366 25.7771 5.6709 25.3449 5.6709C24.9128 5.6709 24.5645 6.01925 24.5645 6.45139V9.37052C24.5645 9.79825 24.9128 10.151 25.3449 10.151Z" fill="#7066FF"/>
</svg>
