<svg width="24" height="25" viewBox="0 0 24 25" fill="none" xmlns="http://www.w3.org/2000/svg">
<path d="M10.5502 3.25003C6.69782 3.25697 4.6805 3.35155 3.39128 4.64076C2 6.03205 2 8.27128 2 12.7497C2 17.2282 2 19.4674 3.39128 20.8587C4.78257 22.25 7.0218 22.25 11.5003 22.25C15.9787 22.25 18.218 22.25 19.6093 20.8587C20.8985 19.5695 20.9931 17.5522 21 13.6998" stroke="#00193C" stroke-width="2" stroke-linecap="round" stroke-linejoin="round"/>
<path d="M11.0556 13.25C10.3322 4.11638 16.8023 1.52557 21.9805 2.41442C22.1896 5.44139 20.7085 6.57485 17.8879 7.09828C18.4326 7.66739 19.395 8.38357 19.2912 9.27882C19.2173 9.91589 18.7846 10.2285 17.9194 10.8536C16.0231 12.2236 13.8264 13.0875 11.0556 13.25Z" stroke="#00193C" stroke-width="2" stroke-linecap="round" stroke-linejoin="round"/>
<path d="M9 17.25C11 11.75 12.9604 9.88639 15 8.25003" stroke="#00193C" stroke-width="2" stroke-linecap="round" stroke-linejoin="round"/>
</svg>
