<svg width="21" height="20" viewBox="0 0 21 20" fill="none" xmlns="http://www.w3.org/2000/svg">
<path d="M19.8013 18.4794L15.1073 13.7862C16.4678 12.1528 17.1462 10.0578 17.0014 7.93692C16.8566 5.81605 15.8998 3.83266 14.3299 2.39933C12.76 0.965999 10.6979 0.193093 8.57263 0.241393C6.44738 0.289692 4.42256 1.15548 2.91939 2.65865C1.41622 4.16182 0.550435 6.18664 0.502135 8.31189C0.453835 10.4371 1.22674 12.4992 2.66007 14.0691C4.0934 15.639 6.0768 16.5959 8.19766 16.7407C10.3185 16.8855 12.4136 16.2071 14.047 14.8465L18.7401 19.5406C18.8098 19.6103 18.8925 19.6656 18.9836 19.7033C19.0746 19.741 19.1722 19.7604 19.2707 19.7604C19.3693 19.7604 19.4669 19.741 19.5579 19.7033C19.6489 19.6656 19.7317 19.6103 19.8013 19.5406C19.871 19.4709 19.9263 19.3882 19.964 19.2972C20.0017 19.2061 20.0211 19.1085 20.0211 19.01C20.0211 18.9114 20.0017 18.8139 19.964 18.7228C19.9263 18.6318 19.871 18.549 19.8013 18.4794ZM2.02072 8.50998C2.02072 7.17496 2.4166 5.86991 3.1583 4.75988C3.9 3.64985 4.95421 2.78468 6.18761 2.27379C7.42101 1.7629 8.77821 1.62923 10.0876 1.88968C11.397 2.15013 12.5997 2.793 13.5437 3.73701C14.4877 4.68101 15.1306 5.88375 15.391 7.19312C15.6515 8.50249 15.5178 9.85969 15.0069 11.0931C14.496 12.3265 13.6309 13.3807 12.5208 14.1224C11.4108 14.8641 10.1057 15.26 8.77072 15.26C6.98112 15.258 5.26538 14.5462 3.99994 13.2808C2.7345 12.0153 2.02271 10.2996 2.02072 8.50998Z" fill="#00193C"/>
</svg>
