<svg width="20" height="20" viewBox="0 0 20 20" fill="none" xmlns="http://www.w3.org/2000/svg">
<path fill-rule="evenodd" clip-rule="evenodd" d="M10.5902 2.95046C11.4519 2.11744 12.606 1.6565 13.804 1.66692C15.0019 1.67734 16.1479 2.15829 16.995 3.00617C17.8421 3.85406 18.3226 5.00104 18.333 6.20009C18.3434 7.39913 17.8829 8.5543 17.0506 9.4168L17.0414 9.42624L14.757 11.7127C14.757 11.7127 14.757 11.7127 14.757 11.7127C14.2938 12.1764 13.7364 12.5351 13.1226 12.7643C12.5087 12.9935 11.8528 13.0879 11.1993 13.041C10.5459 12.9942 9.91008 12.8072 9.33513 12.4928C8.76019 12.1784 8.25953 11.7439 7.8671 11.2188C7.6152 10.8817 7.68399 10.4041 8.02076 10.1519C8.35753 9.8998 8.83474 9.96866 9.08664 10.3057C9.34826 10.6558 9.68203 10.9455 10.0653 11.1551C10.4486 11.3647 10.8725 11.4893 11.3081 11.5205C11.7438 11.5518 12.1811 11.4889 12.5903 11.3361C12.9995 11.1833 13.3711 10.9442 13.6799 10.635L15.9595 8.35327C16.5116 7.77877 16.817 7.0106 16.8101 6.21333C16.8032 5.41397 16.4828 4.64931 15.9181 4.08406C15.3533 3.5188 14.5894 3.19817 13.7907 3.19122C12.9938 3.18429 12.226 3.49024 11.652 4.04331L10.3463 5.34253C10.0481 5.63931 9.56596 5.6379 9.26945 5.33939C8.97294 5.04087 8.97435 4.55829 9.27259 4.26151L10.5823 2.95818L10.5902 2.95046ZM6.87711 7.23587C7.49095 7.00668 8.14685 6.91231 8.80034 6.95915C9.45382 7.006 10.0896 7.19296 10.6645 7.50737C11.2395 7.82177 11.7401 8.25627 12.1326 8.78137C12.3845 9.11845 12.3157 9.59609 11.9789 9.84823C11.6421 10.1004 11.1649 10.0315 10.913 9.69443C10.6514 9.34436 10.3176 9.0547 9.93435 8.8451C9.55105 8.63549 9.1272 8.51085 8.69154 8.47962C8.25589 8.44839 7.81862 8.51131 7.40939 8.6641C7.00017 8.81689 6.62856 9.05599 6.31977 9.36517L4.04016 11.6469C3.48806 12.2214 3.18266 12.9896 3.18959 13.7868C3.19652 14.5862 3.51686 15.3509 4.0816 15.9161C4.64634 16.4814 5.4103 16.802 6.20893 16.8089C7.00549 16.8159 7.77297 16.5102 8.34696 15.9576L9.64414 14.6592C9.94152 14.3616 10.4237 14.3616 10.721 14.6592C11.0184 14.9569 11.0184 15.4394 10.721 15.7371L9.41891 17.0404L9.40947 17.0497C8.54776 17.8827 7.39365 18.3437 6.1957 18.3332C4.99775 18.3228 3.85181 17.8419 3.0047 16.994C2.15759 16.1461 1.67709 14.9991 1.66668 13.8001C1.65627 12.601 2.11679 11.4459 2.94905 10.5834L2.95832 10.5739L5.24267 8.28748C5.24271 8.28745 5.24264 8.28751 5.24267 8.28748C5.70584 7.82375 6.26331 7.46505 6.87711 7.23587Z" fill="#001433"/>
</svg>
