<svg width="51" height="51" viewBox="0 0 51 51" fill="none" xmlns="http://www.w3.org/2000/svg">
<path d="M41.5417 7.21826H10.2917C9.56655 7.21826 8.87105 7.50635 8.35825 8.01914C7.84546 8.53194 7.55737 9.22744 7.55737 9.95264V41.2026C7.55737 41.9278 7.84546 42.6233 8.35825 43.1361C8.87105 43.6489 9.56655 43.937 10.2917 43.937H41.5417C42.2669 43.937 42.9624 43.6489 43.4752 43.1361C43.988 42.6233 44.2761 41.9278 44.2761 41.2026V9.95264C44.2761 9.22744 43.988 8.53194 43.4752 8.01914C42.9624 7.50635 42.2669 7.21826 41.5417 7.21826ZM18.1042 31.437C18.4905 31.437 18.8682 31.5516 19.1893 31.7662C19.5105 31.9808 19.7609 32.2858 19.9087 32.6427C20.0565 32.9996 20.0952 33.3923 20.0198 33.7712C19.9445 34.15 19.7585 34.4981 19.4853 34.7712C19.2122 35.0444 18.8642 35.2304 18.4853 35.3057C18.1064 35.3811 17.7137 35.3424 17.3568 35.1946C16.9999 35.0468 16.6949 34.7964 16.4803 34.4752C16.2657 34.154 16.1511 33.7764 16.1511 33.3901C16.1511 32.8721 16.3569 32.3753 16.7232 32.0091C17.0895 31.6428 17.5862 31.437 18.1042 31.437ZM9.90112 41.2026V9.95264C9.90112 9.84904 9.94228 9.74968 10.0155 9.67642C10.0888 9.60317 10.1881 9.56201 10.2917 9.56201H16.9324V29.2573C15.9346 29.5402 15.0727 30.1744 14.5059 31.0429C13.9391 31.9114 13.7055 32.9556 13.8483 33.9829C13.9911 35.0101 14.5006 35.9511 15.2828 36.6321C16.065 37.3131 17.0671 37.6882 18.1042 37.6882C19.1414 37.6882 20.1435 37.3131 20.9257 36.6321C21.7079 35.9511 22.2174 35.0101 22.3602 33.9829C22.503 32.9556 22.2694 31.9114 21.7026 31.0429C21.1358 30.1744 20.2739 29.5402 19.2761 29.2573V22.1577L29.4324 32.314V41.5933H10.2917C10.1881 41.5933 10.0888 41.5521 10.0155 41.4789C9.94228 41.4056 9.90112 41.3062 9.90112 41.2026ZM41.9324 41.2026C41.9324 41.3062 41.8912 41.4056 41.818 41.4789C41.7447 41.5521 41.6453 41.5933 41.5417 41.5933H31.7761V31.8276C31.7759 31.5169 31.6522 31.2191 31.4324 30.9995L19.2761 18.8413V9.56201H26.3074V14.6401C26.3076 14.9508 26.4313 15.2487 26.6511 15.4683L29.9714 18.7886C29.4657 19.6941 29.3046 20.752 29.5178 21.767C29.731 22.7821 30.3041 23.6857 31.1315 24.3113C31.9588 24.9368 32.9845 25.2419 34.0192 25.1704C35.0539 25.0989 36.0278 24.6555 36.7612 23.9221C37.4946 23.1887 37.938 22.2148 38.0095 21.1801C38.081 20.1454 37.7759 19.1197 37.1504 18.2923C36.5249 17.465 35.6212 16.8919 34.6061 16.6787C33.5911 16.4654 32.5332 16.6266 31.6277 17.1323L28.6511 14.1538V9.56201H41.5417C41.6453 9.56201 41.7447 9.60317 41.818 9.67642C41.8912 9.74968 41.9324 9.84904 41.9324 9.95264V41.2026ZM33.7292 18.937C34.1155 18.937 34.4932 19.0516 34.8143 19.2662C35.1355 19.4808 35.3859 19.7858 35.5337 20.1427C35.6815 20.4996 35.7202 20.8923 35.6448 21.2712C35.5695 21.65 35.3835 21.9981 35.1103 22.2712C34.8372 22.5444 34.4892 22.7304 34.1103 22.8057C33.7314 22.8811 33.3387 22.8424 32.9818 22.6946C32.6249 22.5468 32.3199 22.2964 32.1053 21.9752C31.8907 21.654 31.7761 21.2764 31.7761 20.8901C31.7761 20.3721 31.9819 19.8754 32.3482 19.5091C32.7145 19.1428 33.2112 18.937 33.7292 18.937Z" fill="#002D55"/>
</svg>
