<svg width="77" height="76" viewBox="0 0 77 76" fill="none" xmlns="http://www.w3.org/2000/svg">
<path d="M67.1605 6.30998C66.9505 6.09998 66.6605 5.97998 66.3605 5.97998H51.8605C51.2405 5.97998 50.7305 6.48998 50.7305 7.10998V68.34C50.7305 68.64 50.8505 68.92 51.0605 69.14C51.2705 69.35 51.5605 69.47 51.8605 69.47H66.3605C66.6505 69.47 66.9505 69.35 67.1605 69.14C67.3705 68.93 67.4905 68.64 67.4905 68.34V7.11998C67.4905 6.81998 67.3705 6.52998 67.1605 6.31998V6.30998ZM58.8405 62.4C58.8405 61.79 58.3605 61.29 57.7405 61.27H52.9905V55.3H57.7405C58.3605 55.3 58.8705 54.79 58.8705 54.17C58.8705 53.55 58.3605 53.04 57.7405 53.04H52.9905V47.07H57.7405C58.3405 47.05 58.8305 46.55 58.8305 45.94C58.8305 45.33 58.3505 44.83 57.7305 44.81H52.9805V38.84H57.7305C58.3405 38.82 58.8205 38.32 58.8205 37.71C58.8205 37.1 58.3405 36.6 57.7205 36.58H52.9705V30.61H57.7205C58.3305 30.59 58.8105 30.09 58.8105 29.48C58.8105 28.87 58.3305 28.37 57.7105 28.35H52.9605V22.38H57.7105C58.3205 22.36 58.8005 21.86 58.8005 21.25C58.8005 20.64 58.3205 20.14 57.7005 20.12H52.9505V14.15H57.7005C58.3105 14.13 58.7905 13.63 58.7905 13.02C58.7905 12.41 58.3105 11.91 57.6905 11.89H52.9405V8.21998H65.1705V67.19H52.9405V63.51H57.6905C58.3005 63.49 58.7805 62.99 58.7805 62.38L58.8405 62.4Z" fill="black"/>
<path d="M22.0288 27.2099C22.0288 27.1299 22.0187 27.0699 21.9987 26.9899L16.8387 12.1199C16.6787 11.6699 16.2488 11.3599 15.7688 11.3599C15.2888 11.3599 14.8588 11.6699 14.6988 12.1199L9.52875 26.9999C9.50875 27.0599 9.49875 27.1199 9.50875 27.1599C9.48875 27.2199 9.47875 27.2799 9.46875 27.3599V64.9499C9.46875 67.5599 11.5987 69.6899 14.2087 69.6899H17.3187C19.9287 69.6899 22.0587 67.5599 22.0587 64.9499V27.3299C22.0587 27.3299 22.0388 27.2299 22.0288 27.2099ZM12.1788 26.2299L15.7587 15.9299L19.3387 26.2299H12.1788ZM19.7988 64.9599C19.7988 66.3299 18.6887 67.4399 17.3187 67.4399H14.2087C12.8387 67.4399 11.7288 66.3199 11.7288 64.9599V28.4899H19.7988V64.9599Z" fill="black"/>
<path d="M39.4101 15.7798C39.2801 15.6098 39.1201 15.4698 38.9101 15.3898C38.7801 15.3298 38.6401 15.2998 38.4701 15.2998C38.3001 15.2998 38.1201 15.3498 37.9201 15.4598C37.7901 15.5398 37.6701 15.6498 37.6101 15.7398L29.5301 27.4598C29.3301 27.7498 29.2801 28.1098 29.3801 28.4498L31.9501 36.4898C32.0001 36.6198 32.0701 36.7398 32.1601 36.8598V64.9598C32.1601 67.5698 34.2901 69.6998 36.9001 69.6998H40.0101C42.6201 69.6998 44.7501 67.5798 44.7501 64.9598V36.3298L47.5801 28.3398C47.7001 27.9898 47.6501 27.6198 47.4401 27.3198L39.4201 15.7898L39.4101 15.7798ZM42.6901 64.9598H42.4901C42.4901 66.3298 41.3701 67.4398 40.0101 67.4398H36.9001C35.5301 67.4398 34.4201 66.3198 34.4201 64.9598V37.2698H42.5001V64.9498H42.7001L42.6901 64.9598ZM40.0501 29.7798C39.4101 30.4198 38.4201 30.6198 37.5801 30.2698C36.7301 29.9198 36.1801 29.0998 36.1801 28.1798C36.1801 26.9298 37.2001 25.9198 38.4401 25.9198C39.3601 25.9198 40.1801 26.4698 40.5301 27.3098C40.8801 28.1598 40.6901 29.1298 40.0401 29.7798H40.0501ZM37.3501 23.7998C35.1701 24.3398 33.7101 26.3898 33.9301 28.6498C34.1601 30.9598 36.0801 32.7198 38.4401 32.7398C40.7401 32.7398 42.6701 31.0198 42.9401 28.7398C43.2001 26.4998 41.8001 24.4298 39.6101 23.8298V20.0198L45.2501 28.1298L42.8201 35.0098H33.8401L31.7001 28.2898L37.3501 20.0798V23.7998Z" fill="black"/>
</svg>
