<svg xmlns="http://www.w3.org/2000/svg" width="450" height="110" viewBox="0 0 450 110" fill="none">
<path d="M212.336 30.7287H225.689V23.4334C225.689 9.43227 232.293 2.13696 247.097 2.13696H262.554V16.5802H249.201C243.976 16.5802 241.727 18.8646 241.727 24.1703V30.7287H262.554V45.1719H242.017V108.619H225.689V45.1719H212.336V30.7287Z" fill="#1D1D1D"/>
<path d="M273.802 2.06348H289.985V108.619H273.802V2.06348Z" fill="#1D1D1D"/>
<path d="M367.416 58.0678V108.619H353.338L351.959 97.4919C346.734 104.493 339.332 109.503 327.213 109.503C310.45 109.503 299.201 101.103 299.201 86.6595C299.201 70.6688 310.595 61.6786 332.22 61.6786H351.378V56.9624C351.378 48.267 345.21 42.9613 334.615 42.9613C325.036 42.9613 318.577 47.5301 317.344 54.3833H301.451C303.12 39.1295 315.965 29.6971 335.341 29.6971C355.66 29.7708 367.416 39.719 367.416 58.0678ZM351.378 76.7114V73.9848H331.277C321.262 73.9848 315.675 77.8167 315.675 85.7015C315.675 92.26 321.045 96.8287 329.898 96.8287C343.396 96.755 351.161 88.7228 351.378 76.7114Z" fill="#1D1D1D"/>
<path d="M377.721 9.87446C377.721 4.05295 382.075 0 387.59 0C393.106 0 397.46 4.12664 397.46 9.87446C397.46 15.6223 393.106 19.7489 387.59 19.7489C382.075 19.7489 377.721 15.6223 377.721 9.87446ZM379.39 30.7287H395.573V108.693H379.39V30.7287Z" fill="#1D1D1D"/>
<path d="M450 30.7286V46.0562H442.816C428.447 46.0562 423.802 57.4781 423.802 69.4896V108.619H407.62V30.7286H421.988L423.802 42.4453C427.721 35.8869 433.817 30.7286 446.444 30.7286H450Z" fill="#1D1D1D"/>
<path d="M69.9566 2.06348H174.964V37.5821L157.402 55.3413H122.424V19.8228H52.4675L69.9566 2.06348Z" fill="#FF9822"/>
<path d="M113.716 28.7391V64.2577L96.2265 82.017H61.2482V46.4984H26.27L43.7591 28.7391H113.716Z" fill="#196879"/>
<path d="M0 73.1006L17.4891 55.3413H52.4673V90.8599L34.9782 108.619H0V73.1006Z" fill="#FD553E"/>
</svg>