<svg width="51" height="51" viewBox="0 0 51 51" fill="none" xmlns="http://www.w3.org/2000/svg">
<path d="M46.0625 24.4058H42.502C42.3536 22.255 41.7906 20.1532 40.8438 18.2163L43.9277 16.437C44.1971 16.2816 44.3937 16.0256 44.4743 15.7252C44.5549 15.4249 44.5128 15.1048 44.3574 14.8354C44.202 14.5661 43.946 14.3695 43.6456 14.2889C43.3453 14.2083 43.0252 14.2504 42.7559 14.4058L39.6699 16.187C38.462 14.4029 36.9247 12.8657 35.1406 11.6577L36.9219 8.57178C37.0773 8.30242 37.1193 7.98236 37.0387 7.68201C36.9581 7.38165 36.7615 7.12562 36.4922 6.97021C36.2228 6.81481 35.9028 6.77278 35.6024 6.85336C35.3021 6.93395 35.046 7.13054 34.8906 7.3999L33.1113 10.4839C31.1745 9.53707 29.0727 8.97399 26.9219 8.82568V5.26514C26.9219 4.95434 26.7984 4.65627 26.5786 4.4365C26.3589 4.21673 26.0608 4.09326 25.75 4.09326C25.4392 4.09326 25.1411 4.21673 24.9214 4.4365C24.7016 4.65627 24.5781 4.95434 24.5781 5.26514V8.82568C22.4273 8.97399 20.3255 9.53707 18.3887 10.4839L16.6094 7.3999C16.454 7.13054 16.1979 6.93395 15.8976 6.85336C15.5972 6.77278 15.2772 6.81481 15.0078 6.97021C14.7385 7.12562 14.5419 7.38165 14.4613 7.68201C14.3807 7.98236 14.4227 8.30242 14.5781 8.57178L16.3594 11.6577C14.5753 12.8657 13.038 14.4029 11.8301 16.187L8.74414 14.4058C8.47478 14.2504 8.15472 14.2083 7.85437 14.2889C7.55402 14.3695 7.29798 14.5661 7.14258 14.8354C6.98718 15.1048 6.94515 15.4249 7.02573 15.7252C7.10631 16.0256 7.30291 16.2816 7.57227 16.437L10.6562 18.2163C9.70943 20.1532 9.14635 22.255 8.99805 24.4058H5.4375C5.1267 24.4058 4.82863 24.5292 4.60886 24.749C4.38909 24.9688 4.26562 25.2668 4.26562 25.5776C4.26562 25.8884 4.38909 26.1865 4.60886 26.4063C4.82863 26.626 5.1267 26.7495 5.4375 26.7495H8.99805C9.14635 28.9003 9.70943 31.0021 10.6562 32.939L7.57227 34.7183C7.30291 34.8737 7.10631 35.1297 7.02573 35.4301C6.94515 35.7304 6.98718 36.0505 7.14258 36.3198C7.29798 36.5892 7.55402 36.7858 7.85437 36.8664C8.15472 36.9469 8.47478 36.9049 8.74414 36.7495L11.8301 34.9683C13.038 36.7524 14.5753 38.2896 16.3594 39.4976L14.5781 42.5835C14.5012 42.7169 14.4513 42.8641 14.4312 43.0168C14.4112 43.1694 14.4214 43.3246 14.4613 43.4733C14.5012 43.622 14.57 43.7614 14.6638 43.8835C14.7575 44.0056 14.8744 44.1081 15.0078 44.1851C15.1412 44.262 15.2884 44.3119 15.4411 44.332C15.5937 44.352 15.7489 44.3418 15.8976 44.3019C16.0463 44.262 16.1857 44.1932 16.3078 44.0994C16.43 44.0057 16.5324 43.8887 16.6094 43.7554L18.3887 40.6714C20.3255 41.6182 22.4273 42.1813 24.5781 42.3296V45.8901C24.5781 46.2009 24.7016 46.499 24.9214 46.7188C25.1411 46.9385 25.4392 47.062 25.75 47.062C26.0608 47.062 26.3589 46.9385 26.5786 46.7188C26.7984 46.499 26.9219 46.2009 26.9219 45.8901V42.3296C29.0727 42.1813 31.1745 41.6182 33.1113 40.6714L34.8906 43.7554C34.9937 43.9339 35.1421 44.0821 35.3207 44.185C35.4994 44.2879 35.702 44.3418 35.9082 44.3413C36.1141 44.3416 36.3164 44.287 36.4941 44.1831C36.7631 44.0278 36.9594 43.7721 37.04 43.4722C37.1206 43.1723 37.0788 42.8526 36.9238 42.5835L35.1426 39.4976C36.9267 38.2896 38.4639 36.7524 39.6719 34.9683L42.7578 36.7495C42.8912 36.8265 43.0384 36.8764 43.1911 36.8964C43.3437 36.9165 43.4989 36.9063 43.6476 36.8664C43.7963 36.8265 43.9357 36.7577 44.0578 36.6639C44.18 36.5701 44.2824 36.4532 44.3594 36.3198C44.4363 36.1865 44.4862 36.0392 44.5063 35.8866C44.5263 35.7339 44.5161 35.5788 44.4762 35.4301C44.4363 35.2813 44.3675 35.1419 44.2738 35.0198C44.18 34.8977 44.0631 34.7952 43.9297 34.7183L40.8457 32.939C41.7918 31.002 42.3543 28.9002 42.502 26.7495H46.0625C46.3733 26.7495 46.6714 26.626 46.8911 26.4063C47.1109 26.1865 47.2344 25.8884 47.2344 25.5776C47.2344 25.2668 47.1109 24.9688 46.8911 24.749C46.6714 24.5292 46.3733 24.4058 46.0625 24.4058ZM17.5469 37.4604C15.6221 36.1333 14.0485 34.3584 12.9614 32.2885C11.8744 30.2186 11.3064 27.9156 11.3064 25.5776C11.3064 23.2396 11.8744 20.9366 12.9614 18.8667C14.0485 16.7968 15.6221 15.022 17.5469 13.6948L24.3965 25.5776L17.5469 37.4604ZM25.75 40.0308C23.61 40.0328 21.4966 39.5563 19.5645 38.6362L26.4258 26.7495H40.1523C39.8541 30.3659 38.2081 33.7382 35.5405 36.1981C32.873 38.658 29.3786 40.0259 25.75 40.0308ZM26.4258 24.4058L19.5645 12.519C21.677 11.5167 24.0013 11.0423 26.3377 11.1365C28.6741 11.2307 30.9527 11.8907 32.9776 13.0598C35.0026 14.229 36.7135 15.8723 37.9632 17.8486C39.213 19.8249 39.9642 22.0751 40.1523 24.4058H26.4258Z" fill="#002D55"/>
</svg>
