<svg width="77" height="77" viewBox="0 0 77 77" fill="none" xmlns="http://www.w3.org/2000/svg">
<path d="M22.469 36.9702C27.849 36.9702 32.229 32.5902 32.229 27.2102C32.229 21.8302 27.849 17.4502 22.469 17.4502C17.089 17.4502 12.709 21.8302 12.709 27.2102C12.709 32.5902 17.089 36.9702 22.469 36.9702ZM22.469 19.6602C24.489 19.6602 26.379 20.4502 27.809 21.8702C30.749 24.8102 30.749 29.6002 27.809 32.5402C26.389 33.9602 24.489 34.7502 22.469 34.7502C20.449 34.7502 18.559 33.9602 17.129 32.5402C15.699 31.1202 14.919 29.2202 14.919 27.2002C14.919 25.1802 15.709 23.2902 17.129 21.8602C18.549 20.4302 20.449 19.6502 22.469 19.6502V19.6602Z" fill="black"/>
<path d="M35.5989 44.2304L39.4989 40.3304C39.8389 39.9904 39.9189 39.4504 39.6789 39.0204L37.4189 34.9304C37.8589 34.0804 38.2189 33.2204 38.5089 32.3104L42.8989 31.0404C43.4189 30.9404 43.7889 30.4804 43.7889 29.9604V24.1004H43.7289C43.6189 23.7604 43.3389 23.4904 42.9889 23.3904L38.5089 22.0904C38.2189 21.1804 37.8589 20.3204 37.4189 19.4704L39.6389 15.4404C39.9189 15.0004 39.8489 14.4404 39.4889 14.0704L35.5889 10.1704C35.2489 9.83037 34.7089 9.75037 34.2789 9.99037L30.1889 12.2504C29.3389 11.8104 28.4789 11.4504 27.5689 11.1604L26.2989 6.77037C26.1989 6.25037 25.7389 5.88037 25.2189 5.88037H19.3589V5.94037C19.0189 6.05037 18.7489 6.33037 18.6489 6.68037L17.3489 11.1604C16.4389 11.4504 15.5789 11.8004 14.7289 12.2504L10.6989 10.0304C10.2689 9.76037 9.68891 9.82037 9.32891 10.1804L5.42891 14.0804C5.07891 14.4304 5.00891 14.9704 5.23891 15.3904L7.49891 19.4804C7.05891 20.3404 6.69891 21.2004 6.40891 22.1004L2.01891 23.3704C1.49891 23.4704 1.12891 23.9304 1.12891 24.4504V29.9804L1.14891 30.1804C1.22891 30.5804 1.51891 30.9004 1.91891 31.0104L6.40891 32.3104C6.69891 33.2304 7.05891 34.0904 7.48891 34.9304L5.26891 38.9604C4.99891 39.3904 5.05891 39.9704 5.42891 40.3304L9.32891 44.2304C9.67891 44.5804 10.2189 44.6504 10.6389 44.4104L14.7289 42.1504C15.5889 42.5904 16.4489 42.9504 17.3489 43.2404L18.6189 47.6304C18.7189 48.1504 19.1789 48.5204 19.6989 48.5204H25.5589V48.4604C25.8989 48.3504 26.1689 48.0704 26.2689 47.7204L27.5689 43.2404C28.4689 42.9504 29.3489 42.5904 30.1889 42.1504L34.2189 44.3704C34.6489 44.6404 35.2289 44.5804 35.5889 44.2104L35.5989 44.2304ZM9.72891 35.4804C9.91891 35.1304 9.90891 34.7004 9.69891 34.3704C9.20891 33.5504 8.66891 32.2304 8.36891 31.1404C8.26891 30.7604 7.95891 30.4604 7.58891 30.3704L3.34891 29.1404V25.2804L7.60891 24.0504C7.97891 23.9504 8.25891 23.6604 8.36891 23.2904C8.68891 22.1604 9.14891 21.0304 9.71891 20.0204C9.90891 19.6904 9.90891 19.2804 9.71891 18.9404L7.56891 15.0504L10.2989 12.3204L14.1889 14.4704C14.5389 14.6604 14.9689 14.6504 15.2989 14.4404C16.1289 13.9504 17.4489 13.4104 18.5289 13.1104C18.9089 13.0004 19.2089 12.7004 19.2989 12.3304L20.5189 8.09037H24.3789L25.6089 12.3504C25.7189 12.7204 25.9989 13.0004 26.3689 13.1104C26.9289 13.2704 27.4889 13.4604 28.0389 13.6904C28.5889 13.9204 29.1289 14.1804 29.6289 14.4704C29.9589 14.6604 30.3589 14.6704 30.7089 14.4704L34.5989 12.3204L37.3289 15.0504L35.1789 18.9404C34.9889 19.2904 34.9989 19.7204 35.2089 20.0504C35.6989 20.8804 36.2489 22.2004 36.5389 23.2804C36.6389 23.6604 36.9489 23.9604 37.3189 24.0504L41.5589 25.2704V29.1304L37.2989 30.3604C36.9289 30.4604 36.6489 30.7504 36.5389 31.1204C36.2289 32.2404 35.7589 33.3704 35.1889 34.3804C34.9989 34.7104 34.9889 35.1104 35.1889 35.4604L37.3389 39.3504L34.6089 42.0804L30.7189 39.9304C30.3689 39.7304 29.9389 39.7504 29.6089 39.9604C28.7989 40.4404 27.4689 40.9904 26.3789 41.2904C25.9989 41.3904 25.6989 41.7004 25.5989 42.0704L24.3789 46.3104H20.5189L19.2889 42.0504C19.1889 41.6804 18.8989 41.4004 18.5289 41.2904C17.3989 40.9704 16.2689 40.5004 15.2589 39.9404C14.9289 39.7504 14.5289 39.7404 14.1789 39.9404L10.2889 42.0904L7.55891 39.3604L9.70891 35.4704L9.72891 35.4804Z" fill="black"/>
<path d="M74.6903 43.6202C73.9503 42.8302 72.9603 42.3702 71.8803 42.3302C70.3603 42.2702 69.0203 43.0102 68.2503 44.3202C67.5303 45.5402 67.4903 46.9802 68.1203 48.2102L62.2003 53.6902L50.2803 51.4802L67.5903 35.4502C69.1103 36.3802 71.1203 36.1902 72.4503 34.9602C73.6703 33.8302 74.0703 32.1502 73.4903 30.5902C72.9103 29.0202 71.5203 28.0102 69.8603 27.9502C69.8103 27.9502 69.7503 27.9502 69.7003 27.9502C68.2603 27.9502 66.9703 28.6902 66.2303 29.9402C65.5103 31.1602 65.4703 32.6002 66.1103 33.8302L45.1703 53.2202L43.8803 41.1702L49.8003 35.6902C51.3203 36.6202 53.3303 36.4302 54.6603 35.2002C55.8803 34.0702 56.2803 32.4002 55.7003 30.8302C55.1203 29.2602 53.7303 28.2502 52.0703 28.1902C50.5703 28.1202 49.2103 28.8602 48.4303 30.1802C47.7103 31.4002 47.6703 32.8402 48.3103 34.0702L42.0503 39.8702C41.7503 40.1102 41.6003 40.4702 41.6403 40.8502L43.1603 55.0902L37.1403 60.6702C35.6203 59.7402 33.6003 59.9302 32.2803 61.1602C31.0603 62.2902 30.6603 63.9602 31.2403 65.5302C31.8203 67.1002 33.2103 68.1102 34.8803 68.1802H35.0403C36.4803 68.1802 37.7703 67.4402 38.5103 66.1902C39.2303 64.9702 39.2703 63.5302 38.6403 62.3002L48.2903 53.3702L62.3803 55.9802C62.7403 56.0402 63.1103 55.9302 63.3603 55.6702L69.6503 49.8402C71.1003 50.7302 72.9403 50.6202 74.2703 49.5602L74.2903 49.5802L74.5403 49.3302C75.3503 48.5202 75.7603 47.6102 75.8003 46.5402C75.8403 45.4602 75.4603 44.4302 74.7203 43.6402L74.6903 43.6202ZM70.0503 45.5802C70.3603 44.9202 71.0003 44.5202 71.7403 44.5202C71.7603 44.5202 71.7703 44.5202 71.7903 44.5202C72.5303 44.5502 73.1603 45.0002 73.4303 45.7002C73.7003 46.4002 73.5403 47.1502 73.0103 47.6702C72.9803 47.7002 72.9503 47.7202 72.9303 47.7502C72.5803 48.0602 72.1003 48.2302 71.6403 48.2002C71.1303 48.1802 70.7603 48.0102 70.3103 47.5602C69.8303 47.0102 69.7303 46.2502 70.0403 45.5802H70.0503ZM69.7703 30.1502C70.7803 30.1902 71.5803 31.0502 71.5403 32.0602C71.5103 32.8102 71.0503 33.4502 70.3403 33.7102C69.6303 33.9702 68.8603 33.7902 68.3503 33.2402C67.8403 32.6902 67.7203 31.9102 68.0303 31.2202C68.3403 30.5502 68.9603 30.1502 69.7003 30.1502H69.7703ZM36.8503 64.1802C36.8203 64.9402 36.3603 65.5702 35.6503 65.8302C34.9303 66.0902 34.1703 65.9102 33.6603 65.3602C33.1503 64.8102 33.0203 64.0302 33.3403 63.3402C33.6503 62.6702 34.2703 62.2702 35.0103 62.2702H35.0903C35.5803 62.2902 36.0403 62.5002 36.3703 62.8602C36.7003 63.2202 36.8803 63.6902 36.8603 64.1802H36.8503ZM51.9703 30.3902C52.4603 30.4102 52.9203 30.6202 53.2503 30.9802C53.5803 31.3402 53.7603 31.8102 53.7403 32.3002C53.7103 33.0502 53.2503 33.6902 52.5403 33.9502C51.8203 34.2102 51.0603 34.0302 50.5503 33.4802C50.0403 32.9302 49.9103 32.1502 50.2303 31.4602C50.5403 30.7902 51.1603 30.3902 51.8903 30.3902H51.9703Z" fill="black"/>
</svg>
