<svg width="51" height="51" viewBox="0 0 51 51" fill="none" xmlns="http://www.w3.org/2000/svg">
<path d="M42.0156 23.7478C41.9717 23.5602 41.8823 23.3863 41.7552 23.2415C41.6282 23.0968 41.4674 22.9855 41.2871 22.9177L29.7187 18.5798L32.6484 3.93138C32.6984 3.68137 32.6654 3.42188 32.5546 3.19226C32.4438 2.96265 32.2611 2.77545 32.0343 2.65904C31.8074 2.54264 31.5488 2.5034 31.2977 2.54726C31.0465 2.59112 30.8165 2.71569 30.6425 2.90209L8.76753 26.3396C8.63616 26.4804 8.54153 26.6515 8.49202 26.8376C8.4425 27.0238 8.43964 27.2193 8.48367 27.4068C8.52769 27.5943 8.61726 27.768 8.74445 27.9127C8.87163 28.0573 9.03251 28.1684 9.21284 28.2361L20.7812 32.574L17.8515 47.2224C17.8012 47.4725 17.8339 47.7322 17.9446 47.962C18.0552 48.1918 18.2379 48.3792 18.4648 48.4958C18.6306 48.5802 18.8139 48.6244 19 48.6247C19.1608 48.6247 19.32 48.5916 19.4675 48.5274C19.615 48.4633 19.7477 48.3694 19.8574 48.2517L41.7324 24.8142C41.8635 24.6734 41.9579 24.5024 42.0073 24.3164C42.0567 24.1304 42.0596 23.9351 42.0156 23.7478ZM20.9531 43.6365L23.2675 32.0583C23.3224 31.7856 23.2785 31.5022 23.1436 31.2589C23.0087 31.0155 22.7916 30.8281 22.5312 30.7302L11.6718 26.6579L29.5351 7.51732L27.2265 19.0974C27.1716 19.3702 27.2155 19.6535 27.3504 19.8969C27.4854 20.1402 27.7024 20.3276 27.9628 20.4255L38.8222 24.4978L20.9531 43.6365Z" fill="#002D55"/>
</svg>
