<svg width="76" height="77" viewBox="0 0 76 77" fill="none" xmlns="http://www.w3.org/2000/svg">
<path d="M28.3598 31.97H43.8398C44.4498 31.97 44.9398 31.47 44.9398 30.87V23.13C44.9398 19.48 42.7198 16.24 39.3498 14.91C41.0198 13.82 42.0398 11.96 42.0398 9.94C42.0398 6.66 39.3698 4 36.0998 4C32.8298 4 30.1598 6.67 30.1598 9.94C30.1598 11.95 31.1798 13.81 32.8498 14.91C29.4798 16.24 27.2598 19.48 27.2598 23.13V30.87C27.2598 31.48 27.7598 31.97 28.3598 31.97ZM36.0998 16.49C39.7598 16.49 42.7298 19.47 42.7298 23.12V29.75H29.4598V23.12C29.4598 19.46 32.4298 16.49 36.0898 16.49H36.0998ZM32.3698 9.94C32.3698 7.88 34.0398 6.21 36.0998 6.21C38.1598 6.21 39.8298 7.88 39.8298 9.94C39.8298 12 38.1598 13.67 36.0998 13.67C34.0398 13.67 32.3698 12 32.3698 9.94Z" fill="black"/>
<path d="M63.0295 51.5501C64.6995 50.4601 65.7195 48.6001 65.7195 46.5801C65.7195 43.3001 63.0495 40.6401 59.7795 40.6401C56.5095 40.6401 53.8395 43.3101 53.8395 46.5801C53.8395 48.5901 54.8595 50.4501 56.5295 51.5501C53.1595 52.8801 50.9395 56.1201 50.9395 59.7701V67.5101C50.9395 68.1201 51.4395 68.6101 52.0395 68.6101H67.5195C68.1295 68.6101 68.6195 68.1101 68.6195 67.5101V59.7701C68.6195 56.1201 66.3895 52.8801 63.0295 51.5501ZM59.7695 53.1301C63.4295 53.1301 66.3995 56.1101 66.3995 59.7601V66.3901H53.1295V59.7601C53.1295 56.1001 56.1095 53.1301 59.7595 53.1301H59.7695ZM56.0395 46.5801C56.0395 44.5201 57.7095 42.8501 59.7695 42.8501C61.8295 42.8501 63.4995 44.5201 63.4995 46.5801C63.4995 48.6401 61.8295 50.3101 59.7695 50.3101C57.7095 50.3101 56.0395 48.6401 56.0395 46.5801Z" fill="black"/>
<path d="M17.1486 51.5501C18.8186 50.4601 19.8386 48.6001 19.8386 46.5801C19.8386 43.3001 17.1686 40.6401 13.8986 40.6401C10.6286 40.6401 7.95859 43.3101 7.95859 46.5801C7.95859 48.5901 8.97859 50.4501 10.6486 51.5501C7.27859 52.8801 5.05859 56.1201 5.05859 59.7701V67.5101C5.05859 68.1201 5.55859 68.6101 6.15859 68.6101H21.6386C22.2486 68.6101 22.7386 68.1101 22.7386 67.5101V59.7701C22.7386 56.1201 20.5086 52.8801 17.1486 51.5501ZM13.8986 53.1301C17.5586 53.1301 20.5286 56.1101 20.5286 59.7701V66.4001H7.26859V59.7701C7.26859 56.1101 10.2486 53.1301 13.8986 53.1301ZM10.1686 46.5801C10.1686 44.5201 11.8386 42.8501 13.8986 42.8501C15.9586 42.8501 17.6286 44.5201 17.6286 46.5801C17.6286 48.6401 15.9586 50.3101 13.8986 50.3101C11.8386 50.3101 10.1686 48.6401 10.1686 46.5801Z" fill="black"/>
<path d="M46.5382 66.81C46.2982 66.25 45.6582 65.99 45.0982 66.21C41.6882 67.63 37.9582 68.22 34.2782 67.94L35.3382 67.17C35.8282 66.81 35.9282 66.12 35.5782 65.63C35.2182 65.14 34.5282 65.04 34.0382 65.39L30.7682 67.77C30.5382 67.94 30.3782 68.2 30.3282 68.49C30.2782 68.77 30.3482 69.07 30.5282 69.31L32.9082 72.58C33.1182 72.87 33.4482 73.04 33.8082 73.04C34.0382 73.04 34.2582 72.97 34.4582 72.83C34.9482 72.47 35.0482 71.78 34.6982 71.29L33.8482 70.13C37.9682 70.49 42.1482 69.85 45.9482 68.26C46.2182 68.14 46.4382 67.93 46.5482 67.65C46.6582 67.38 46.6582 67.08 46.5482 66.81H46.5382Z" fill="black"/>
<path d="M36.0996 49.6802C38.8596 49.6802 41.0996 47.4402 41.0996 44.6802C41.0996 41.9202 38.8596 39.6802 36.0996 39.6802C33.3396 39.6802 31.0996 41.9202 31.0996 44.6802C31.0996 47.4402 33.3396 49.6802 36.0996 49.6802ZM33.3096 44.6802C33.3096 43.1402 34.5596 41.8902 36.0996 41.8902C37.6396 41.8902 38.8896 43.1402 38.8896 44.6802C38.8896 46.2202 37.6396 47.4702 36.0996 47.4702C34.5596 47.4702 33.3096 46.2202 33.3096 44.6802Z" fill="black"/>
<path d="M48.8585 25.13C51.9585 27.15 54.5385 29.9 56.3585 33.11L55.1285 32.67C54.8585 32.57 54.5585 32.58 54.2885 32.7C54.0185 32.82 53.8185 33.05 53.7085 33.33C53.6085 33.6 53.6185 33.9 53.7385 34.16C53.8585 34.43 54.0885 34.64 54.3685 34.74L58.1785 36.1C58.2985 36.15 58.4185 36.17 58.5585 36.17C59.0185 36.17 59.4385 35.88 59.5985 35.44L60.9585 31.63C61.0585 31.36 61.0485 31.06 60.9285 30.8C60.8085 30.53 60.5785 30.32 60.2985 30.22C60.0285 30.12 59.7285 30.13 59.4585 30.25C59.1885 30.37 58.9885 30.6 58.8785 30.88L58.3985 32.24C56.3985 28.63 53.5185 25.54 50.0485 23.28C49.8085 23.12 49.5085 23.06 49.2285 23.12C48.9385 23.18 48.6885 23.35 48.5285 23.6C48.3685 23.84 48.3085 24.14 48.3685 24.42C48.4285 24.71 48.5985 24.96 48.8485 25.12L48.8585 25.13Z" fill="black"/>
<path d="M23.3395 23.7601C23.1695 23.5201 22.8995 23.3601 22.6195 23.3201L18.6195 22.6901C18.0195 22.6001 17.4595 23.0101 17.3595 23.6101C17.2695 24.2101 17.6895 24.7701 18.2795 24.8601L19.6995 25.0801C16.5195 27.7401 14.0295 31.1401 12.4595 34.9601C12.3495 35.2301 12.3495 35.5401 12.4595 35.8101C12.5695 36.0801 12.7895 36.2901 13.0495 36.4001C13.1795 36.4601 13.3295 36.4901 13.4695 36.4901C13.9195 36.4901 14.3295 36.2101 14.4895 35.8101C15.8895 32.4001 18.1095 29.3401 20.9195 26.9301L20.7195 28.2201C20.6295 28.8201 21.0495 29.3801 21.6395 29.4701C22.2295 29.5601 22.7995 29.1501 22.8995 28.5501L23.5295 24.5501C23.5795 24.2701 23.4995 23.9701 23.3295 23.7301L23.3395 23.7601Z" fill="black"/>
<path d="M32.4793 52.35L32.9193 52.06L33.0593 52.12L33.1693 52.63C33.3093 53.35 33.9493 53.87 34.6793 53.87H37.5193C38.2493 53.87 38.8793 53.35 39.0293 52.63L39.1193 52.18L39.4993 52.44C40.0993 52.85 40.9093 52.79 41.4393 52.29L43.4893 50.33C44.0193 49.83 44.1193 49.01 43.7293 48.4L43.4493 47.95C43.4493 47.95 43.4893 47.86 43.5093 47.81L44.0293 47.71C44.7493 47.58 45.2793 46.95 45.2893 46.22L45.3293 43.39C45.3393 42.66 44.8293 42.02 44.1193 41.86L43.5993 41.75L43.5393 41.6L43.8293 41.16C44.2293 40.55 44.1593 39.74 43.6493 39.22L41.6593 37.2C41.1493 36.68 40.3293 36.59 39.7193 36.99L39.2793 37.28L39.1393 37.22L39.0293 36.7C38.8893 35.98 38.2493 35.46 37.5193 35.46H34.6893C33.9593 35.46 33.3293 35.98 33.1793 36.7L33.0893 37.15L32.7093 36.89C32.1193 36.47 31.2993 36.53 30.7593 37.04L28.7093 39C28.1793 39.5 28.0793 40.31 28.4693 40.93L28.7493 41.38C28.7493 41.38 28.7093 41.48 28.6893 41.52L28.1693 41.62C27.4493 41.75 26.9193 42.38 26.9093 43.11L26.8693 45.94C26.8593 46.67 27.3693 47.31 28.0793 47.47L28.5993 47.58L28.6593 47.73L28.3593 48.17C27.9593 48.78 28.0293 49.59 28.5393 50.11L30.5293 52.13C31.0493 52.65 31.8693 52.74 32.4693 52.34L32.4793 52.35ZM30.8993 42.05C31.1393 41.56 31.1193 41 30.8293 40.53L30.6393 40.23L31.8993 39.02L32.1893 39.22C32.6393 39.54 33.2093 39.59 33.6993 39.36C33.8493 39.29 34.0093 39.23 34.1693 39.17C34.6893 38.98 35.0593 38.55 35.1593 38.02L35.2293 37.68H36.9693L37.0393 38.02C37.1493 38.56 37.5193 38.98 38.0393 39.17C38.2193 39.23 38.4093 39.31 38.6593 39.43C39.1493 39.67 39.7193 39.63 40.1793 39.33L40.4693 39.14L41.6893 40.38L41.4893 40.67C41.1793 41.12 41.1393 41.69 41.3693 42.19C41.4593 42.4 41.5493 42.6 41.6193 42.82C41.7993 43.34 42.2193 43.72 42.7493 43.83L43.0893 43.9L43.0693 45.64L42.7293 45.7C42.1893 45.8 41.7493 46.17 41.5693 46.69C41.4893 46.9 41.3993 47.11 41.2993 47.3C41.0593 47.79 41.0793 48.35 41.3693 48.82L41.5593 49.12L40.2993 50.33L40.0093 50.13C39.5693 49.82 38.9993 49.77 38.4993 49.99C38.3493 50.06 38.1893 50.12 38.0293 50.18C37.5093 50.37 37.1393 50.8 37.0393 51.33L36.9693 51.67H35.2293L35.1593 51.33C35.0493 50.79 34.6793 50.37 34.1593 50.18C33.9793 50.12 33.7793 50.04 33.5393 49.92C33.0393 49.68 32.4793 49.72 32.0193 50.02L31.7293 50.21L30.5093 48.97L30.7093 48.68C31.0093 48.22 31.0493 47.65 30.8193 47.16C30.7293 46.97 30.6493 46.77 30.5693 46.54C30.3893 46.02 29.9693 45.64 29.4393 45.53L29.0993 45.45L29.1193 43.71L29.4593 43.65C29.9993 43.55 30.4393 43.18 30.6193 42.66C30.6993 42.45 30.7893 42.24 30.8893 42.05H30.8993Z" fill="black"/>
</svg>
