<svg width="51" height="51" viewBox="0 0 51 51" fill="none" xmlns="http://www.w3.org/2000/svg">
<path d="M24.6929 25.5776C24.6931 25.7535 24.6536 25.9272 24.5776 26.0857C24.5015 26.2443 24.3907 26.3837 24.2534 26.4937L16.4409 32.7437C16.198 32.9379 15.8878 33.0277 15.5787 32.9933C15.2695 32.9588 14.9867 32.803 14.7925 32.5601C14.5982 32.3171 14.5084 32.007 14.5429 31.6978C14.5773 31.3887 14.7331 31.1059 14.9761 30.9116L21.646 25.5776L14.9761 20.2437C14.8558 20.1475 14.7556 20.0285 14.6813 19.8936C14.607 19.7587 14.5599 19.6105 14.5429 19.4575C14.5258 19.3044 14.5391 19.1495 14.5819 19.0015C14.6247 18.8536 14.6963 18.7155 14.7925 18.5952C14.8887 18.4749 15.0076 18.3748 15.1425 18.3004C15.2774 18.2261 15.4256 18.1791 15.5787 18.162C15.7317 18.145 15.8867 18.1582 16.0346 18.2011C16.1826 18.2439 16.3206 18.3154 16.4409 18.4116L24.2534 24.6616C24.3907 24.7715 24.5015 24.911 24.5776 25.0695C24.6536 25.2281 24.6931 25.4018 24.6929 25.5776ZM34.4585 30.6558H26.646C26.3352 30.6558 26.0371 30.7792 25.8174 30.999C25.5976 31.2188 25.4741 31.5168 25.4741 31.8276C25.4741 32.1384 25.5976 32.4365 25.8174 32.6563C26.0371 32.876 26.3352 32.9995 26.646 32.9995H34.4585C34.7693 32.9995 35.0674 32.876 35.2871 32.6563C35.5069 32.4365 35.6304 32.1384 35.6304 31.8276C35.6304 31.5168 35.5069 31.2188 35.2871 30.999C35.0674 30.7792 34.7693 30.6558 34.4585 30.6558ZM45.0054 11.5151V39.6401C45.0054 40.3653 44.7173 41.0608 44.2045 41.5736C43.6917 42.0864 42.9962 42.3745 42.271 42.3745H7.896C7.17079 42.3745 6.4753 42.0864 5.9625 41.5736C5.44971 41.0608 5.16162 40.3653 5.16162 39.6401V11.5151C5.16162 10.7899 5.44971 10.0944 5.9625 9.58164C6.4753 9.06885 7.17079 8.78076 7.896 8.78076H42.271C42.9962 8.78076 43.6917 9.06885 44.2045 9.58164C44.7173 10.0944 45.0054 10.7899 45.0054 11.5151ZM42.6616 11.5151C42.6616 11.4115 42.6205 11.3122 42.5472 11.2389C42.474 11.1657 42.3746 11.1245 42.271 11.1245H7.896C7.7924 11.1245 7.69304 11.1657 7.61978 11.2389C7.54653 11.3122 7.50537 11.4115 7.50537 11.5151V39.6401C7.50537 39.7437 7.54653 39.8431 7.61978 39.9164C7.69304 39.9896 7.7924 40.0308 7.896 40.0308H42.271C42.3746 40.0308 42.474 39.9896 42.5472 39.9164C42.6205 39.8431 42.6616 39.7437 42.6616 39.6401V11.5151Z" fill="#002D55"/>
</svg>
