<svg width="76" height="77" viewBox="0 0 76 77" fill="none" xmlns="http://www.w3.org/2000/svg">
<path d="M27.0092 52.8698C26.1792 53.6698 25.6992 54.7898 25.6992 55.9498C25.6992 57.1098 26.1792 58.2298 27.0092 59.0198C27.8892 59.8698 29.0292 60.2898 30.1592 60.2898C31.2892 60.2898 32.4292 59.8698 33.3092 59.0198C34.1392 58.2198 34.6192 57.0998 34.6192 55.9498C34.6192 54.7998 34.1392 53.6698 33.3092 52.8698C32.7592 52.3398 32.0892 51.9598 31.3592 51.7598V49.1598C31.7692 48.0698 32.5492 47.1398 33.5592 46.5298C34.8592 45.6898 36.3592 45.1998 37.8992 45.1198H38.0992C40.5992 44.9498 42.5492 44.2398 43.9092 42.9798C45.3192 41.5998 46.1292 39.6898 46.1392 37.7198C46.8792 37.5198 47.5492 37.1398 48.0992 36.6098C48.9292 35.8098 49.4092 34.6898 49.4092 33.5398C49.4092 32.3898 48.9292 31.2598 48.0992 30.4598C46.3292 28.7598 43.5692 28.7598 41.7992 30.4598C40.9692 31.2598 40.4892 32.3798 40.4892 33.5398C40.4892 34.6998 40.9692 35.8098 41.7992 36.6098C42.3492 37.1398 43.0192 37.5198 43.7592 37.7198C43.7392 39.0498 43.1992 40.3398 42.2592 41.2898L42.2392 41.3098C41.2692 42.1898 39.7692 42.6798 37.7792 42.7798C35.8092 42.8898 33.8992 43.5098 32.2292 44.5798C31.9292 44.7798 31.6392 44.9898 31.3592 45.2198V37.7098C32.0892 37.5098 32.7692 37.1298 33.3092 36.5998C34.1392 35.7998 34.6192 34.6798 34.6192 33.5198C34.6192 32.3598 34.1392 31.2498 33.3092 30.4498C31.5392 28.7498 28.7692 28.7498 27.0092 30.4498C26.1792 31.2498 25.6992 32.3698 25.6992 33.5198C25.6992 34.6698 26.1792 35.7998 27.0092 36.5898C27.5592 37.1198 28.2292 37.4998 28.9592 37.6998V51.7398C28.2292 51.9398 27.5592 52.3198 27.0092 52.8498V52.8698ZM32.2292 55.9398C32.2292 56.4798 32.0192 56.9798 31.6292 57.3498C30.8092 58.1398 29.5192 58.1398 28.6992 57.3498C28.3092 56.9798 28.0992 56.4798 28.0992 55.9398C28.0992 55.3998 28.3192 54.8998 28.6992 54.5298C29.1092 54.1398 29.6392 53.9398 30.1592 53.9398C30.6792 53.9398 31.2092 54.1398 31.6192 54.5298C31.9992 54.8998 32.2192 55.4098 32.2192 55.9398H32.2292ZM31.7992 35.1298L31.6292 34.9498C30.8092 35.7398 29.5292 35.7398 28.6992 34.9498C28.3192 34.5898 28.0992 34.0698 28.0992 33.5398C28.0992 33.0098 28.3092 32.4998 28.6992 32.1298C29.1092 31.7398 29.6392 31.5398 30.1592 31.5398C30.6792 31.5398 31.2092 31.7398 31.6192 32.1298C32.0092 32.4998 32.2192 32.9998 32.2192 33.5398C32.2192 34.0798 31.9992 34.5898 31.6192 34.9498L31.7892 35.1298H31.7992ZM46.5892 35.1298L46.4192 34.9498C45.5992 35.7398 44.3092 35.7398 43.4892 34.9498C43.1092 34.5898 42.8892 34.0698 42.8892 33.5398C42.8892 33.0098 43.0992 32.4998 43.4892 32.1298C43.8992 31.7398 44.4292 31.5398 44.9492 31.5398C45.4692 31.5398 45.9992 31.7398 46.4092 32.1298C46.7992 32.4998 47.0092 32.9998 47.0092 33.5398C47.0092 34.0798 46.7892 34.5898 46.4092 34.9498L46.5792 35.1298H46.5892Z" fill="black"/>
<path d="M21.3809 13.6897C21.0509 13.6697 20.7409 13.7897 20.5009 14.0097C20.2709 14.2297 20.1309 14.5397 20.1309 14.8597C20.1309 15.1797 20.2609 15.4897 20.5009 15.7197C20.7209 15.9197 21.0009 16.0397 21.3009 16.0397C21.3309 16.0397 21.3509 16.0397 21.3809 16.0397C21.7209 16.0597 22.0409 15.9497 22.2709 15.7297C22.5109 15.5097 22.6409 15.1997 22.6409 14.8697C22.6409 14.5397 22.5109 14.2397 22.2709 14.0097C22.0309 13.7897 21.7109 13.6797 21.3809 13.6897Z" fill="black"/>
<path d="M72.4292 8.08988C71.7892 7.46988 70.9492 7.12988 70.0692 7.12988H5.04922C4.16922 7.12988 3.32922 7.46988 2.68922 8.08988C2.06922 8.68988 1.69922 9.53988 1.69922 10.4099V65.9899C1.69922 66.8599 2.05922 67.6999 2.68922 68.3099C3.32922 68.9299 4.16922 69.2699 5.04922 69.2699H70.0592C70.9392 69.2699 71.7792 68.9299 72.4192 68.3099C73.0392 67.7099 73.4092 66.8599 73.4092 65.9899V10.4099C73.4092 9.53988 73.0492 8.69988 72.4192 8.08988H72.4292ZM4.09922 22.4499H71.0192V65.9899C71.0192 66.2399 70.9192 66.4799 70.7392 66.6499C70.5592 66.8299 70.3092 66.9299 70.0592 66.9299H5.06922C4.80922 66.9299 4.56922 66.8299 4.37922 66.6499C4.19922 66.4799 4.09922 66.2399 4.09922 65.9999V22.4499ZM4.09922 20.1099V10.4099C4.09922 10.1599 4.19922 9.91988 4.37922 9.74988C4.55922 9.56988 4.80922 9.46988 5.06922 9.46988H70.0592C70.3192 9.46988 70.5592 9.56988 70.7492 9.74988C70.9292 9.91988 71.0292 10.1599 71.0292 10.3999V20.0999H4.09922V20.1099Z" fill="black"/>
<path d="M15.9202 13.6901C15.5902 13.6701 15.2602 13.7901 15.0302 14.0101C14.8002 14.2301 14.6602 14.5401 14.6602 14.8601C14.6602 15.1801 14.7902 15.4901 15.0302 15.7201C15.2702 15.9401 15.5802 16.0501 15.9102 16.0301C15.9402 16.0301 15.9702 16.0301 15.9902 16.0301C16.2802 16.0301 16.5702 15.9201 16.7902 15.7101C17.0302 15.4901 17.1602 15.1801 17.1602 14.8501C17.1602 14.5201 17.0202 14.2201 16.7902 13.9901C16.5502 13.7701 16.2302 13.6601 15.9102 13.6701L15.9202 13.6901Z" fill="black"/>
<path d="M10.4392 13.6899C10.1192 13.6899 9.79922 13.7899 9.56922 14.0099C9.32922 14.2299 9.19922 14.5399 9.19922 14.8699C9.19922 15.1999 9.33922 15.4999 9.56922 15.7299C9.78922 15.9299 10.0692 16.0499 10.3592 16.0499C10.3892 16.0499 10.4192 16.0499 10.4392 16.0499C10.7792 16.0699 11.0792 15.9599 11.3192 15.7399C11.5592 15.5199 11.6892 15.2099 11.6892 14.8799C11.6892 14.5499 11.5592 14.2499 11.3192 14.0199C11.0892 13.7999 10.7792 13.6899 10.4292 13.6999L10.4392 13.6899Z" fill="black"/>
<path d="M64.6991 13.6901H32.2891C31.9591 13.6701 31.6491 13.7901 31.4091 14.0101C31.1791 14.2301 31.0391 14.5401 31.0391 14.8601C31.0391 15.1801 31.1691 15.4901 31.4091 15.7201C31.6491 15.9401 31.9691 16.0601 32.2791 16.0301H64.6791C64.6791 16.0301 64.7391 16.0301 64.7591 16.0301C65.0491 16.0301 65.3391 15.9201 65.5591 15.7101C65.7991 15.4901 65.9291 15.1801 65.9291 14.8501C65.9291 14.5201 65.7991 14.2201 65.5591 13.9901C65.3191 13.7701 64.9991 13.6601 64.6991 13.6701V13.6901Z" fill="black"/>
</svg>
