<svg width="123" height="23" viewBox="0 0 123 23" fill="none" xmlns="http://www.w3.org/2000/svg">
<path fill-rule="evenodd" clip-rule="evenodd" d="M10.4836 2.82952C10.6063 2.56528 10.8714 2.39648 11.1621 2.39648C11.4528 2.39648 11.7179 2.56527 11.8406 2.82952L14.1822 7.86566C14.2487 8.00801 14.3833 8.10605 14.5393 8.12565L20.0529 8.79651C20.3428 8.83146 20.584 9.03092 20.6744 9.30797C20.7647 9.58416 20.6854 9.88849 20.4723 10.0862L16.4062 13.8702C16.2911 13.9776 16.24 14.1362 16.2698 14.2905L17.3354 19.7417C17.3916 20.0272 17.2765 20.3187 17.0413 20.4901C16.806 20.6614 16.4923 20.6802 16.2383 20.5387L11.3828 17.8408C11.2456 17.7649 11.0785 17.7649 10.9413 17.8408L6.08582 20.5387C5.83179 20.6802 5.51809 20.6614 5.28283 20.4901C5.04756 20.3188 4.93247 20.0272 4.98873 19.7417L6.05427 14.2905C6.0841 14.1362 6.03295 13.9776 5.91788 13.8702L1.85174 10.0862C1.63863 9.88848 1.55937 9.58416 1.64972 9.30797C1.74007 9.03094 1.9813 8.83146 2.27115 8.79651L7.78475 8.12565C7.94074 8.10604 8.07542 8.00801 8.14191 7.86566L10.4836 2.82952Z" fill="#FFC01E"/>
<path fill-rule="evenodd" clip-rule="evenodd" d="M35.7156 2.82952C35.8384 2.56528 36.1035 2.39648 36.3942 2.39648C36.6849 2.39648 36.9499 2.56527 37.0727 2.82952L39.4142 7.86566C39.4807 8.00801 39.6154 8.10605 39.7714 8.12565L45.285 8.79651C45.5748 8.83146 45.8161 9.03092 45.9064 9.30797C45.9968 9.58416 45.9175 9.88849 45.7044 10.0862L41.6383 13.8702C41.5232 13.9776 41.472 14.1362 41.5019 14.2905L42.5674 19.7417C42.6237 20.0272 42.5086 20.3187 42.2733 20.4901C42.038 20.6614 41.7243 20.6802 41.4703 20.5387L36.6149 17.8408C36.4776 17.7649 36.3106 17.7649 36.1733 17.8408L31.3179 20.5387C31.0638 20.6802 30.7501 20.6614 30.5149 20.4901C30.2796 20.3188 30.1645 20.0272 30.2208 19.7417L31.2863 14.2905C31.3162 14.1362 31.265 13.9776 31.1499 13.8702L27.0838 10.0862C26.8707 9.88848 26.7914 9.58416 26.8818 9.30797C26.9721 9.03094 27.2134 8.83146 27.5032 8.79651L33.0168 8.12565C33.1728 8.10604 33.3075 8.00801 33.374 7.86566L35.7156 2.82952Z" fill="#FFC01E"/>
<path fill-rule="evenodd" clip-rule="evenodd" d="M60.9477 2.82952C61.0704 2.56528 61.3355 2.39648 61.6262 2.39648C61.9169 2.39648 62.182 2.56527 62.3048 2.82952L64.6463 7.86566C64.7128 8.00801 64.8475 8.10605 65.0034 8.12565L70.517 8.79651C70.8069 8.83146 71.0481 9.03092 71.1385 9.30797C71.2288 9.58416 71.1496 9.88849 70.9365 10.0862L66.8703 13.8702C66.7552 13.9776 66.7041 14.1362 66.7339 14.2905L67.7995 19.7417C67.8557 20.0272 67.7406 20.3187 67.5054 20.4901C67.2701 20.6614 66.9564 20.6802 66.7024 20.5387L61.8469 17.8408C61.7097 17.7649 61.5426 17.7649 61.4054 17.8408L56.5499 20.5387C56.2959 20.6802 55.9822 20.6614 55.7469 20.4901C55.5117 20.3188 55.3966 20.0272 55.4528 19.7417L56.5184 14.2905C56.5482 14.1362 56.4971 13.9776 56.382 13.8702L52.3159 10.0862C52.1027 9.88848 52.0235 9.58416 52.1138 9.30797C52.2042 9.03094 52.4454 8.83146 52.7353 8.79651L58.2489 8.12565C58.4049 8.10604 58.5395 8.00801 58.606 7.86566L60.9477 2.82952Z" fill="#FFC01E"/>
<path fill-rule="evenodd" clip-rule="evenodd" d="M86.1792 2.82952C86.302 2.56528 86.5671 2.39648 86.8578 2.39648C87.1485 2.39648 87.4136 2.56527 87.5363 2.82952L89.8778 7.86566C89.9443 8.00801 90.079 8.10605 90.235 8.12565L95.7486 8.79651C96.0384 8.83146 96.2797 9.03092 96.37 9.30797C96.4604 9.58416 96.3811 9.88849 96.168 10.0862L92.1019 13.8702C91.9868 13.9776 91.9357 14.1362 91.9655 14.2905L93.031 19.7417C93.0873 20.0272 92.9722 20.3187 92.7369 20.4901C92.5017 20.6614 92.188 20.6802 91.9339 20.5387L87.0785 17.8408C86.9413 17.7649 86.7742 17.7649 86.6369 17.8408L81.7815 20.5387C81.5275 20.6802 81.2138 20.6614 80.9785 20.4901C80.7432 20.3188 80.6282 20.0272 80.6844 19.7417L81.7499 14.2905C81.7798 14.1362 81.7286 13.9776 81.6136 13.8702L77.5474 10.0862C77.3343 9.88848 77.255 9.58416 77.3454 9.30797C77.4358 9.03094 77.677 8.83146 77.9668 8.79651L83.4804 8.12565C83.6364 8.10604 83.7711 8.00801 83.8376 7.86566L86.1792 2.82952Z" fill="#FFC01E"/>
<path fill-rule="evenodd" clip-rule="evenodd" d="M111.412 2.82952C111.534 2.56528 111.799 2.39648 112.09 2.39648C112.381 2.39648 112.646 2.56527 112.769 2.82952L115.11 7.86566C115.177 8.00801 115.311 8.10605 115.467 8.12565L120.981 8.79651C121.271 8.83146 121.512 9.03092 121.602 9.30797C121.693 9.58416 121.613 9.88849 121.4 10.0862L117.334 13.8702C117.219 13.9776 117.168 14.1362 117.198 14.2905L118.263 19.7417C118.32 20.0272 118.205 20.3187 117.969 20.4901C117.734 20.6614 117.42 20.6802 117.166 20.5387L112.311 17.8408C112.174 17.7649 112.006 17.7649 111.869 17.8408L107.014 20.5387C106.76 20.6802 106.446 20.6614 106.211 20.4901C105.976 20.3188 105.86 20.0272 105.917 19.7417L106.982 14.2905C107.012 14.1362 106.961 13.9776 106.846 13.8702L102.78 10.0862C102.567 9.88848 102.487 9.58416 102.578 9.30797C102.668 9.03094 102.909 8.83146 103.199 8.79651L108.713 8.12565C108.869 8.10604 109.003 8.00801 109.07 7.86566L111.412 2.82952Z" fill="#FFC01E"/>
</svg>
