<svg width="148" height="46" viewBox="0 0 148 46" fill="none" xmlns="http://www.w3.org/2000/svg">
<path d="M46.1238 23C46.1238 35.5893 35.9182 45.7949 23.3289 45.7949C10.7396 45.7949 0.533936 35.5893 0.533936 23C0.533936 10.4107 10.7396 0.205078 23.3289 0.205078C35.9182 0.205078 46.1238 10.4107 46.1238 23Z" fill="#EF492D"/>
<path d="M23.8161 37.0705C17.744 37.0538 12.4532 33.1515 10.7273 27.331C9.2858 22.4539 10.2203 17.996 13.4625 14.1002C15.4555 11.7062 18.0257 10.2388 21.0472 9.61081C22.7373 9.26011 24.4783 9.24562 26.1739 9.56814C26.3635 9.60338 26.3653 9.65533 26.2915 9.81116C25.4575 11.5772 24.6276 13.3458 23.8015 15.1168C23.781 15.1722 23.7431 15.2191 23.6936 15.2502C23.6441 15.2812 23.5858 15.2947 23.528 15.2884C21.7907 15.3336 20.1181 15.9686 18.7764 17.0924C17.4347 18.2162 16.501 19.7642 16.1238 21.4902C15.2914 25.2626 17.2972 29.1648 20.8366 30.5478C23.6456 31.6452 26.2596 31.2083 28.6374 29.3327C28.7586 29.24 28.8088 29.2214 28.8954 29.3745C29.8071 30.9977 30.7268 32.6179 31.6543 34.2349C31.7354 34.3768 31.7063 34.4408 31.5859 34.5262C29.7949 35.8153 27.7231 36.6429 25.5484 36.9379C24.9737 37.0133 24.3954 37.0575 23.8161 37.0705Z" fill="white"/>
<path d="M33.2489 33.0541C33.1742 33.0133 33.1532 32.9298 33.1149 32.8621C32.0779 31.0379 31.0446 29.2118 30.015 27.3839C29.98 27.309 29.9229 27.2471 29.8516 27.2069C29.7803 27.1666 29.6985 27.1501 29.6175 27.1594C27.5588 27.1659 25.501 27.1594 23.4423 27.1594H23.1861C23.1843 27.079 23.213 27.0009 23.2663 26.9415C24.3118 25.0938 25.3579 23.246 26.4045 21.3983C26.4323 21.3372 26.4782 21.2865 26.5357 21.2532C26.5933 21.2199 26.6596 21.2058 26.7255 21.2128C28.8328 21.2184 30.9395 21.2184 33.0456 21.2128C33.1111 21.2059 33.177 21.22 33.2341 21.2533C33.2912 21.2866 33.3366 21.3373 33.3638 21.3983C34.4147 23.2615 35.4705 25.1222 36.5312 26.9804C36.5666 27.028 36.5865 27.0857 36.5882 27.1454C36.5898 27.2051 36.573 27.2639 36.5403 27.3134C35.4748 29.1853 34.4132 31.0552 33.3556 32.9233C33.3273 32.9707 33.3146 33.0356 33.2489 33.0541Z" fill="white"/>
<path d="M28.8106 13.4324C28.4331 13.0484 28.0812 12.6811 27.7165 12.3193C27.6035 12.208 27.6828 12.1254 27.7311 12.041C28.1484 11.3017 28.8279 10.7528 29.6302 10.5068C30.1165 10.3436 30.6309 10.2857 31.1404 10.3368C31.6499 10.3879 32.1433 10.5469 32.5888 10.8037C34.2299 11.7062 34.0832 13.7997 33.1359 14.7458C32.7767 15.0976 32.3699 15.3953 31.9278 15.6298C31.4719 15.8765 31.0161 16.1093 30.5693 16.3718C30.1983 16.588 29.9092 16.8866 29.7752 17.3189C29.7205 17.4933 29.7533 17.5387 29.9366 17.5369C31.1419 17.5294 32.3481 17.5369 33.5543 17.5294C33.7367 17.5294 33.8051 17.5647 33.7978 17.7669C33.7814 18.2001 33.7878 18.6342 33.7978 19.0655C33.7978 19.2028 33.7604 19.251 33.6218 19.251C31.6835 19.2473 29.7457 19.2473 27.8086 19.251C27.7174 19.251 27.6326 19.251 27.6317 19.1165C27.6317 17.7511 27.8797 16.4794 28.93 15.5055C29.4303 15.0548 29.992 14.6799 30.5976 14.3924C30.9295 14.2273 31.265 14.0696 31.5549 13.8303C31.8084 13.6207 31.9834 13.3665 32.0017 13.0233C32.029 12.4863 31.6114 12.0874 30.9805 12.0457C30.0733 11.9798 29.4187 12.3954 28.961 13.1671C28.9154 13.2432 28.8735 13.3211 28.8106 13.4324Z" fill="white"/>
<path d="M33.4331 34.9983V34.5522H33.2763V34.4594H33.6966V34.5522H33.5379V34.9983H33.4331ZM33.764 34.9983V34.4613H33.9236L34.0148 34.8276L34.1059 34.4613H34.2664V34.9983H34.1761V34.5753L34.0713 34.9983H33.9683L33.8643 34.5753V34.9983H33.764Z" fill="white"/>
<path d="M63.7713 17.7165C61.8987 17.7165 60.1344 16.4284 60.1344 13.8415C60.1344 11.2545 61.9096 9.96644 63.793 9.96644C65.5248 9.96644 66.8778 10.9947 67.051 12.4452H66.0768C65.9036 11.4818 64.9511 10.7999 63.7821 10.7999C62.2235 10.7999 61.0761 11.8715 61.0761 13.8415C61.0761 15.8006 62.2235 16.9047 63.7821 16.9047C65.0269 16.9047 66.131 16.2011 66.131 15.1079C66.131 14.7615 65.9036 14.5342 65.5356 14.5342H63.8254V13.7332H65.698C66.25 13.7332 67.0402 14.1662 67.0402 15.0321V17.6299H66.1851V16.3093C65.8279 17.1428 64.8862 17.7165 63.7713 17.7165ZM68.2684 12.5101C68.2142 10.9623 69.2101 9.96644 70.7687 9.96644C72.1975 9.96644 73.2258 10.854 73.2258 12.2287C73.2258 13.2137 72.6196 14.0471 71.4615 14.6208L70.3791 15.1728C69.7621 15.4867 69.0693 16.0604 69.0693 16.7964H73.2691V17.6299H68.171V16.9696C68.171 15.6166 69.2317 14.7832 70.011 14.3935L71.1692 13.7982C71.981 13.3868 72.2733 12.8673 72.2733 12.207C72.2733 11.3411 71.6347 10.7782 70.7687 10.7782C69.7946 10.7782 69.1776 11.471 69.2209 12.5101H68.2684Z" fill="black"/>
<path fill-rule="evenodd" clip-rule="evenodd" d="M63.216 27.5134C63.2796 27.3765 63.4169 27.2891 63.5675 27.2891C63.7181 27.2891 63.8554 27.3765 63.919 27.5134L65.1321 30.1224C65.1665 30.1961 65.2363 30.2469 65.3171 30.2571L68.1735 30.6046C68.3236 30.6227 68.4486 30.7261 68.4954 30.8696C68.5422 31.0127 68.5011 31.1703 68.3907 31.2728L66.2842 33.2331C66.2246 33.2887 66.1981 33.3709 66.2136 33.4508L66.7656 36.2748C66.7947 36.4228 66.7351 36.5738 66.6132 36.6626C66.4913 36.7513 66.3288 36.761 66.1972 36.6877L63.6818 35.2901C63.6107 35.2508 63.5242 35.2508 63.4531 35.2901L60.9377 36.6877C60.8061 36.7611 60.6436 36.7513 60.5217 36.6626C60.3998 36.5738 60.3402 36.4228 60.3693 36.2748L60.9214 33.4508C60.9368 33.3709 60.9103 33.2887 60.8507 33.2331L58.7442 31.2728C58.6338 31.1703 58.5927 31.0127 58.6395 30.8696C58.6864 30.7261 58.8113 30.6227 58.9615 30.6046L61.8178 30.2571C61.8987 30.2469 61.9684 30.1961 62.0029 30.1224L63.216 27.5134Z" fill="#FFC01E"/>
<path fill-rule="evenodd" clip-rule="evenodd" d="M76.2875 27.5134C76.3511 27.3765 76.4884 27.2891 76.639 27.2891C76.7896 27.2891 76.927 27.3765 76.9906 27.5134L78.2036 30.1224C78.238 30.1961 78.3078 30.2469 78.3886 30.2571L81.245 30.6046C81.3951 30.6227 81.5201 30.7261 81.5669 30.8696C81.6137 31.0127 81.5727 31.1703 81.4623 31.2728L79.3558 33.2331C79.2962 33.2887 79.2697 33.3709 79.2851 33.4508L79.8371 36.2748C79.8663 36.4228 79.8067 36.5738 79.6848 36.6626C79.5629 36.7513 79.4004 36.761 79.2688 36.6877L76.7534 35.2901C76.6823 35.2508 76.5957 35.2508 76.5246 35.2901L74.0092 36.6877C73.8776 36.7611 73.7151 36.7513 73.5932 36.6626C73.4714 36.5738 73.4117 36.4228 73.4409 36.2748L73.9929 33.4508C74.0083 33.3709 73.9818 33.2887 73.9222 33.2331L71.8157 31.2728C71.7053 31.1703 71.6643 31.0127 71.7111 30.8696C71.7579 30.7261 71.8829 30.6227 72.033 30.6046L74.8894 30.2571C74.9702 30.2469 75.04 30.1961 75.0744 30.1224L76.2875 27.5134Z" fill="#FFC01E"/>
<g clip-path="url(#clip0_9_9487)">
<path fill-rule="evenodd" clip-rule="evenodd" d="M89.3592 27.5134C89.4228 27.3765 89.5601 27.2891 89.7107 27.2891C89.8613 27.2891 89.9986 27.3765 90.0622 27.5134L91.2753 30.1224C91.3097 30.1961 91.3795 30.2469 91.4603 30.2571L94.3166 30.6046C94.4668 30.6227 94.5918 30.7261 94.6386 30.8696C94.6854 31.0127 94.6443 31.1703 94.5339 31.2728L92.4274 33.2331C92.3678 33.2887 92.3413 33.3709 92.3568 33.4508L92.9088 36.2748C92.9379 36.4228 92.8783 36.5738 92.7564 36.6626C92.6345 36.7513 92.472 36.761 92.3404 36.6877L89.825 35.2901C89.7539 35.2508 89.6674 35.2508 89.5963 35.2901L87.0809 36.6877C86.9493 36.7611 86.7868 36.7513 86.6649 36.6626C86.543 36.5738 86.4834 36.4228 86.5125 36.2748L87.0645 33.4508C87.08 33.3709 87.0535 33.2887 86.9939 33.2331L84.8874 31.2728C84.777 31.1703 84.7359 31.0127 84.7827 30.8696C84.8295 30.7261 84.9545 30.6227 85.1047 30.6046L87.961 30.2571C88.0418 30.2469 88.1116 30.1961 88.1461 30.1224L89.3592 27.5134Z" fill="#FFC01E"/>
</g>
<g clip-path="url(#clip1_9_9487)">
<path fill-rule="evenodd" clip-rule="evenodd" d="M102.431 27.5134C102.494 27.3765 102.632 27.2891 102.782 27.2891C102.933 27.2891 103.07 27.3765 103.134 27.5134L104.347 30.1224C104.381 30.1961 104.451 30.2469 104.532 30.2571L107.388 30.6046C107.538 30.6227 107.663 30.7261 107.71 30.8696C107.757 31.0127 107.716 31.1703 107.605 31.2728L105.499 33.2331C105.439 33.2887 105.413 33.3709 105.428 33.4508L105.98 36.2748C106.009 36.4228 105.95 36.5738 105.828 36.6626C105.706 36.7513 105.543 36.761 105.412 36.6877L102.896 35.2901C102.825 35.2508 102.739 35.2508 102.668 35.2901L100.152 36.6877C100.021 36.7611 99.8582 36.7513 99.7363 36.6626C99.6144 36.5738 99.5548 36.4228 99.5839 36.2748L100.136 33.4508C100.151 33.3709 100.125 33.2887 100.065 33.2331L97.9588 31.2728C97.8484 31.1703 97.8073 31.0127 97.8541 30.8696C97.901 30.7261 98.0259 30.6227 98.1761 30.6046L101.032 30.2571C101.113 30.2469 101.183 30.1961 101.217 30.1224L102.431 27.5134Z" fill="#FFC01E"/>
</g>
<g clip-path="url(#clip2_9_9487)">
<path fill-rule="evenodd" clip-rule="evenodd" d="M115.502 27.5134C115.566 27.3765 115.703 27.2891 115.854 27.2891C116.004 27.2891 116.142 27.3765 116.205 27.5134L117.418 30.1224C117.453 30.1961 117.523 30.2469 117.603 30.2571L120.46 30.6046C120.61 30.6227 120.735 30.7261 120.782 30.8696C120.828 31.0127 120.787 31.1703 120.677 31.2728L118.57 33.2331C118.511 33.2887 118.484 33.3709 118.5 33.4508L119.052 36.2748C119.081 36.4228 119.021 36.5738 118.899 36.6626C118.778 36.7513 118.615 36.761 118.483 36.6877L115.968 35.2901C115.897 35.2508 115.81 35.2508 115.739 35.2901L113.224 36.6877C113.092 36.7611 112.93 36.7513 112.808 36.6626C112.686 36.5738 112.626 36.4228 112.656 36.2748L113.208 33.4508C113.223 33.3709 113.197 33.2887 113.137 33.2331L111.03 31.2728C110.92 31.1703 110.879 31.0127 110.926 30.8696C110.973 30.7261 111.098 30.6227 111.248 30.6046L114.104 30.2571C114.185 30.2469 114.255 30.1961 114.289 30.1224L115.502 27.5134Z" fill="#FFC01E"/>
</g>
<path d="M125.248 36.5275V27.8683H126.093V36.5275H125.248ZM135.208 36.0729C133.823 36.0729 132.784 35.1312 132.654 33.854H133.541C133.661 34.7416 134.288 35.2395 135.208 35.2395C136.323 35.2395 137.038 34.59 137.038 33.5076C137.038 32.4252 136.323 31.7108 135.219 31.7108C134.386 31.7108 133.79 32.0464 133.563 32.5984H132.805L133.39 28.4095H137.449V29.2429H134.093L133.758 31.5268C134.126 31.1804 134.754 30.9098 135.327 30.9098C136.908 30.9098 137.99 31.9706 137.99 33.5076C137.99 35.0446 136.854 36.0729 135.208 36.0729ZM139.383 34.9689H140.346V35.9863H139.383V34.9689ZM144.308 36.0729C142.478 36.0729 141.732 34.8173 141.732 32.501V31.8948C141.732 29.5785 142.478 28.3229 144.308 28.3229H144.687C146.537 28.3229 147.273 29.5785 147.273 31.8948V32.501C147.273 34.8173 146.537 36.0729 144.687 36.0729H144.308ZM144.34 35.2395H144.676C145.856 35.2395 146.353 34.3627 146.353 32.6092V31.7866C146.353 30.0331 145.856 29.1563 144.676 29.1563H144.34C143.16 29.1563 142.662 30.0331 142.662 31.7866V32.6092C142.662 34.3627 143.16 35.2395 144.34 35.2395Z" fill="black"/>
<defs>
<clipPath id="clip0_9_9487">
<rect width="11.3051" height="11.3051" fill="white" transform="translate(84.0575 26.3467)"/>
</clipPath>
<clipPath id="clip1_9_9487">
<rect width="11.3051" height="11.3051" fill="white" transform="translate(97.129 26.3467)"/>
</clipPath>
<clipPath id="clip2_9_9487">
<rect width="11.3051" height="11.3051" fill="white" transform="translate(110.201 26.3467)"/>
</clipPath>
</defs>
</svg>
