<svg width="25" height="25" viewBox="0 0 25 25" fill="none" xmlns="http://www.w3.org/2000/svg">
<path d="M5.5 8L5.5 14C5.5 16.8284 5.5 18.2426 6.37868 19.1213C7.25736 20 8.67157 20 11.5 20H14.5M14.5 20C14.5 20.7002 12.5057 22.0085 12 22.5M14.5 20C14.5 19.2998 12.5057 17.9915 12 17.5" stroke="#141B34" stroke-width="2" stroke-linecap="round" stroke-linejoin="round"/>
<path d="M13.5 5.5V6.5V5.5ZM18.6213 6.37868L19.3284 5.67157L19.3284 5.67157L18.6213 6.37868ZM13.697 3.71708C14.093 3.33214 14.102 2.69904 13.7171 2.30301C13.3321 1.90698 12.699 1.89798 12.303 2.28292L13.697 3.71708ZM12.303 8.71708C12.699 9.10202 13.3321 9.09302 13.7171 8.69699C14.102 8.30096 14.093 7.66786 13.697 7.28292L12.303 8.71708ZM13.5 4.5H10.5V6.5H13.5V4.5ZM20.5 11.5C20.5 10.1141 20.5021 8.974 20.3812 8.07494C20.2565 7.14711 19.9845 6.32768 19.3284 5.67157L17.9142 7.08579C18.1368 7.30836 18.3042 7.63538 18.3991 8.34143C18.4979 9.07625 18.5 10.0575 18.5 11.5H20.5ZM13.5 6.5C14.9425 6.5 15.9237 6.50212 16.6586 6.60092C17.3646 6.69584 17.6916 6.86322 17.9142 7.08579L19.3284 5.67157C18.6723 5.01546 17.8529 4.7435 16.9251 4.61875C16.026 4.49788 14.8859 4.5 13.5 4.5V6.5ZM11.5 5.5C11.5 5.64015 11.454 5.71035 11.4684 5.68353C11.4785 5.66464 11.5102 5.61436 11.5808 5.53149C11.7227 5.36493 11.9388 5.16177 12.2068 4.93467C12.4705 4.71127 12.7507 4.4925 13.0137 4.28594C13.254 4.0972 13.5237 3.88554 13.697 3.71708L12.303 2.28292C12.2235 2.36023 12.0542 2.49642 11.7783 2.7131C11.5252 2.91196 11.212 3.15617 10.9139 3.4088C10.6201 3.65773 10.3061 3.94365 10.0582 4.23469C9.93392 4.38062 9.80592 4.55126 9.70499 4.73986C9.60831 4.92054 9.5 5.1848 9.5 5.5H11.5ZM13.697 7.28292C13.5237 7.11446 13.254 6.9028 13.0137 6.71406C12.7507 6.5075 12.4705 6.28873 12.2068 6.06533C11.9388 5.83823 11.7227 5.63507 11.5808 5.46851C11.5102 5.38564 11.4785 5.33536 11.4684 5.31647C11.454 5.28965 11.5 5.35985 11.5 5.5H9.5C9.5 5.8152 9.60831 6.07946 9.70499 6.26014C9.80592 6.44874 9.93392 6.61938 10.0582 6.76531C10.3061 7.05635 10.6201 7.34227 10.9139 7.5912C11.212 7.84383 11.5252 8.08804 11.7783 8.2869C12.0542 8.50358 12.2235 8.63977 12.303 8.71708L13.697 7.28292ZM18.5 11.5V17.5H20.5V11.5H18.5Z" fill="#141B34"/>
<path d="M20.5 19.5C20.5 20.0523 20.0523 20.5 19.5 20.5V22.5C21.1569 22.5 22.5 21.1569 22.5 19.5H20.5ZM19.5 20.5C18.9477 20.5 18.5 20.0523 18.5 19.5H16.5C16.5 21.1569 17.8431 22.5 19.5 22.5V20.5ZM18.5 19.5C18.5 18.9477 18.9477 18.5 19.5 18.5V16.5C17.8431 16.5 16.5 17.8431 16.5 19.5H18.5ZM19.5 18.5C20.0523 18.5 20.5 18.9477 20.5 19.5H22.5C22.5 17.8431 21.1569 16.5 19.5 16.5V18.5Z" fill="#141B34"/>
<circle cx="5.5" cy="5.5" r="2" stroke="#141B34" stroke-width="2"/>
</svg>

