<svg width="25" height="25" viewBox="0 0 25 25" fill="none" xmlns="http://www.w3.org/2000/svg">
<path d="M20.8584 13.8567C19.6689 15.046 17.4308 14.9998 13.9992 14.9998C11.7914 14.9998 10.0014 13.2071 10.0002 10.9993C10.0002 7.57001 9.954 5.33065 11.1435 4.14138C12.3329 2.95212 12.8583 3.00027 18.1274 3.00027C18.6366 2.99809 18.8929 3.61389 18.5329 3.97394L15.8199 6.68714C15.1313 7.37582 15.1294 8.49233 15.8181 9.18092C16.5068 9.86952 17.6234 9.86959 18.3122 9.18109L21.0259 6.46855C21.386 6.10859 22.0019 6.36483 21.9997 6.87395C21.9997 12.1422 22.0479 12.6675 20.8584 13.8567Z" stroke="#141B34" stroke-width="2"/>
<path d="M14 15L7.82842 21.1716C6.72386 22.2761 4.933 22.2761 3.82843 21.1716C2.72386 20.067 2.72386 18.2761 3.82843 17.1716L10 11" stroke="#141B34" stroke-width="2" stroke-linecap="round"/>
<path d="M6.00896 19H6" stroke="#141B34" stroke-width="2" stroke-linecap="round" stroke-linejoin="round"/>
</svg>
