<svg width="87" height="28" viewBox="0 0 87 28" fill="none" xmlns="http://www.w3.org/2000/svg">
<g clip-path="url(#clip0_133_1931)">
<path d="M0.848877 16.596C0.848877 9.85003 4.91786 5.35059 11.5384 5.35059C13.813 5.35059 16.0075 5.80179 17.5618 6.57799V12.2606H17.4819C16.3245 10.175 14.2501 8.94762 11.8185 8.94762C7.74953 8.94762 5.27798 11.8094 5.27798 16.596C5.27798 21.3795 7.75261 24.2823 11.8185 24.2823C14.2532 24.2823 16.3245 23.0139 17.4819 20.9283H17.5618V26.6519C16.0075 27.4281 13.813 27.8793 11.5384 27.8793C4.91786 27.8825 0.848877 23.3421 0.848877 16.596Z" fill="#99A3B1"/>
<path d="M35.7528 27.5543V21.6665H35.6327L35.4327 22.5248C34.8355 25.1816 32.721 27.8825 28.7321 27.8825C22.9487 27.8825 19.0798 22.976 19.0798 16.596C19.0798 10.2571 22.9487 5.35059 28.7321 5.35059C32.721 5.35059 34.8355 8.04836 35.4327 10.7083L35.6327 11.5665H35.7528V5.67874H40.0218V27.5575H35.7528V27.5543ZM29.6893 24.4464C33.5583 24.4464 35.8728 21.4204 35.8728 16.596C35.8728 11.8126 33.5583 8.78669 29.6893 8.78669C25.9004 8.78669 23.5058 11.8537 23.5058 16.637C23.5058 21.4204 25.9004 24.4464 29.6893 24.4464Z" fill="#99A3B1"/>
<path d="M58.809 27.5556V21.6678H58.6889L58.4889 22.526C57.8917 25.1828 55.7772 27.8837 51.7882 27.8837C46.0049 27.8837 42.136 22.9773 42.136 16.5972C42.136 10.2583 46.0049 5.35181 51.7882 5.35181C55.7772 5.35181 57.8917 8.04957 58.4889 10.7095L58.6889 11.5677H58.809V0.117188H63.078V27.5556H58.809ZM52.7455 24.4476C56.6144 24.4476 58.929 21.4216 58.929 16.5972C58.929 11.8138 56.6144 8.78791 52.7455 8.78791C48.9565 8.78791 46.562 11.8549 46.562 16.6383C46.562 21.4216 48.9535 24.4476 52.7455 24.4476Z" fill="#99A3B1"/>
<path d="M81.8624 27.5543V21.6665H81.7425L81.5423 22.5248C80.9453 25.1816 78.8307 27.8825 74.8418 27.8825C69.0584 27.8825 65.1895 22.976 65.1895 16.596C65.1895 10.2571 69.0584 5.35059 74.8418 5.35059C78.8307 5.35059 80.9453 8.04836 81.5423 10.7083L81.7425 11.5665H81.8624V5.67874H86.1315V27.5575H81.8624V27.5543ZM75.799 24.4464C79.6679 24.4464 81.9825 21.4204 81.9825 16.596C81.9825 11.8126 79.6679 8.78669 75.799 8.78669C72.0101 8.78669 69.6155 11.8537 69.6155 16.637C69.6186 21.4204 72.0101 24.4464 75.799 24.4464Z" fill="#99A3B1"/>
</g>
<defs>
<clipPath id="clip0_133_1931">
<rect width="85.2828" height="27.7665" fill="white" transform="translate(0.848877 0.117188)"/>
</clipPath>
</defs>
</svg>
