<svg width="128" height="26" viewBox="0 0 128 26" fill="none" xmlns="http://www.w3.org/2000/svg">
<g clip-path="url(#clip0_133_1919)">
<path d="M48.446 7.35432H51.6328V5.64753C51.6328 2.37184 53.2087 0.665039 56.742 0.665039H60.4312V4.04417H57.2443C55.9971 4.04417 55.4604 4.57864 55.4604 5.81994V7.35432H60.4312V10.7335H55.5295V25.5775H51.6328V10.7335H48.446V7.35432Z" fill="#99A3B1"/>
<path d="M63.116 0.647461H66.9783V25.5771H63.116V0.647461Z" fill="#99A3B1"/>
<path d="M85.4584 13.7499V25.5769H82.0983L81.7693 22.9735C80.522 24.6113 78.7557 25.7837 75.8633 25.7837C71.8623 25.7837 69.1777 23.8184 69.1777 20.4392C69.1777 16.6981 71.8971 14.5947 77.0581 14.5947H81.6308V13.4913C81.6308 11.4569 80.1583 10.2156 77.6298 10.2156C75.3438 10.2156 73.8022 11.2845 73.5076 12.8879H69.7148C70.1132 9.3191 73.1786 7.1123 77.8031 7.1123C82.6525 7.12957 85.4584 9.45702 85.4584 13.7499ZM81.6308 18.1118V17.4738H76.833C74.4431 17.4738 73.1095 18.3703 73.1095 20.2151C73.1095 21.7495 74.3913 22.8184 76.504 22.8184C79.7256 22.8011 81.5789 20.9219 81.6308 18.1118Z" fill="#99A3B1"/>
<path d="M87.9167 2.47525C87.9167 1.11326 88.9559 0.165039 90.2724 0.165039C91.5887 0.165039 92.6275 1.1305 92.6275 2.47525C92.6275 3.82001 91.5887 4.78547 90.2724 4.78547C88.9559 4.78547 87.9167 3.82001 87.9167 2.47525ZM88.3152 7.35431H92.1775V25.5946H88.3152V7.35431Z" fill="#99A3B1"/>
<path d="M105.168 7.35449V10.9405H103.453C100.024 10.9405 98.9158 13.6128 98.9158 16.423V25.5776H95.0535V7.35449H98.4826L98.9158 10.0957C99.8508 8.56132 101.306 7.35449 104.319 7.35449H105.168Z" fill="#99A3B1"/>
<path d="M16.8606 0.647461H41.9219V8.95736L37.7306 13.1123H29.3826V4.80243H12.6865L16.8606 0.647461Z" fill="#99A3B1"/>
<path d="M27.3041 6.88965V15.1996L23.13 19.3545H14.7821V11.0446H6.43408L10.6081 6.88965H27.3041Z" fill="#99A3B1"/>
<path d="M0.164551 17.2682L4.33856 13.1133H12.6866V21.4231L8.51256 25.5781H0.164551V17.2682Z" fill="#99A3B1"/>
<path d="M119.323 0.165039V9.18103H117.139V5.46932H113.74V9.18103H111.556V0.165039H113.74V3.69695H117.139V0.165039H119.323Z" fill="#99A3B1"/>
<path d="M125.218 9.18103L123.353 5.77756H122.829V9.18103H120.645V0.165039H124.311C125.018 0.165039 125.619 0.289191 126.113 0.537495C126.615 0.785801 126.99 1.12829 127.237 1.56496C127.484 1.99307 127.608 2.47254 127.608 3.0034C127.608 3.60276 127.437 4.1379 127.096 4.60881C126.764 5.07973 126.27 5.41365 125.614 5.6106L127.684 9.18103H125.218ZM122.829 4.22352H124.183C124.584 4.22352 124.882 4.12505 125.078 3.92813C125.282 3.7312 125.384 3.45292 125.384 3.09331C125.384 2.75082 125.282 2.48112 125.078 2.28419C124.882 2.08725 124.584 1.98878 124.183 1.98878H122.829V4.22352Z" fill="#99A3B1"/>
</g>
<defs>
<clipPath id="clip0_133_1919">
<rect width="127.52" height="25.6696" fill="white" transform="translate(0.164551 0.165039)"/>
</clipPath>
</defs>
</svg>
