<svg width="124" height="18" viewBox="0 0 124 18" fill="none" xmlns="http://www.w3.org/2000/svg">
<path d="M69.3984 8.98583L65.8629 12.6958L61.3484 7.91564L59.5127 5.98932C59.0775 5.54698 58.8328 4.94769 58.8328 4.31985C58.8328 3.03564 59.8254 1.97973 61.0493 1.97973C62.1914 1.97973 63.1569 2.89295 63.2657 4.09155H64.5711C64.4487 2.05108 62.7898 0.495757 60.8453 0.624178C58.9824 0.73833 57.5409 2.35073 57.5409 4.30558C57.5409 5.31868 57.9353 6.2747 58.6288 6.97389L59.0639 7.4305L58.8192 7.57318C57.1874 8.47213 56.154 10.2415 56.1404 12.1821C56.1404 15.0359 58.3569 17.3617 61.0765 17.3617C62.4362 17.3617 63.7416 16.7767 64.6663 15.735L64.8159 15.5638L65.795 14.5365L68.0658 16.9194L68.9768 15.9633L66.706 13.5804L70.2414 9.87046L69.3984 8.98583ZM64.8023 13.8087L63.8096 14.8504C62.8578 15.7065 61.9603 16.1203 61.0493 16.1203C58.9824 16.1203 57.2962 14.3652 57.2962 12.1963C57.2962 10.5126 58.3161 9.01439 59.839 8.47213L59.9614 8.42932L64.9246 13.666L64.8023 13.8087Z" fill="#747D8A"/>
<path d="M10.4239 8.15786H1.68047V0.823586H0.388672V17.1473H1.68047V9.39926H10.4239V17.1473H11.7021V0.823586H10.4239V8.15786Z" fill="#747D8A"/>
<path d="M21.6014 0.823586L15.4008 17.1616H16.7878L18.5555 12.4386H26.0344L27.8021 17.1616H29.1891L22.9749 0.823586H21.6014ZM19.0314 11.1829L22.2813 2.43598L25.5312 11.1829H19.0314Z" fill="#747D8A"/>
<path d="M34.4515 0.823586H33.1733V17.1616H34.4515V0.823586Z" fill="#747D8A"/>
<path d="M49.0284 5.47529C49.0284 2.65002 47.0431 0.823586 43.9564 0.823586H40.1625V17.1616H41.4407V10.127H43.63L47.9269 17.1331L47.9406 17.1616H49.4907L45.0714 10.0413C45.7513 9.9415 49.0284 9.2423 49.0284 5.47529ZM41.4407 8.82847V2.12207H44.0244C46.2952 2.12207 47.7094 3.40628 47.7094 5.47529C47.7094 7.54429 46.2952 8.82847 44.0244 8.82847H41.4407Z" fill="#747D8A"/>
<path d="M81.6633 8.45776C79.3112 7.37332 77.761 6.51718 77.761 4.63368C77.761 3.00701 79.0392 1.86549 80.8612 1.86549C82.9827 1.86549 84.0704 3.69192 84.0841 3.70618L84.1251 3.77753L85.1178 2.97846L85.0905 2.92139C85.0768 2.89285 83.6078 0.552734 80.8476 0.552734C78.0058 0.552734 76.4828 2.66455 76.4828 4.64794C76.4828 7.18783 78.4954 8.45776 80.671 9.45662C82.3568 10.2414 84.1114 11.0404 84.1114 13.0524C84.1114 14.8646 82.7108 16.1202 80.7253 16.1202C78.0738 16.1202 77.0539 13.4234 77.0403 13.3948L77.0131 13.3092L75.8573 14.037L75.8845 14.094C75.8981 14.1226 77.3259 17.4472 80.7253 17.4472C83.4316 17.4472 85.4034 15.5923 85.4034 13.0524C85.3761 10.9976 84.3013 9.67062 81.6633 8.45776Z" fill="#747D8A"/>
<path d="M99.8032 0.823586H98.117L91.3592 8.50031V0.823586H90.0671V17.1473H91.3592V9.31366L99.0687 17.1473H100.905L92.7461 8.81423L99.8032 0.823586Z" fill="#747D8A"/>
<path d="M105.855 0.823586H104.576V17.1616H105.855V0.823586Z" fill="#747D8A"/>
<path d="M122.185 0.823586V14.7787L112.83 0.852124L112.817 0.823586H111.566V17.1473H112.843V3.14944L122.199 17.1188L122.226 17.1473H123.477V0.823586H122.185Z" fill="#747D8A"/>
</svg>
