<svg width="127" height="22" viewBox="0 0 127 22" fill="none" xmlns="http://www.w3.org/2000/svg">
<path d="M2.20488 1.123L2.20903 18.2127C2.20933 19.4096 2.597 19.9185 3.40229 19.9182C3.87947 19.9182 4.29708 20.307 4.29738 20.8159C4.29738 21.3246 3.88006 21.7139 3.40288 21.7139C1.40463 21.7145 0.300885 20.5176 0.300292 18.2133L0.296143 1.1236C0.296143 0.614966 0.743095 0.165824 1.25021 0.165526C1.78697 0.165526 2.20458 0.614371 2.20488 1.123Z" fill="#747D8A"/>
<path d="M12.0776 7.46542C16.8494 7.46423 17.7747 11.2653 17.7753 13.3004C17.7756 14.1683 17.7759 15.2159 16.5827 15.2162L7.87478 15.2183C7.87537 18.1812 9.57575 20.0964 12.379 20.0955C14.1087 20.0952 15.1226 19.4361 15.9576 18.8076C16.1363 18.6877 16.2557 18.6279 16.4943 18.6279C16.9715 18.6279 17.3592 19.017 17.3595 19.4956C17.3595 19.8249 17.2104 20.0045 17.0317 20.1842C16.5841 20.633 15.034 21.8606 12.3796 21.8612C8.41332 21.8621 5.93759 19.6779 5.93611 14.6496C5.93492 10.041 8.20081 7.46661 12.0776 7.46542ZM12.0781 9.2016C9.48357 9.2022 8.05231 10.8786 7.87419 13.5425L15.8965 13.5404C15.8959 11.3854 15.1499 9.20071 12.0781 9.2016Z" fill="#747D8A"/>
<path d="M22.2481 10.7849C21.9502 11.1145 21.7413 11.2043 21.4728 11.2043C20.9959 11.2043 20.6079 10.8152 20.6076 10.3367C20.6076 10.127 20.6672 9.97734 20.7567 9.82773C21.5913 8.51064 23.2013 7.46274 25.7067 7.46215C29.1658 7.46126 31.0751 9.49608 31.0757 12.5491L31.0778 20.7794C31.0778 21.288 30.6608 21.7074 30.1537 21.7074C29.6468 21.7074 29.2289 21.2886 29.2289 20.7799L29.2286 19.7026C28.4835 21.1092 26.7541 21.8582 24.9648 21.8588C21.8035 21.8597 19.805 20.3335 19.8044 17.58C19.8038 14.9465 21.8014 13.3599 25.022 13.359L29.2271 13.3578L29.2269 12.5496C29.2263 10.5145 27.8839 9.25752 25.7072 9.25812C24.1266 9.25842 23.1725 9.7373 22.2481 10.7849ZM29.228 16.2906L29.2277 15.0336L25.0226 15.0348C23.0842 15.0354 21.7425 15.8436 21.7431 17.5794C21.7434 19.136 22.8175 20.1235 25.1432 20.1229C27.231 20.122 29.2286 18.8344 29.228 16.2906Z" fill="#747D8A"/>
<path d="M36.2355 11.1109C36.2364 14.2534 44.0794 13.0842 44.0806 17.873C44.0812 20.5964 41.8447 21.8243 39.0118 21.8249C36.5666 21.8255 34.6875 20.6586 33.9119 19.6711C33.7628 19.4617 33.7029 19.3118 33.7029 19.1027C33.7029 18.6235 34.0906 18.2347 34.5675 18.2344C34.7465 18.2344 34.9851 18.2942 35.2234 18.5333C36.1481 19.4608 37.3411 19.9994 39.0112 19.9992C40.7113 19.9989 42.1725 19.4295 42.1719 17.8733C42.171 14.7906 34.328 16.0196 34.3268 11.1112C34.3262 8.62694 36.3538 7.48921 38.8891 7.48862C40.9167 7.48803 42.4976 8.17601 43.4223 9.40298C43.5119 9.52285 43.6313 9.7022 43.6313 9.97139C43.6313 10.4506 43.2436 10.8393 42.7664 10.8396C42.6177 10.8396 42.3791 10.8099 42.1402 10.5707C41.3349 9.79263 40.4401 9.31404 38.8894 9.31434C37.5476 9.31493 36.2352 9.73403 36.2355 11.1109Z" fill="#747D8A"/>
<path d="M52.5481 7.45531C57.3197 7.45412 58.245 11.2552 58.2456 13.2903C58.2459 14.1582 58.2462 15.2058 57.0535 15.2061L48.3453 15.2082C48.3459 18.1711 50.0463 20.0863 52.8496 20.0854C54.5793 20.0851 55.5929 19.426 56.4278 18.7975C56.6069 18.6776 56.726 18.6178 56.9649 18.6178C57.4418 18.6178 57.8298 19.0069 57.8301 19.4855C57.8301 19.8147 57.681 19.9944 57.5019 20.1741C57.055 20.6229 55.5043 21.8505 52.8501 21.851C48.8836 21.8519 46.4082 19.6678 46.4067 14.6395C46.4055 10.0309 48.6714 7.4562 52.5481 7.45531ZM52.5484 9.19149C49.9538 9.19209 48.5232 10.8685 48.3448 13.5324L56.3668 13.5303C56.3662 11.3753 55.6202 9.1906 52.5484 9.19149Z" fill="#747D8A"/>
<path d="M68.8029 11.522L66.0616 21.0102C65.9425 21.429 65.5545 21.6985 65.1372 21.6988C64.7196 21.6988 64.3918 21.4593 64.2424 21.0703L59.8553 9.01005C59.7957 8.86044 59.7658 8.71082 59.7658 8.59095C59.7658 8.05228 60.1831 7.63318 60.7198 7.63288C61.1374 7.63288 61.4658 7.87203 61.6149 8.26108L65.0767 18.1669L67.9075 8.2596C67.997 7.96007 68.2952 7.6308 68.802 7.6308C69.3089 7.6308 69.6073 7.95977 69.6968 8.259L72.5324 18.1648L75.9891 8.25722C76.1382 7.86786 76.4663 7.62842 76.8839 7.62842C77.4207 7.62842 77.8383 8.04722 77.8386 8.58589C77.8386 8.70576 77.809 8.85508 77.7491 9.00499L73.3679 21.0673C73.2188 21.4566 72.891 21.6961 72.4734 21.6964C72.0561 21.6964 71.6681 21.4272 71.5487 21.0084L68.8029 11.522Z" fill="#99A3B1"/>
<path d="M91.4698 14.6285C91.471 19.5369 89.0856 21.8421 85.2086 21.843C81.3615 21.8439 78.9456 19.5399 78.9441 14.6315C78.9426 9.72303 81.3579 7.44787 85.205 7.44698C89.0821 7.44608 91.4686 9.72005 91.4698 14.6285ZM89.5314 14.6291C89.5305 10.8581 87.9493 9.18257 85.2056 9.18316C82.4619 9.18376 80.8819 10.8602 80.8828 14.6312C80.8837 18.462 82.4646 20.108 85.2083 20.1074C87.9519 20.1065 89.5323 18.4599 89.5314 14.6291Z" fill="#99A3B1"/>
<path d="M96.3599 9.89852C96.9559 8.52165 98.447 7.50379 100.505 7.50319C101.012 7.50319 101.43 7.922 101.43 8.43063C101.43 8.93926 101.012 9.35866 100.505 9.35895C97.7615 9.35955 96.3605 11.2754 96.3611 14.0288L96.3628 20.7329C96.3628 21.2716 95.9455 21.6907 95.4088 21.691C94.872 21.691 94.4544 21.2722 94.4541 20.7335L94.4511 8.58232C94.4511 8.04365 94.8685 7.62455 95.4052 7.62425C95.942 7.62396 96.3596 8.04306 96.3599 8.58173V9.89852Z" fill="#99A3B1"/>
<path d="M112.676 21.2374L107.396 14.4453L105.577 15.912L105.578 20.7306C105.578 21.2692 105.161 21.6883 104.624 21.6886C104.087 21.6886 103.67 21.2698 103.669 20.7312L103.665 1.09772C103.665 0.559046 104.082 0.139946 104.619 0.139649C105.155 0.139351 105.573 0.558451 105.573 1.09712L105.576 13.6374L112.613 7.85924C112.851 7.64984 113.09 7.61979 113.269 7.61979C113.806 7.61979 114.223 8.0386 114.224 8.57727C114.224 8.81671 114.134 9.11594 113.836 9.35568L108.946 13.2775L114.256 20.13C114.435 20.3391 114.465 20.5488 114.465 20.7285C114.465 21.2672 114.048 21.6863 113.511 21.6866C113.183 21.6866 112.914 21.5369 112.676 21.2374Z" fill="#99A3B1"/>
<path d="M118.758 11.0901C118.758 14.2326 126.602 13.0633 126.603 17.8522C126.603 20.5756 124.367 21.8035 121.534 21.804C119.089 21.8046 117.21 20.6378 116.434 19.6502C116.285 19.4408 116.225 19.2909 116.225 19.0818C116.225 18.6026 116.613 18.2139 117.09 18.2136C117.269 18.2136 117.507 18.2734 117.746 18.5125C118.67 19.44 119.863 19.9786 121.534 19.9783C123.234 19.978 124.695 19.4087 124.694 17.8525C124.693 14.7698 116.85 15.9988 116.849 11.0904C116.849 8.60612 118.876 7.46839 121.411 7.4678C123.439 7.4672 125.02 8.15549 125.945 9.38215C126.034 9.50202 126.154 9.68138 126.154 9.95057C126.154 10.4298 125.766 10.8185 125.289 10.8188C125.14 10.8188 124.901 10.7891 124.663 10.5499C123.857 9.77181 122.962 9.29322 121.412 9.29352C120.069 9.29411 118.757 9.71321 118.758 11.0901Z" fill="#99A3B1"/>
</svg>
