<svg width="73" height="36" viewBox="0 0 73 36" fill="none" xmlns="http://www.w3.org/2000/svg">
<mask id="mask0_595_2612" style="mask-type:luminance" maskUnits="userSpaceOnUse" x="3" y="1" width="33" height="34">
<path d="M20.9297 4.59376C20.4268 4.28683 19.8858 4.04733 19.3205 3.88141C18.8564 3.69558 18.4231 3.54072 18.1446 4.19113C17.9899 4.53182 17.5876 4.71765 17.2163 4.87251C16.4158 5.25265 15.5321 5.42316 14.6478 5.36806C13.5957 5.30612 13.5957 5.33709 13.2553 6.35916C13.2244 6.48305 13.1934 6.60693 13.1625 6.69985C13.0387 7.04054 13.0696 7.22637 13.5338 7.22637C14.1754 7.22149 14.8026 7.41631 15.3286 7.78386C15.4313 7.86878 15.5575 7.92023 15.6903 7.9313C15.823 7.94238 15.956 7.91254 16.0713 7.84581C17.225 7.3611 18.4149 6.96759 19.63 6.66888C19.7847 6.63791 20.0323 6.63791 20.0013 6.4211C19.8466 5.63442 20.3417 5.07692 20.9297 4.59376ZM33.4624 11.5315C33.3031 11.5307 33.1455 11.4991 32.9982 11.4385C32.106 11.1469 31.3342 10.5702 30.8011 9.79704C30.3679 9.1776 30.0275 8.49622 30.3988 7.72192C30.5226 7.44317 30.3988 7.4122 30.2132 7.35026C29.4365 7.10295 28.6389 6.92672 27.8304 6.82374C27.6447 6.76179 27.521 6.88568 27.49 7.16443C27.4715 7.34802 27.4191 7.52657 27.3353 7.69095C27.1609 8.01019 26.8741 8.25308 26.5307 8.37233L25.2929 8.92982C25.1544 8.98939 25.0088 9.03102 24.8597 9.05371C23.2196 9.23954 21.7652 8.83691 20.5583 7.62901C20.4346 7.50512 20.3727 7.35026 20.0942 7.44317C18.9455 7.72954 17.8159 8.08745 16.7119 8.5148C16.2786 8.66966 16.1239 8.85549 16.2477 9.25813C16.3038 9.54374 16.3142 9.83645 16.2786 10.1253C16.1552 10.6922 15.9118 11.2261 15.5648 11.6909C15.2178 12.1557 14.7754 12.5407 14.2672 12.8199C13.8649 13.0677 13.834 13.2535 13.9887 13.6561C14.3601 14.6782 14.7933 15.6693 15.2265 16.6604C15.3812 17.0011 15.536 17.125 15.9692 17.0011C16.5176 16.8288 17.0952 16.7695 17.6672 16.8269C18.2391 16.8844 18.7935 17.0573 19.2967 17.3352C19.8 17.6131 20.2418 17.9903 20.5953 18.4439C20.9489 18.8975 21.2068 19.4182 21.3536 19.9744L21.4465 20.408C21.6163 21.1517 21.576 21.928 21.33 22.65C21.0841 23.372 20.6423 24.0113 20.0539 24.4963L19.7135 24.775C18.8713 25.4928 17.7854 25.8588 16.6809 25.7971C16.5881 25.7971 16.4643 25.7661 16.3715 25.7661C15.8454 25.7042 15.6907 25.921 15.536 26.5404C15.377 27.1575 15.1377 27.7511 14.8242 28.3058C14.5148 28.8323 14.5148 29.0801 14.8861 29.4518C15.1849 29.7291 15.421 30.0671 15.5786 30.4432C15.7362 30.8193 15.8117 31.2248 15.7999 31.6324C15.7882 32.0401 15.6896 32.4405 15.5106 32.8069C15.3317 33.1733 15.0765 33.4972 14.7623 33.7569C14.4238 33.9754 14.0602 34.1522 13.6793 34.2834C13.3698 34.3144 13.0913 34.3144 12.7819 34.3453C10.5538 33.8808 9.93492 31.9295 10.2753 30.6287C10.4038 30.0388 10.7336 29.5121 11.2079 29.1391C11.6823 28.766 12.2716 28.57 12.8747 28.5846C13.0254 28.6043 13.178 28.5678 13.3036 28.4821C13.4291 28.3965 13.5188 28.2676 13.5555 28.12C13.8649 27.3147 14.1744 26.5095 14.5148 25.7042C14.6386 25.3945 14.6386 25.2086 14.3291 24.9918C13.5704 24.4852 13.0122 23.7294 12.7509 22.8548C12.6581 22.576 12.5652 22.4521 12.2558 22.4521C10.8609 22.5307 9.46393 22.3414 8.14011 21.8946C8.0699 21.8684 7.99488 21.8576 7.92013 21.863C7.84538 21.8683 7.77266 21.8897 7.70688 21.9256C6.65475 22.4212 5.63356 22.5141 4.73616 21.6469C3.83876 20.7797 3.74592 19.6337 4.08632 18.4877C4.36759 17.5211 5.01045 16.7001 5.88113 16.1958C6.10469 16.0909 6.28898 15.9173 6.40719 15.7003C6.97716 14.6263 7.71939 13.6532 8.60428 12.8199C8.71405 12.7348 8.79205 12.6152 8.82572 12.4804C8.8594 12.3456 8.8468 12.2034 8.78995 12.0766C8.57339 11.5081 8.57339 10.8797 8.78995 10.3112C8.91373 9.97048 8.75901 9.90853 8.29483 9.90853C7.84689 9.86652 7.40233 9.79408 6.9642 9.69173C6.68569 9.62979 6.56192 9.81562 6.40719 9.93951C5.85018 10.4041 5.26223 10.8377 4.51955 10.8687C3.77687 10.8996 3.49836 10.528 3.65309 9.84659C3.90065 8.7316 5.41695 7.49273 6.53097 7.46176C7.14987 7.43079 7.42837 7.7405 7.33554 8.39091C7.27365 8.76258 7.36648 8.88646 7.70688 8.91743C8.14391 8.94895 8.5782 9.01104 9.00657 9.10327C9.12694 9.14129 9.25661 9.13751 9.37456 9.09254C9.49252 9.04757 9.59183 8.96404 9.65641 8.85549C10.1699 8.25903 10.8482 7.82798 11.6059 7.61662C11.9154 7.5237 12.1011 7.39981 12.163 7.05912C12.2484 6.56995 12.4158 6.09873 12.6581 5.66539C12.8747 5.26276 13.1532 4.92207 12.9985 4.39554C12.8747 3.96194 13.246 3.62125 13.5864 3.40444C15.0718 2.44432 16.619 2.01071 18.2591 2.97084C18.5957 3.11059 18.9496 3.20435 19.3112 3.24959C19.429 3.26194 19.5439 3.29332 19.6516 3.3425C21.0751 4.20971 22.6533 4.05485 24.2006 4.14777C24.8504 4.17874 24.8813 3.5593 25.098 3.21861C25.2527 2.97084 24.8195 2.97084 24.6957 2.81598C24.569 2.71273 24.4345 2.61953 24.2934 2.53723C23.9221 2.16557 23.9839 1.79391 24.4791 1.70099C25.0657 1.57496 25.6731 1.58187 26.2567 1.72121C26.8403 1.86054 27.3854 2.12877 27.8521 2.50626C28.2234 2.81598 28.1306 3.18764 27.6355 3.31153C27.3707 3.36403 27.1006 3.38483 26.8309 3.37347C26.1191 3.37347 25.7788 3.62125 25.5621 4.30263C25.4693 4.5504 25.624 4.58138 25.7478 4.67429C26.306 4.95343 26.7849 5.36885 27.1403 5.88219C27.2034 5.96083 27.2836 6.02402 27.3747 6.06695C27.4659 6.10989 27.5657 6.13144 27.6664 6.12997C28.8119 6.27982 29.9345 6.57111 31.0085 6.99718C31.1558 7.05775 31.3134 7.0893 31.4726 7.0901C33.1127 7.12107 34.2577 7.92634 35.0932 9.25813C35.4955 9.87756 35.5883 10.3421 35.3408 10.7757C35.2128 11.0046 35.023 11.1928 34.7932 11.3188C34.5633 11.4448 34.3027 11.5035 34.0411 11.4881L33.4624 11.5315ZM7.40671 15.6817C9.51097 16.2702 10.3155 18.0046 9.38719 19.9868C9.29436 20.1416 9.23247 20.3275 9.13963 20.4823C8.95396 20.7611 8.95396 20.885 9.3253 20.9779C10.2534 21.1538 11.1967 21.2368 12.1413 21.2257C12.4198 21.2257 12.4817 21.1018 12.5126 20.854C12.6508 19.7428 13.2035 18.725 14.0599 18.0046C14.1063 17.9735 14.1459 17.9331 14.176 17.8859C14.2061 17.8388 14.2261 17.7859 14.2349 17.7307C14.2436 17.6754 14.2408 17.6189 14.2266 17.5648C14.2125 17.5107 14.1873 17.46 14.1527 17.4161C13.5932 16.2898 13.1275 15.1192 12.7602 13.9163C12.6674 13.5756 12.5436 13.4827 12.2032 13.5756C11.3739 13.7607 10.5058 13.6397 9.75853 13.2349C9.60381 13.142 9.44908 13.0801 9.3253 13.2349C8.56351 13.9419 7.91624 14.7632 7.40671 15.6693V15.6817Z" fill="white"/>
</mask>
<g mask="url(#mask0_595_2612)">
<path d="M37.0337 0.0712891H2.0752V35.8933H37.0337V0.0712891Z" fill="#99A3B1"/>
</g>
<mask id="mask1_595_2612" style="mask-type:luminance" maskUnits="userSpaceOnUse" x="3" y="24" width="5" height="5">
<path d="M7.06701 26.3849C7.06701 27.6238 6.32433 28.5839 5.33409 28.6149C4.28196 28.6459 3.44645 27.7167 3.4774 26.4469C3.50834 25.177 4.34385 24.1859 5.39598 24.2479C6.32433 24.3098 7.06701 25.2699 7.06701 26.3849Z" fill="white"/>
</mask>
<g mask="url(#mask1_595_2612)">
<path d="M8.61136 22.6963H1.92725V30.1636H8.61136V22.6963Z" fill="#99A3B1"/>
</g>
<mask id="mask2_595_2612" style="mask-type:luminance" maskUnits="userSpaceOnUse" x="0" y="14" width="4" height="4">
<path d="M3.84834 15.234C3.81373 15.6824 3.66466 16.1143 3.41541 16.4885C3.16617 16.8627 2.82509 17.1666 2.42487 17.371C1.58935 17.8046 0.846674 17.3401 0.939509 16.3799C0.969424 15.9277 1.11268 15.4903 1.35606 15.1082C1.59944 14.726 1.93509 14.4114 2.33203 14.1933C3.16755 13.7163 3.87928 14.15 3.84834 15.234Z" fill="white"/>
</mask>
<g mask="url(#mask2_595_2612)">
<path d="M5.39542 12.4473H-0.617188V19.0814H5.39542V12.4473Z" fill="#99A3B1"/>
</g>
<mask id="mask3_595_2612" style="mask-type:luminance" maskUnits="userSpaceOnUse" x="31" y="4" width="4" height="3">
<path d="M33.2462 6.49977C32.4214 6.32945 31.6855 5.8677 31.1729 5.19895C31.1132 5.1267 31.0733 5.04022 31.0571 4.94794C31.0408 4.85566 31.0487 4.76073 31.08 4.67243C31.1324 4.58412 31.212 4.51522 31.3069 4.47612C31.4018 4.43702 31.5068 4.42983 31.6061 4.45562C32.4963 4.56627 33.3074 5.02226 33.8651 5.72547C33.9376 5.80282 33.9874 5.89859 34.0093 6.00236C34.0311 6.10613 34.024 6.2139 33.9889 6.31393C33.8341 6.53074 33.5866 6.49977 33.2462 6.49977Z" fill="white"/>
</mask>
<g mask="url(#mask3_595_2612)">
<path d="M35.5734 2.89355H29.4927V8.04727H35.5734V2.89355Z" fill="#99A3B1"/>
</g>
<mask id="mask4_595_2612" style="mask-type:luminance" maskUnits="userSpaceOnUse" x="8" y="3" width="4" height="3">
<path d="M9.35685 5.1678C9.07834 5.13683 8.76889 5.19877 8.67606 4.88905C8.58323 4.57934 8.76889 4.42448 8.95456 4.23865C9.54885 3.68956 10.3136 3.36152 11.1207 3.30949C11.2323 3.28645 11.3482 3.29779 11.4531 3.34203C11.5581 3.38626 11.6472 3.46131 11.7087 3.55727C11.8324 3.80504 11.6777 3.99087 11.523 4.14573C10.9256 4.70489 10.168 5.06236 9.35685 5.1678Z" fill="white"/>
</mask>
<g mask="url(#mask4_595_2612)">
<path d="M13.3028 1.75293H7.10449V6.71462H13.3028V1.75293Z" fill="#99A3B1"/>
</g>
<mask id="mask5_595_2612" style="mask-type:luminance" maskUnits="userSpaceOnUse" x="17" y="0" width="5" height="3">
<path d="M19.383 2.00941C18.9619 2.03577 18.54 1.97244 18.1452 1.82358C17.8048 1.66872 17.712 1.38997 18.0833 1.20414C18.4965 1.00568 18.9462 0.894964 19.4042 0.878973C19.8622 0.862982 20.3186 0.942059 20.7446 1.11123C21.1159 1.26609 21.1159 1.51386 20.7446 1.73066C20.3209 1.93535 19.853 2.03115 19.383 2.00941Z" fill="white"/>
</mask>
<g mask="url(#mask5_595_2612)">
<path d="M22.5675 -0.672852H16.2949V3.5579H22.5675V-0.672852Z" fill="#99A3B1"/>
</g>
<mask id="mask6_595_2612" style="mask-type:luminance" maskUnits="userSpaceOnUse" x="17" y="10" width="7" height="6">
<path d="M20.7756 15.0192C20.3643 15.0536 19.9508 14.9899 19.5688 14.8334C19.1184 14.6833 18.7224 14.4033 18.4306 14.0285C18.1388 13.6538 17.9642 13.2011 17.9287 12.7273C17.941 12.2526 18.0949 11.7925 18.3706 11.4061C18.6463 11.0198 19.0313 10.7248 19.476 10.5593C19.8857 10.3897 20.3271 10.3102 20.7703 10.3262C21.2134 10.3423 21.6479 10.4534 22.0444 10.6522C23.0656 11.1477 23.6226 12.1079 23.4369 13.068C23.3137 13.5899 23.029 14.0596 22.6233 14.41C22.2177 14.7603 21.7118 14.9736 21.1779 15.0192H20.7756Z" fill="white"/>
</mask>
<g mask="url(#mask6_595_2612)">
<path d="M25.0181 8.77344H16.3813V16.5814H25.0181V8.77344Z" fill="#99A3B1"/>
</g>
<mask id="mask7_595_2612" style="mask-type:luminance" maskUnits="userSpaceOnUse" x="27" y="29" width="5" height="5">
<path d="M29.9351 33.5698C29.4058 33.5787 28.8943 33.3784 28.5116 33.0123C28.3152 32.8259 28.1611 32.5995 28.0597 32.3484C27.9583 32.0973 27.9119 31.8273 27.9237 31.5566C27.9203 31.2797 27.9735 31.0051 28.0799 30.7494C28.1863 30.4938 28.3438 30.2626 28.5426 30.07C28.9583 29.6971 29.5008 29.4976 30.0589 29.5125C30.6258 29.5124 31.1702 29.7348 31.5752 30.1319L31.0801 30.7204C30.8084 30.4493 30.4424 30.2939 30.0589 30.2868C29.7281 30.2864 29.4088 30.4077 29.1615 30.6275C29.0342 30.7413 28.934 30.8821 28.8682 31.0397C28.8023 31.1972 28.7725 31.3675 28.7808 31.5381C28.7766 31.71 28.8073 31.8811 28.8711 32.0408C28.9349 32.2006 29.0305 32.3457 29.1521 32.4673C29.2736 32.589 29.4186 32.6846 29.5782 32.7485C29.7378 32.8124 29.9087 32.8431 30.0805 32.8389C30.2805 32.833 30.4771 32.7859 30.6581 32.7007C30.8391 32.6154 31.0007 32.4938 31.1327 32.3433L31.6278 32.8698C31.4088 33.0967 31.1455 33.2759 30.8543 33.3963C30.5631 33.5167 30.2502 33.5758 29.9351 33.5698Z" fill="white"/>
</mask>
<g mask="url(#mask7_595_2612)">
<path d="M33.1839 27.9629H26.376V35.1174H33.1839V27.9629Z" fill="#99A3B1"/>
</g>
<mask id="mask8_595_2612" style="mask-type:luminance" maskUnits="userSpaceOnUse" x="32" y="29" width="6" height="5">
<path d="M34.042 32.4853C34.1598 32.6033 34.2997 32.6969 34.4537 32.7607C34.6077 32.8246 34.7727 32.8575 34.9394 32.8575C35.1061 32.8575 35.2711 32.8246 35.4251 32.7607C35.5791 32.6969 35.719 32.6033 35.8368 32.4853C35.9543 32.3621 36.0452 32.2161 36.1037 32.0562C36.1623 31.8963 36.1873 31.7261 36.1772 31.5561C36.1832 31.2148 36.0618 30.8835 35.8368 30.627C35.719 30.509 35.5791 30.4154 35.4251 30.3515C35.2711 30.2876 35.1061 30.2548 34.9394 30.2548C34.7727 30.2548 34.6077 30.2876 34.4537 30.3515C34.2997 30.4154 34.1598 30.509 34.042 30.627C33.9245 30.7501 33.8337 30.8962 33.7751 31.0561C33.7165 31.2159 33.6915 31.3862 33.7016 31.5561C33.6956 31.8974 33.817 32.2287 34.042 32.4853ZM36.4248 32.9808C36.0229 33.3598 35.4916 33.5708 34.9394 33.5708C34.3873 33.5708 33.856 33.3598 33.4541 32.9808C33.0767 32.5904 32.8657 32.0684 32.8657 31.5252C32.8657 30.9819 33.0767 30.4599 33.4541 30.0695C33.856 29.6905 34.3873 29.4795 34.9394 29.4795C35.4916 29.4795 36.0229 29.6905 36.4248 30.0695C36.6188 30.2577 36.7713 30.4844 36.8726 30.7351C36.9738 30.9858 37.0216 31.2549 37.0127 31.5252C37.0257 31.7951 36.9808 32.0647 36.881 32.3157C36.7812 32.5668 36.6288 32.7936 36.4341 32.9808H36.4248Z" fill="white"/>
</mask>
<g mask="url(#mask8_595_2612)">
<path d="M38.5688 27.9326H31.3276V35.1181H38.5688V27.9326Z" fill="#99A3B1"/>
</g>
<mask id="mask9_595_2612" style="mask-type:luminance" maskUnits="userSpaceOnUse" x="38" y="29" width="5" height="5">
<path d="M39.5591 31.373V33.5101H38.7236V29.5767H39.5591V30.3014C39.6777 30.0587 39.8737 29.8625 40.1162 29.7439C40.3532 29.6112 40.6184 29.5369 40.8898 29.5271C41.0881 29.5175 41.2864 29.5482 41.4725 29.6174C41.6586 29.6866 41.8289 29.7929 41.9729 29.9297C42.115 30.0891 42.2238 30.2754 42.2929 30.4775C42.3619 30.6796 42.3899 30.8936 42.3751 31.1067V33.5225H41.5396V31.3544C41.5396 30.6111 41.2302 30.2704 40.6422 30.2704C40.3688 30.2684 40.1042 30.3677 39.8995 30.5492C39.785 30.6524 39.695 30.78 39.6361 30.9225C39.5772 31.0651 39.5509 31.219 39.5591 31.373Z" fill="white"/>
</mask>
<g mask="url(#mask9_595_2612)">
<path d="M43.9218 27.9658H37.1758V35.0584H43.9218V27.9658Z" fill="#99A3B1"/>
</g>
<mask id="mask10_595_2612" style="mask-type:luminance" maskUnits="userSpaceOnUse" x="43" y="29" width="5" height="5">
<path d="M47.078 32.3295C47.0872 32.5005 47.0556 32.6712 46.9856 32.8274C46.9156 32.9837 46.8094 33.1209 46.6757 33.2277C46.3746 33.4591 46.003 33.5794 45.6235 33.5684C45.3186 33.5596 45.0164 33.5075 44.7261 33.4135C44.4243 33.3194 44.1414 33.1726 43.8906 32.9799L44.2929 32.3295C44.6685 32.6434 45.135 32.828 45.6235 32.8561C45.7784 32.8707 45.933 32.8265 46.0568 32.7322C46.1111 32.6948 46.1542 32.6434 46.1815 32.5834C46.2087 32.5233 46.2191 32.457 46.2115 32.3915C46.2115 32.2056 45.9639 32.0198 45.4379 31.865C45.4069 31.865 45.376 31.834 45.345 31.834C44.5095 31.6172 44.1072 31.2455 44.1072 30.719C44.104 30.5502 44.1417 30.383 44.2171 30.232C44.2926 30.0809 44.4035 29.9505 44.5405 29.8518C44.8628 29.6157 45.2554 29.4956 45.6545 29.5111C46.1191 29.506 46.5737 29.6468 46.9542 29.9137L46.6447 30.5332C46.3341 30.3243 45.9668 30.2161 45.5926 30.2234C45.4228 30.2184 45.2539 30.2501 45.0975 30.3164C45.0406 30.3454 44.9931 30.3898 44.9603 30.4446C44.9274 30.4993 44.9106 30.5622 44.9118 30.6261C44.9128 30.6855 44.9308 30.7433 44.9637 30.7927C44.9967 30.8422 45.0431 30.8811 45.0975 30.9048C45.2179 30.9555 45.3421 30.9969 45.4688 31.0287C45.6235 31.0597 45.7783 31.1216 45.902 31.1526C46.0258 31.1836 46.1496 31.2455 46.2734 31.2765C46.4036 31.337 46.528 31.4096 46.6447 31.4933C46.788 31.5781 46.9045 31.7014 46.9811 31.8493C47.0577 31.9971 47.0913 32.1635 47.078 32.3295Z" fill="white"/>
</mask>
<g mask="url(#mask10_595_2612)">
<path d="M48.6261 27.9629H42.3442V35.1174H48.6261V27.9629Z" fill="#99A3B1"/>
</g>
<mask id="mask11_595_2612" style="mask-type:luminance" maskUnits="userSpaceOnUse" x="48" y="29" width="5" height="5">
<path d="M51.5342 31.7113V29.5742H52.3697V33.5386H51.5342V32.8263C51.4157 33.0689 51.2196 33.2651 50.9772 33.3838C50.7401 33.5164 50.475 33.5908 50.2036 33.6006C50.0052 33.6102 49.807 33.5794 49.6208 33.5102C49.4347 33.441 49.2645 33.3348 49.1205 33.1979C48.9784 33.0385 48.8696 32.8523 48.8005 32.6502C48.7314 32.448 48.7034 32.2341 48.7182 32.021V29.5742H49.5537V31.7422C49.5537 32.4856 49.8632 32.8263 50.4511 32.8263C50.7246 32.8283 50.9891 32.729 51.1938 32.5475C51.3091 32.4423 51.3995 32.3126 51.4584 32.1679C51.5173 32.0232 51.5432 31.8672 51.5342 31.7113Z" fill="white"/>
</mask>
<g mask="url(#mask11_595_2612)">
<path d="M53.9174 28.0264H47.1714V35.1499H53.9174V28.0264Z" fill="#99A3B1"/>
</g>
<mask id="mask12_595_2612" style="mask-type:luminance" maskUnits="userSpaceOnUse" x="54" y="27" width="2" height="7">
<path d="M55.1241 27.9951H54.2886V33.5081H55.1241V27.9951Z" fill="white"/>
</mask>
<g mask="url(#mask12_595_2612)">
<path d="M56.6717 26.4482H52.7417V35.0584H56.6717V26.4482Z" fill="#99A3B1"/>
</g>
<mask id="mask13_595_2612" style="mask-type:luminance" maskUnits="userSpaceOnUse" x="56" y="28" width="4" height="6">
<path d="M58.0951 30.2242V32.2374C58.0942 32.4051 58.1486 32.5684 58.2498 32.702C58.3 32.7576 58.3626 32.8006 58.4325 32.8275C58.5024 32.8544 58.5776 32.8645 58.6521 32.8569C58.85 32.8347 59.035 32.7476 59.1782 32.6091L59.5186 33.1975C59.2582 33.4438 58.9173 33.5869 58.5593 33.6002C58.3924 33.602 58.2269 33.57 58.0726 33.5061C57.9184 33.4422 57.7787 33.3478 57.6619 33.2285C57.5368 33.0967 57.4394 32.941 57.3756 32.7707C57.3118 32.6004 57.2829 32.4191 57.2905 32.2374V30.2552H56.7954V29.5738H57.2905V28.335H58.126V29.5738H59.1782V30.2552H58.0951V30.2242Z" fill="white"/>
</mask>
<g mask="url(#mask13_595_2612)">
<path d="M61.0652 26.7871H55.2476V35.1495H61.0652V26.7871Z" fill="#99A3B1"/>
</g>
<mask id="mask14_595_2612" style="mask-type:luminance" maskUnits="userSpaceOnUse" x="60" y="27" width="2" height="7">
<path d="M61.7461 33.5086H60.9105V29.5752H61.7461V33.5086ZM60.9632 28.7699C60.878 28.684 60.8253 28.5712 60.8139 28.4508C60.8024 28.3303 60.8331 28.2096 60.9006 28.1092C60.9681 28.0088 61.0682 27.9349 61.184 27.9001C61.2998 27.8653 61.424 27.8717 61.5356 27.9182C61.6472 27.9647 61.7393 28.0485 61.7961 28.1553C61.8529 28.2621 61.871 28.3854 61.8473 28.504C61.8236 28.6227 61.7595 28.7294 61.666 28.8061C61.5726 28.8829 61.4554 28.9248 61.3345 28.9248C61.2649 28.9294 61.1951 28.9179 61.1307 28.891C61.0662 28.8641 61.0089 28.8227 60.9632 28.7699Z" fill="white"/>
</mask>
<g mask="url(#mask14_595_2612)">
<path d="M63.4171 26.3232H59.2705V35.0573H63.4171V26.3232Z" fill="#99A3B1"/>
</g>
<mask id="mask15_595_2612" style="mask-type:luminance" maskUnits="userSpaceOnUse" x="63" y="29" width="5" height="5">
<path d="M64.5318 31.373V33.5101H63.6963V29.5767H64.5318V30.3014C64.6503 30.0587 64.8463 29.8625 65.0888 29.7439C65.3258 29.6112 65.591 29.5369 65.8624 29.5271C66.0608 29.5175 66.259 29.5482 66.4452 29.6174C66.6313 29.6866 66.8015 29.7929 66.9455 29.9297C67.0876 30.0891 67.1964 30.2754 67.2655 30.4775C67.3346 30.6796 67.3626 30.8936 67.3478 31.1067V33.5225H66.5123V31.3544C66.5123 30.6111 66.2028 30.2704 65.6149 30.2704C65.3414 30.2684 65.0769 30.3677 64.8722 30.5492C64.7632 30.6567 64.6769 30.785 64.6184 30.9265C64.56 31.068 64.5305 31.2199 64.5318 31.373Z" fill="white"/>
</mask>
<g mask="url(#mask15_595_2612)">
<path d="M68.8944 27.9658H62.1484V35.0584H68.8944V27.9658Z" fill="#99A3B1"/>
</g>
<mask id="mask16_595_2612" style="mask-type:luminance" maskUnits="userSpaceOnUse" x="69" y="29" width="4" height="7">
<path d="M69.8229 31.4029C69.8118 31.7116 69.923 32.0122 70.1324 32.2391C70.2283 32.3577 70.3518 32.4507 70.4921 32.5101C70.6324 32.5695 70.7852 32.5935 70.9369 32.5798C71.092 32.5828 71.2461 32.5542 71.3897 32.4956C71.5334 32.437 71.6636 32.3498 71.7725 32.2391C71.9818 32.0122 72.093 31.7116 72.0819 31.4029C72.0939 31.0848 71.9831 30.7742 71.7725 30.5357C71.668 30.4194 71.5385 30.3283 71.3938 30.2693C71.2491 30.2103 71.0929 30.1849 70.9369 30.195C70.7828 30.1874 70.6292 30.2172 70.4891 30.2819C70.349 30.3466 70.2266 30.4443 70.1324 30.5667C70.0264 30.6775 69.9442 30.8088 69.891 30.9527C69.8378 31.0965 69.8146 31.2497 69.8229 31.4029ZM72.8865 29.5756V33.0134C72.9076 33.301 72.8691 33.5897 72.7732 33.8616C72.6774 34.1334 72.5263 34.3825 72.3295 34.593C72.1353 34.7748 71.9063 34.9153 71.6563 35.0058C71.4063 35.0963 71.1405 35.135 70.8751 35.1195C70.2906 35.1242 69.7224 34.9274 69.2659 34.562L69.6682 33.9426C70.0026 34.2113 70.4155 34.3635 70.8441 34.3762C71.0118 34.3904 71.1806 34.3703 71.3402 34.3171C71.4998 34.2638 71.6469 34.1785 71.7725 34.0665C71.8913 33.9379 71.9827 33.7865 72.0412 33.6214C72.0998 33.4564 72.1241 33.2811 72.1129 33.1064V32.6108C71.9968 32.8449 71.8137 33.039 71.5868 33.1683C71.3514 33.3049 71.0852 33.3795 70.8132 33.3851C70.5691 33.3919 70.3265 33.3455 70.1021 33.2493C69.8777 33.153 69.6769 33.0092 69.5135 32.8276C69.1794 32.454 69.002 31.9659 69.0184 31.4648C68.9968 30.9629 69.1748 30.4729 69.5135 30.1021C69.6769 29.9205 69.8777 29.7767 70.1021 29.6804C70.3265 29.5842 70.5691 29.5378 70.8132 29.5446C71.0621 29.5381 71.3087 29.5943 71.5304 29.7079C71.7521 29.8215 71.9417 29.989 72.0819 30.195V29.5756H72.8865Z" fill="white"/>
</mask>
<g mask="url(#mask16_595_2612)">
<path d="M74.4333 27.9951H67.4707V36.6672H74.4333V27.9951Z" fill="#99A3B1"/>
</g>
<mask id="mask17_595_2612" style="mask-type:luminance" maskUnits="userSpaceOnUse" x="28" y="17" width="9" height="9">
<path d="M34.5744 17.0605H36.527V25.8566H34.5744L30.3968 20.3436V25.8566H28.4473V17.0605H30.2761L34.5744 22.7284V17.0605Z" fill="white"/>
</mask>
<g mask="url(#mask17_595_2612)">
<path d="M38.074 15.5127H26.9028V27.4059H38.074V15.5127Z" fill="#99A3B1"/>
</g>
<mask id="mask18_595_2612" style="mask-type:luminance" maskUnits="userSpaceOnUse" x="38" y="18" width="7" height="8">
<path d="M42.56 20.8717C42.2919 20.646 41.9511 20.525 41.6008 20.531C41.2331 20.5349 40.876 20.6541 40.5796 20.8717C40.4263 20.9755 40.299 21.1134 40.2077 21.2746C40.1165 21.4358 40.0637 21.6159 40.0535 21.8009H43.0149C42.9796 21.4466 42.8182 21.1168 42.56 20.8717ZM44.3549 24.8671C43.6351 25.5692 42.6677 25.9588 41.6626 25.9511C41.1968 25.9708 40.7319 25.8959 40.2958 25.7309C39.8597 25.5658 39.4615 25.3142 39.1252 24.991C38.4444 24.3715 38.1349 23.5043 38.1349 22.4513C38.1129 21.9794 38.1928 21.5083 38.369 21.0701C38.5452 20.6318 38.8136 20.2367 39.1561 19.9116C39.8109 19.3021 40.6757 18.9692 41.5698 18.9824C42.4313 18.9531 43.2717 19.252 43.9216 19.8187C44.2462 20.1084 44.501 20.4679 44.6671 20.8701C44.8333 21.2724 44.9064 21.707 44.8809 22.1416V23.1327H39.9607C39.987 23.3163 40.0533 23.492 40.1549 23.6472C40.2565 23.8024 40.3909 23.9334 40.5486 24.0309C40.8707 24.2674 41.2635 24.3875 41.6626 24.3715C41.9686 24.3804 42.273 24.3242 42.5557 24.2068C42.8383 24.0893 43.093 23.9133 43.3027 23.6902L44.3549 24.8671Z" fill="white"/>
</mask>
<g mask="url(#mask18_595_2612)">
<path d="M46.4289 17.4346H36.5884V27.5004H46.4289V17.4346Z" fill="#99A3B1"/>
</g>
<mask id="mask19_595_2612" style="mask-type:luminance" maskUnits="userSpaceOnUse" x="46" y="16" width="8" height="10">
<path d="M48.13 22.4818C48.1068 22.9691 48.2731 23.4464 48.5941 23.8135C48.7307 23.9767 48.901 24.1084 49.0934 24.1993C49.2857 24.2902 49.4955 24.3382 49.7081 24.3401C49.9248 24.3353 50.1382 24.2862 50.3352 24.1956C50.5321 24.1051 50.7084 23.975 50.8531 23.8135C51.0205 23.636 51.1505 23.4266 51.2356 23.1979C51.3206 22.9691 51.3589 22.7256 51.3482 22.4818C51.3661 21.9858 51.2008 21.5007 50.8841 21.119C50.7475 20.9458 50.5736 20.8056 50.3753 20.7091C50.1771 20.6126 49.9596 20.5621 49.7391 20.5615C49.5231 20.5624 49.3102 20.6132 49.117 20.7099C48.9238 20.8066 48.7554 20.9466 48.6251 21.119C48.2864 21.4898 48.1083 21.9798 48.13 22.4818ZM50.1723 18.9819C50.5768 18.9756 50.9777 19.0583 51.3466 19.2242C51.7156 19.3902 52.0437 19.6352 52.3075 19.9421C52.6196 20.2722 52.8624 20.6615 53.0219 21.087C53.1813 21.5126 53.2541 21.9657 53.2359 22.4198C53.2607 23.3538 52.9287 24.2621 52.3075 24.9595C52.0471 25.2747 51.7211 25.5295 51.3524 25.706C50.9837 25.8825 50.581 25.9765 50.1723 25.9816C49.7876 25.9838 49.4078 25.8952 49.0637 25.723C48.7196 25.5508 48.4209 25.2998 48.1918 24.9905V25.8577H46.3042V16.5352H48.1918V19.8491C48.4328 19.5616 48.737 19.3337 49.0805 19.1832C49.4241 19.0328 49.7978 18.9639 50.1723 18.9819Z" fill="white"/>
</mask>
<g mask="url(#mask19_595_2612)">
<path d="M54.783 14.9873H44.7568V27.5309H54.783V14.9873Z" fill="#99A3B1"/>
</g>
<mask id="mask20_595_2612" style="mask-type:luminance" maskUnits="userSpaceOnUse" x="54" y="19" width="7" height="7">
<path d="M58.992 22.7292V19.1055H60.8797V25.8573H58.992V24.9591C58.795 25.2642 58.5246 25.5148 58.2056 25.688C57.8866 25.8612 57.5292 25.9513 57.1663 25.9502C56.4779 25.9661 55.811 25.7102 55.3096 25.2379C54.8145 24.7733 54.5669 24.0919 54.5669 23.1628V19.1055H56.4545V22.7911C56.4545 23.8442 56.8259 24.3397 57.5995 24.3397C57.7832 24.3433 57.9657 24.3094 58.136 24.2402C58.3062 24.171 58.4606 24.0679 58.5897 23.9371C58.869 23.5984 59.0124 23.1678 58.992 22.7292Z" fill="white"/>
</mask>
<g mask="url(#mask20_595_2612)">
<path d="M62.4273 17.5586H53.02V27.5006H62.4273V17.5586Z" fill="#99A3B1"/>
</g>
<mask id="mask21_595_2612" style="mask-type:luminance" maskUnits="userSpaceOnUse" x="62" y="16" width="3" height="10">
<path d="M64.5625 16.5352H62.6748V25.8577H64.5625V16.5352Z" fill="white"/>
</mask>
<g mask="url(#mask21_595_2612)">
<path d="M66.1096 14.9873H61.1274V27.407H66.1096V14.9873Z" fill="#99A3B1"/>
</g>
<mask id="mask22_595_2612" style="mask-type:luminance" maskUnits="userSpaceOnUse" x="65" y="19" width="8" height="7">
<path d="M70.1632 23.2863V22.9456H68.9873C68.2446 22.9456 67.8424 23.1933 67.8424 23.6579C67.8354 23.7672 67.8575 23.8763 67.9064 23.9743C67.9554 24.0722 68.0294 24.1554 68.1209 24.2154C68.3545 24.3531 68.6239 24.4178 68.8945 24.4012C69.2208 24.4077 69.5389 24.298 69.7919 24.0915C69.9141 23.9972 70.0117 23.8748 70.0764 23.7345C70.141 23.5943 70.1708 23.4405 70.1632 23.2863ZM72.0818 25.8569H70.318V25.0517C70.1138 25.3379 69.8446 25.5714 69.5325 25.7329C69.2205 25.8945 68.8745 25.9795 68.5231 25.9808C67.8695 25.9996 67.2315 25.7794 66.7283 25.3614C66.4826 25.16 66.2875 24.9039 66.1585 24.6134C66.0296 24.323 65.9703 24.0064 65.9857 23.6889C65.9675 23.3888 66.0262 23.0891 66.1561 22.8181C66.2861 22.5471 66.4831 22.3138 66.7283 22.1403C67.3501 21.7584 68.0732 21.5747 68.8017 21.6138H70.1942V21.5828C70.1942 20.8705 69.8228 20.4988 69.0492 20.4988C68.7006 20.5003 68.3549 20.5632 68.028 20.6846C67.6886 20.7861 67.373 20.9546 67.0997 21.1802L66.2642 19.9723C67.1433 19.3296 68.2083 18.9924 69.2968 19.0121C70.018 18.9842 70.7274 19.2027 71.3082 19.6316C71.8343 20.0342 72.0818 20.6846 72.0818 21.5828V25.8569Z" fill="white"/>
</mask>
<g mask="url(#mask22_595_2612)">
<path d="M73.6286 17.4629H64.438V27.5287H73.6286V17.4629Z" fill="#99A3B1"/>
</g>
</svg>
