<svg width="119" height="28" viewBox="0 0 119 28" fill="none" xmlns="http://www.w3.org/2000/svg">
<path d="M39.1208 26.5129L39.6135 26.8918C39.2149 27.4132 38.5851 27.7551 37.875 27.7551C36.6723 27.7551 35.695 26.7794 35.695 25.5813C35.695 24.3831 36.6735 23.4075 37.875 23.4075C38.5851 23.4075 39.2149 23.7493 39.6135 24.2707L39.1208 24.6496C38.8338 24.2707 38.3852 24.0286 37.875 24.0286C37.0151 24.0286 36.3179 24.7238 36.3179 25.5813C36.3179 26.4387 37.0151 27.134 37.875 27.134C38.3852 27.1351 38.8338 26.8918 39.1208 26.5129Z" fill="#747D8A"/>
<path d="M42.7267 27.1351H45.2182V27.7562H42.1038V23.4075H42.7267V27.1351Z" fill="#747D8A"/>
<path d="M49.3923 27.7562C48.1896 27.7562 47.2123 26.7806 47.2123 25.5824C47.2123 24.3843 48.1907 23.4086 49.3923 23.4086C50.5939 23.4086 51.5724 24.3843 51.5724 25.5824C51.5724 26.7806 50.5951 27.7562 49.3923 27.7562ZM47.8352 25.5813C47.8352 26.4387 48.5324 27.134 49.3923 27.134C50.2523 27.134 50.9495 26.4387 50.9495 25.5813C50.9495 24.7238 50.2523 24.0286 49.3923 24.0286C48.5324 24.0286 47.8352 24.725 47.8352 25.5813Z" fill="#747D8A"/>
<path d="M55.7454 27.7562C54.7111 27.7562 53.8768 26.9242 53.8768 25.893V23.4086H54.4996V25.893C54.4996 26.5824 55.0539 27.1351 55.7454 27.1351C56.431 27.1351 56.9911 26.5824 56.9911 25.893V23.4086H57.614V25.893C57.6151 26.9231 56.7796 27.7562 55.7454 27.7562Z" fill="#747D8A"/>
<path d="M60.5482 23.2522L60.5424 23.258V23.2522H60.5482ZM60.5424 27.7562V23.4075H62.0996C63.3023 23.4075 64.2796 24.3831 64.2796 25.5813C64.2796 26.7794 63.3012 27.7551 62.0996 27.7551H60.5424V27.7562ZM62.0996 27.1351C62.9595 27.1351 63.6568 26.4399 63.6568 25.5824C63.6568 24.725 62.9595 24.0297 62.0996 24.0297H61.1653V27.1351H62.0996Z" fill="#747D8A"/>
<path d="M70.5083 24.6496C70.5083 24.9915 70.7884 25.2707 71.1312 25.2707C71.8168 25.2707 72.3769 25.8292 72.3769 26.5129C72.3769 27.2023 71.8157 27.7551 71.1312 27.7551C70.5897 27.7551 70.1283 27.4074 69.954 26.9289L70.5455 26.718C70.6269 26.9602 70.8569 27.134 71.1312 27.134C71.474 27.134 71.7541 26.8547 71.7541 26.5129C71.7541 26.1711 71.474 25.8918 71.1312 25.8918C70.4398 25.8918 69.8855 25.3391 69.8855 24.6496C69.8855 23.966 70.4398 23.4075 71.1312 23.4075C71.6727 23.4075 72.1341 23.7551 72.3084 24.2337L71.7169 24.4445C71.6355 24.2024 71.3996 24.0286 71.1312 24.0286C70.7884 24.0286 70.5083 24.3078 70.5083 24.6496Z" fill="#747D8A"/>
<path d="M76.6127 27.7562C75.4099 27.7562 74.4326 26.7806 74.4326 25.5824C74.4326 24.3843 75.4111 23.4086 76.6127 23.4086C77.8143 23.4086 78.7927 24.3843 78.7927 25.5824C78.7927 26.7806 77.8154 27.7562 76.6127 27.7562ZM75.0555 25.5813C75.0555 26.4387 75.7527 27.134 76.6127 27.134C77.4726 27.134 78.1699 26.4387 78.1699 25.5813C78.1699 24.7238 77.4726 24.0286 76.6127 24.0286C75.7527 24.0286 75.0555 24.725 75.0555 25.5813Z" fill="#747D8A"/>
<path d="M81.8455 27.1351H84.337V27.7562H81.2226V23.4075H81.8455V27.1351Z" fill="#747D8A"/>
<path d="M88.6971 27.7562C87.6628 27.7562 86.8284 26.9242 86.8284 25.893V23.4086H87.4513V25.893C87.4513 26.5824 88.0056 27.1351 88.6971 27.1351C89.3827 27.1351 89.9428 26.5824 89.9428 25.893V23.4086H90.5657V25.893C90.5657 26.9231 89.7313 27.7562 88.6971 27.7562Z" fill="#747D8A"/>
<path d="M96.7955 23.4075V24.0286H95.2384V27.7562H94.6155V24.0286H93.0583V23.4075H96.7955Z" fill="#747D8A"/>
<path d="M99.4114 27.7562V23.4075H100.034V27.7562H99.4114Z" fill="#747D8A"/>
<path d="M104.643 27.7562C103.44 27.7562 102.463 26.7806 102.463 25.5824C102.463 24.3843 103.441 23.4086 104.643 23.4086C105.846 23.4086 106.823 24.3843 106.823 25.5824C106.823 26.7806 105.846 27.7562 104.643 27.7562ZM103.086 25.5813C103.086 26.4387 103.783 27.134 104.643 27.134C105.503 27.134 106.2 26.4387 106.2 25.5813C106.2 24.7238 105.503 24.0286 104.643 24.0286C103.783 24.0286 103.086 24.725 103.086 25.5813Z" fill="#747D8A"/>
<path d="M112.99 23.4075V27.7562H112.953L109.876 24.8246V27.7562H109.253V23.4075H109.284L112.368 26.3391V23.4075H112.99Z" fill="#747D8A"/>
<path d="M116.353 24.6496C116.353 24.9915 116.633 25.2707 116.976 25.2707C117.662 25.2707 118.222 25.8292 118.222 26.5129C118.222 27.2023 117.661 27.7551 116.976 27.7551C116.435 27.7551 115.973 27.4074 115.799 26.9289L116.39 26.718C116.472 26.9602 116.702 27.134 116.976 27.134C117.319 27.134 117.599 26.8547 117.599 26.5129C117.599 26.1711 117.319 25.8918 116.976 25.8918C116.285 25.8918 115.73 25.3391 115.73 24.6496C115.73 23.966 116.285 23.4075 116.976 23.4075C117.518 23.4075 117.979 23.7551 118.153 24.2337L117.562 24.4445C117.48 24.2024 117.244 24.0286 116.976 24.0286C116.634 24.0286 116.353 24.3078 116.353 24.6496Z" fill="#747D8A"/>
<path d="M24.474 24.7284H20.7182V24.0262H23.7698V18.7864H24.474V24.7284Z" fill="#747D8A"/>
<path d="M27.0596 27.0563H23.3038V26.3541H26.3554V18.7864H27.0596V27.0563Z" fill="#747D8A"/>
<path d="M33.2674 25.9451H29.0421V18.7864H29.7464V25.2429H33.2674V25.9451Z" fill="#747D8A"/>
<path d="M24.1219 19.5176C24.5269 19.5176 24.8552 19.1902 24.8552 18.7864C24.8552 18.3826 24.5269 18.0553 24.1219 18.0553C23.717 18.0553 23.3887 18.3826 23.3887 18.7864C23.3887 19.1902 23.717 19.5176 24.1219 19.5176Z" fill="#747D8A"/>
<path d="M26.7075 19.5176C27.1125 19.5176 27.4408 19.1902 27.4408 18.7864C27.4408 18.3826 27.1125 18.0553 26.7075 18.0553C26.3026 18.0553 25.9743 18.3826 25.9743 18.7864C25.9743 19.1902 26.3026 19.5176 26.7075 19.5176Z" fill="#747D8A"/>
<path d="M29.3942 19.5176C29.7992 19.5176 30.1275 19.1902 30.1275 18.7864C30.1275 18.3826 29.7992 18.0553 29.3942 18.0553C28.9893 18.0553 28.661 18.3826 28.661 18.7864C28.661 19.1902 28.9893 19.5176 29.3942 19.5176Z" fill="#747D8A"/>
<path d="M33.2674 26.3252C33.6724 26.3252 34.0007 25.9978 34.0007 25.594C34.0007 25.1902 33.6724 24.8629 33.2674 24.8629C32.8625 24.8629 32.5342 25.1902 32.5342 25.594C32.5342 25.9978 32.8625 26.3252 33.2674 26.3252Z" fill="#747D8A"/>
<path d="M23.3038 27.4364C23.7088 27.4364 24.0371 27.1091 24.0371 26.7052C24.0371 26.3014 23.7088 25.9741 23.3038 25.9741C22.8989 25.9741 22.5706 26.3014 22.5706 26.7052C22.5706 27.1091 22.8989 27.4364 23.3038 27.4364Z" fill="#747D8A"/>
<path d="M20.7182 25.1085C21.1232 25.1085 21.4515 24.7811 21.4515 24.3773C21.4515 23.9735 21.1232 23.6462 20.7182 23.6462C20.3133 23.6462 19.985 23.9735 19.985 24.3773C19.985 24.7811 20.3133 25.1085 20.7182 25.1085Z" fill="#747D8A"/>
<path d="M70.9534 8.62315C71.5019 7.7877 71.8191 6.78076 71.8191 5.68575C71.8191 2.69158 69.3648 0.244323 66.3621 0.244323H53.6281V20.3994H67.4021C70.9534 20.3994 73.8411 17.5199 73.8411 13.9788C73.8411 11.732 72.686 9.77493 70.9534 8.62315ZM57.2375 3.84336H66.3911C67.4021 3.84336 68.2388 4.67881 68.2388 5.68575C68.2388 6.69385 67.4009 7.52814 66.3911 7.52814H57.2375V3.84336ZM67.4021 16.7714V16.8004H57.2375V11.1283H67.4021C68.9616 11.1283 70.2317 12.3948 70.2317 13.9499C70.2317 15.5049 68.9616 16.7714 67.4021 16.7714Z" fill="#99A3B1"/>
<path d="M92.6097 10.3219C92.6097 13.8919 89.693 16.8004 86.1126 16.8004C82.5323 16.8004 79.6155 13.8919 79.6155 10.3219V0.244323H76.0061V10.3219C76.0061 15.8792 80.5393 20.3994 86.1126 20.3994C91.6859 20.3994 96.2191 15.8792 96.2191 10.3219V0.244323H92.6097V10.3219Z" fill="#99A3B1"/>
<path d="M118.223 5.80047V5.68575C118.223 2.69158 115.769 0.244323 112.766 0.244323H104.564C101.561 0.244323 99.1348 2.69158 99.1348 5.68575V5.80047C99.1348 6.95225 99.4811 8.01713 100.088 8.88155C100.29 9.19788 100.521 9.48641 100.78 9.74481C101.762 10.695 103.09 11.2709 104.563 11.2709H111.84C113.37 11.2709 114.64 12.5084 114.64 14.0345C114.64 15.5605 113.37 16.798 111.84 16.798H105.517C103.986 16.798 102.745 15.5605 102.745 14.0345H99.1359C99.1359 17.5477 101.995 20.3982 105.518 20.3982H111.842C115.365 20.3982 118.224 17.5477 118.224 14.0345C118.224 12.5084 117.676 11.0971 116.781 10.0032C116.694 9.9163 116.637 9.83055 116.55 9.74365C115.394 8.47715 113.72 7.67067 111.843 7.67067H104.564C103.553 7.67067 102.716 6.83522 102.716 5.82828V5.71356C102.716 4.70546 103.554 3.87117 104.564 3.87117H112.765C113.776 3.87117 114.612 4.70662 114.612 5.71356V5.82828L118.223 5.80047Z" fill="#99A3B1"/>
<path d="M17.8886 17.9336C17.8595 17.8015 17.8375 17.6671 17.8223 17.5304C17.8223 17.5269 17.8212 17.5222 17.8212 17.5188C17.8142 17.4574 17.8096 17.3959 17.8061 17.3345C17.8061 17.3253 17.8049 17.3148 17.8038 17.3056C17.8003 17.2349 17.7979 17.1654 17.7979 17.0935C17.7979 17.0031 17.8026 16.9128 17.8084 16.8235C17.8096 16.8062 17.8107 16.7888 17.8119 16.7725C17.8189 16.6856 17.8282 16.5999 17.8409 16.5153C17.8433 16.5014 17.8456 16.4875 17.8479 16.4736C17.8619 16.389 17.877 16.3044 17.8956 16.221C17.8967 16.2175 17.8967 16.214 17.8979 16.2106C17.9176 16.1237 17.9409 16.0379 17.9664 15.9533C17.9699 15.9406 17.9734 15.929 17.9781 15.9162C18.0048 15.8317 18.0338 15.7482 18.0652 15.666C18.0664 15.6625 18.0687 15.659 18.0699 15.6544C18.1036 15.5698 18.1396 15.4863 18.1779 15.4041C18.1791 15.4018 18.1791 15.4006 18.1803 15.3983C18.2186 15.3172 18.2616 15.2372 18.3058 15.1584C18.3093 15.1515 18.3139 15.1445 18.3174 15.1387C18.3627 15.0599 18.4092 14.9835 18.4592 14.9081C19.0611 14.0043 20.0256 13.3612 21.1459 13.1851V0.272132L17.5365 0.243164V13.0854L4.54103 3.09482L0.931641 0.330069V20.4272H4.54103V7.67299L16.7718 17.0773V17.0808C16.7718 17.0785 16.7718 17.1086 16.7718 17.0982L16.773 17.1016L16.7753 17.1167C16.7893 17.1955 16.8032 17.2743 16.8183 17.3554C16.8334 17.4342 16.8485 17.5141 16.8636 17.5941C16.8857 17.6729 16.909 17.7517 16.931 17.8316C16.9543 17.9104 16.9775 17.9892 17.0019 18.068C17.0321 18.1445 17.0635 18.2221 17.0949 18.2998C17.1263 18.3762 17.1565 18.4539 17.1913 18.5292L17.3075 18.7505C17.3482 18.8235 17.3831 18.8977 17.4284 18.9672L17.5655 19.1735C17.748 19.4458 17.963 19.6902 18.1896 19.9069C18.2976 20.0193 18.4266 20.1109 18.5405 20.2082C18.6579 20.3032 18.788 20.3797 18.9066 20.462C19.0286 20.5396 19.1587 20.6022 19.2784 20.6682C19.4004 20.7308 19.5283 20.7771 19.6468 20.8281C19.8908 20.9162 20.1221 20.988 20.3406 21.0251C20.5544 21.0761 20.7589 21.0807 20.9309 21.1004C21.1098 21.1004 21.2621 21.1016 21.3841 21.0958C21.627 21.068 21.7653 21.0529 21.7653 21.0529C19.8629 21.0506 18.2744 19.7157 17.8886 17.9336Z" fill="#99A3B1"/>
<path d="M28.9039 11.1202C28.7888 11.0159 28.6401 10.9001 28.4553 10.7854C28.2705 10.6695 28.0497 10.5582 27.7941 10.4632C27.7441 10.4447 27.693 10.4273 27.6407 10.4111V0.244323H24.0313V10.8363C23.972 10.8711 23.9116 10.9047 23.8535 10.9418C23.6885 11.0356 23.5444 11.1596 23.3945 11.2743C23.2411 11.3856 23.1144 11.5258 22.9819 11.6556C22.846 11.783 22.7367 11.9325 22.624 12.0739C22.5706 12.1469 22.5113 12.2152 22.466 12.2917C22.4195 12.3682 22.3742 12.4435 22.3277 12.5188C22.2824 12.5941 22.2394 12.6683 22.1987 12.7436C22.1615 12.8213 22.1278 12.8989 22.0941 12.9765C22.0267 13.1295 21.9628 13.279 21.9233 13.4342C21.8815 13.5872 21.8327 13.7309 21.8106 13.878C21.7897 14.0252 21.7676 14.1654 21.7536 14.2998C21.7408 14.4342 21.7443 14.5663 21.7455 14.688C21.7513 14.812 21.7455 14.922 21.7676 15.0368C21.785 15.1492 21.799 15.25 21.8187 15.3427C21.8373 15.4354 21.8524 15.5176 21.8815 15.5872C21.9814 15.8687 22.0616 16.0298 22.0616 16.0298C22.0616 14.4087 22.8332 12.9673 24.029 12.0495C24.0778 12.0113 24.1289 11.9754 24.1789 11.9383C24.1858 11.9337 24.1928 11.9279 24.1998 11.9232C24.2498 11.8885 24.2997 11.8549 24.3497 11.8213C24.3567 11.8166 24.3636 11.8132 24.3695 11.8085C24.5798 11.6729 24.7994 11.5536 25.0295 11.4505C25.0469 11.4424 25.0644 11.4342 25.083 11.4261C25.1271 11.4064 25.1724 11.3879 25.2178 11.3705C25.2433 11.3601 25.2677 11.3508 25.2933 11.3404C25.3351 11.3242 25.3781 11.3079 25.4211 11.2929C25.4513 11.2825 25.4804 11.272 25.5106 11.2628C25.5513 11.2488 25.5908 11.2361 25.6315 11.2234C25.6698 11.2118 25.7082 11.2013 25.7465 11.1909C25.7988 11.1758 25.8511 11.1631 25.9046 11.1504C25.9557 11.1376 26.008 11.126 26.0591 11.1144C26.0905 11.1075 26.1219 11.1028 26.1532 11.0971C26.1986 11.0889 26.245 11.0797 26.2915 11.0727C26.3229 11.0681 26.3554 11.0635 26.3868 11.0588C26.4345 11.0519 26.4821 11.0461 26.5297 11.0403C26.56 11.0368 26.5913 11.0333 26.6215 11.031C26.6738 11.0264 26.7273 11.0217 26.7796 11.0194C26.8052 11.0183 26.8319 11.0159 26.8574 11.0148C26.9365 11.0113 27.0167 11.009 27.0968 11.009C27.1886 11.009 27.2793 11.0113 27.3699 11.0171C27.4396 11.0206 27.5082 11.0275 27.5768 11.0333C28.1613 11.0889 28.7179 11.2431 29.2281 11.4806H29.2304C29.2304 11.4806 29.2037 11.4447 29.1502 11.3798C29.1014 11.3126 29.0189 11.2234 28.9039 11.1202Z" fill="#99A3B1"/>
<path d="M40.635 7.98932L30.5284 0.244323V12.3496C31.1037 12.8827 31.5522 13.5478 31.8276 14.2963C31.73 14.3172 31.6359 14.3357 31.5441 14.3647C31.3605 14.4215 31.1873 14.4852 31.0316 14.564C30.7178 14.7181 30.4668 14.9128 30.2739 15.1028C30.081 15.2952 29.9451 15.484 29.8521 15.6474C29.7603 15.8096 29.7034 15.9487 29.6731 16.0402C29.6453 16.1341 29.6313 16.1839 29.6313 16.1839C29.6313 16.1839 29.6348 16.1828 29.6383 16.1804C30.1926 15.4678 31.0572 15.0078 32.0322 15.0078C32.1356 15.0078 32.2378 15.0136 32.3378 15.0229C32.3982 15.0286 32.4563 15.0402 32.5156 15.0495C32.5551 15.0553 32.5946 15.0599 32.6329 15.0669C32.7073 15.082 32.7805 15.1016 32.8537 15.1225C32.8747 15.1283 32.8967 15.1329 32.9176 15.1387C33.0002 15.1642 33.0815 15.1943 33.1605 15.2256C33.1698 15.2291 33.1803 15.2326 33.1896 15.2361C33.2756 15.272 33.3604 15.3114 33.4429 15.3554C33.4452 15.3566 33.4464 15.3577 33.4487 15.3577C33.702 15.4921 33.9333 15.6613 34.1378 15.8583C34.7072 16.4075 35.0628 17.1758 35.0628 18.0286C35.0628 19.6972 33.7055 21.0506 32.0322 21.0506C32.0322 21.0506 32.0798 21.0703 32.1728 21.1027C32.2192 21.119 32.2773 21.1387 32.3482 21.1584C32.418 21.1746 32.4993 21.1885 32.5934 21.2036C32.6876 21.2233 32.791 21.2221 32.9072 21.2267C33.0246 21.236 33.1477 21.2175 33.2837 21.2047C33.3534 21.2001 33.422 21.185 33.4917 21.1688C33.5638 21.1514 33.637 21.134 33.7137 21.1167C33.8589 21.0657 34.0205 21.0158 34.1738 20.9347C34.3342 20.8629 34.4853 20.7609 34.6468 20.6543C34.799 20.5384 34.9536 20.4098 35.0954 20.258C35.3824 19.9579 35.6322 19.5779 35.8019 19.141C35.8403 19.0298 35.8809 18.922 35.9146 18.8015C35.9437 18.6717 35.9727 18.5396 35.9948 18.4052C36.0064 18.3113 36.0181 18.2175 36.0308 18.1225L36.0343 18.0877V18.0831C36.0355 18.0599 36.0332 18.1294 36.0355 18.0298V17.9023L36.0332 17.7158C36.0134 17.2175 35.8856 16.7088 35.6578 16.2511C35.4312 15.7923 35.1058 15.3844 34.7223 15.0646C34.5387 14.9105 34.3412 14.7772 34.1367 14.666V7.55943L37.6879 10.2662L40.6338 12.5408L43.5797 10.2662L47.1309 7.55943V20.4017H50.7403V0.244323L40.635 7.98932Z" fill="#99A3B1"/>
</svg>
