<svg width="135" height="37" viewBox="0 0 135 37" fill="none" xmlns="http://www.w3.org/2000/svg">
<g clip-path="url(#clip0_1563_9433)">
<path d="M67.6062 0.779913C67.1319 0.756058 66.6578 0.829999 66.2136 0.997089C65.7694 1.16418 65.3648 1.42081 65.0251 1.75084C64.6855 2.08088 64.4182 2.47718 64.2401 2.91486C64.0619 3.35253 63.9768 3.82211 63.9899 4.29409C63.982 4.76248 64.0712 5.22748 64.2518 5.66015C64.4324 6.09282 64.7007 6.48391 65.0399 6.80907C65.3791 7.13423 65.782 7.3865 66.2235 7.5502C66.665 7.71389 67.1357 7.7855 67.6062 7.76058C69.707 7.76058 71.2657 6.3015 71.2657 4.29409C71.2736 3.81986 71.1833 3.34908 71.0005 2.91097C70.8178 2.47286 70.5464 2.07676 70.2033 1.74725C69.8601 1.41774 69.4526 1.16184 69.0058 0.995439C68.5591 0.829036 68.0827 0.755677 67.6062 0.779913ZM67.6062 6.25382C67.3441 6.26606 67.0823 6.22374 66.8376 6.12959C66.5928 6.03543 66.3706 5.8915 66.185 5.70703C65.9995 5.52255 65.8547 5.30159 65.76 5.05828C65.6653 4.81497 65.6227 4.55469 65.635 4.29409C65.6217 4.03123 65.6632 3.76848 65.757 3.52236C65.8507 3.27623 65.9947 3.05207 66.1799 2.86396C66.365 2.67586 66.5873 2.52788 66.8328 2.42935C67.0783 2.33082 67.3416 2.28386 67.6062 2.29144C67.8733 2.28211 68.1394 2.32753 68.3881 2.42488C68.6367 2.52222 68.8625 2.6694 69.0515 2.85725C69.2404 3.04511 69.3885 3.26962 69.4864 3.51681C69.5843 3.764 69.63 4.02858 69.6206 4.29409C69.6282 4.55716 69.581 4.81896 69.4819 5.06301C69.3828 5.30705 69.2339 5.52807 69.0447 5.71214C68.8555 5.89622 68.6301 6.03937 68.3825 6.13259C68.1349 6.22581 67.8706 6.26709 67.6062 6.25382ZM11.8173 9.36269C5.21296 9.36269 0.459961 13.9497 0.459961 20.3296C0.459961 26.7094 5.21296 31.2965 11.8173 31.2965C18.4216 31.2965 23.1698 26.6951 23.1698 20.3296C23.1698 13.964 18.4216 9.36269 11.8173 9.36269ZM11.8173 29.3272C10.0238 29.3272 8.27068 28.7983 6.77968 27.8074C5.28868 26.8165 4.12684 25.4082 3.44117 23.7607C2.75551 22.1131 2.57684 20.3004 2.92777 18.5519C3.2787 16.8033 4.14347 15.1976 5.41263 13.9378C6.6818 12.6781 8.29833 11.8209 10.0577 11.4748C11.817 11.1287 13.6401 11.3092 15.2962 11.9935C16.9523 12.6777 18.367 13.8351 19.3613 15.3189C20.3557 16.8028 20.8849 18.5466 20.882 20.3296C20.8731 22.7148 19.9145 24.9994 18.2158 26.6838C16.517 28.3682 14.2165 29.3152 11.8173 29.3177V29.3272ZM11.8173 12.0234C10.1683 12.0234 8.5563 12.5093 7.18502 13.4198C5.81375 14.3303 4.74471 15.6245 4.11302 17.1388C3.48132 18.6531 3.31531 20.3196 3.63597 21.9277C3.95663 23.5358 4.74956 25.0133 5.91456 26.1735C7.07957 27.3337 8.56436 28.1246 10.1813 28.4461C11.7983 28.7677 13.4748 28.6055 14.9991 27.9801C16.5234 27.3547 17.827 26.2941 18.7452 24.9324C19.6634 23.5707 20.155 21.969 20.1578 20.3296C20.1597 19.239 19.9454 18.1588 19.5272 17.1506C19.109 16.1424 18.4951 15.2259 17.7206 14.4537C16.946 13.6814 16.026 13.0685 15.0131 12.6498C14.0002 12.2312 12.9142 12.0151 11.8173 12.0138V12.0234ZM11.8173 26.5044C8.32567 26.5044 5.80289 23.9105 5.80289 20.3057C5.80289 16.701 8.32567 14.1309 11.8173 14.1309C15.3089 14.1309 17.8317 16.7248 17.8317 20.3296C17.8317 23.9343 15.3281 26.4949 11.8173 26.4949V26.5044ZM36.5031 12.1044C31.7981 12.1044 28.5079 15.4803 28.5079 20.3057C28.5079 25.1312 31.7981 28.5071 36.5031 28.5071C41.2082 28.5071 44.6566 25.0596 44.6566 20.3057C44.6566 15.5518 41.2273 12.1044 36.5031 12.1044ZM36.5031 26.4949C33.0978 26.4949 30.5751 23.901 30.5751 20.2962C30.5751 16.6914 33.0978 14.0975 36.5031 14.0975C39.9084 14.0975 42.3928 16.6914 42.3928 20.2962C42.3928 23.901 39.9132 26.4949 36.5031 26.4949ZM47.7357 20.3296C47.7357 26.6856 43.0259 31.2965 36.5031 31.2965C35.4387 31.3382 34.3767 31.1673 33.3799 30.7938C32.3831 30.4203 31.4717 29.8519 30.6998 29.1222C30.7861 30.0758 30.8245 31.0867 30.8245 32.0498V36.8181H28.5079V26.3709C28.5079 25.5841 28.5079 24.7592 28.46 23.8962C29.5919 27.1386 32.7094 29.2509 36.5031 29.2509C41.707 29.2509 45.4576 25.4888 45.4576 20.3296C45.4576 15.1704 41.707 11.3653 36.5031 11.3653C31.4144 11.3653 27.7213 15.1275 27.7213 20.3296V36.7799H25.2321V21.8125C25.2321 17.2112 26.2825 14.4551 28.4696 12.4048C30.6518 10.3974 33.5306 9.30725 36.5031 9.36269C43.0259 9.36269 47.7357 13.9497 47.7357 20.3296ZM84.9587 12.0472C80.2489 12.0472 76.9588 15.4183 76.9588 20.2485C76.9588 25.0787 80.2489 28.4355 84.9587 28.4355C89.6686 28.4355 93.1122 24.9834 93.1122 20.2342C93.1122 15.4851 89.6686 12.0234 84.9587 12.0234V12.0472ZM84.9587 26.4377C81.5487 26.4377 79.0259 23.8438 79.0259 20.239C79.0259 16.6342 81.5487 14.0403 84.9587 14.0403C88.3688 14.0403 90.8436 16.6342 90.8436 20.239C90.8436 23.8438 88.364 26.4138 84.9587 26.4138V26.4377ZM54.3305 22.9235V12.3142H61.448V14.0355H56.8197V22.5659C56.8197 24.9881 57.9564 25.4506 59.6974 25.4506C60.3006 25.4681 60.9016 25.3694 61.4671 25.1598V27.4104C60.7113 27.6063 59.9314 27.6946 59.1506 27.6726C55.8556 27.6726 54.3305 26.1563 54.3305 22.8996V22.9235ZM53.5439 11.5561H47.9036V9.79183H51.0595V3.64084H53.5439V11.5561ZM61.448 9.79183V11.5561H54.3305V3.64084H56.8197V9.79183H61.448ZM59.093 28.5214C59.8858 28.5406 60.6776 28.4556 61.448 28.2687V30.5336C60.5088 30.7733 59.5387 30.8713 58.5703 30.8244C54.2537 30.8244 51.0451 28.7359 51.0451 23.4671V14.0355H47.9036V12.3142H53.5439V23.0665C53.5439 26.6713 55.4096 28.4975 59.093 28.4975V28.5214ZM67.2129 9.79183V30.6766H64.8964V9.76799L67.2129 9.79183ZM70.3209 9.79183V30.6766H68.0043V9.76799L70.3209 9.79183ZM96.1866 20.2485C96.1866 26.6045 91.4767 31.2154 84.9587 31.2154C81.9838 31.2743 79.1026 30.1798 76.9252 28.1638C74.7381 26.1134 73.6878 23.3574 73.6878 18.7561V3.75051H76.1722V20.2247C76.1722 25.4077 79.8652 29.1651 84.9587 29.1651C90.1434 29.1651 93.9132 25.4077 93.9132 20.2247C93.9132 15.0416 90.1482 11.27 84.9587 11.27C81.1602 11.27 78.0475 13.3823 76.9108 16.6247C76.9396 15.7616 76.9588 14.9415 76.9588 14.15V3.75051H79.2801V8.51872C79.2801 9.47236 79.2369 10.488 79.1554 11.4464C80.7094 9.9015 82.7717 9.2721 84.9587 9.2721C91.4767 9.26733 96.1866 13.8687 96.1866 20.2247V20.2485ZM117.597 9.79183V21.8125C117.597 27.9158 113.601 31.2631 108.091 31.2631C102.58 31.2631 98.5846 27.9253 98.5846 21.8125V9.76799H100.863V21.8125C100.863 26.3995 103.63 29.2509 108.091 29.2509C112.551 29.2509 115.318 26.39 115.318 21.8125V9.76799L117.597 9.79183ZM101.659 21.8125V9.76799H103.937V21.8125C103.937 25.1169 105.702 26.4949 108.1 26.4949C110.498 26.4949 112.263 25.1169 112.263 21.8125V9.76799H114.541V21.8125C114.541 26.0038 112.143 28.488 108.1 28.488C104.057 28.488 101.659 26.0038 101.659 21.8125ZM134.47 24.2395C134.47 29.0077 131.021 31.2631 126.225 31.2631C124.284 31.2729 122.369 30.8286 120.633 29.9661V27.7442C122.438 28.5796 124.397 29.0357 126.388 29.084C130.095 29.084 132.311 27.3484 132.311 24.4445C132.311 21.3547 129.836 20.3773 127.654 19.519L127.563 19.4856C124.58 18.3317 122.892 17.5783 122.892 15.5423C122.892 13.3442 124.949 11.8136 127.899 11.8136C129.779 11.8632 131.617 12.3778 133.247 13.3108L133.366 13.3823V15.5614C131.648 14.4879 129.677 13.8812 127.649 13.8019C126.211 13.8019 125.122 14.2215 125.122 15.3516C125.122 16.4816 126.177 16.782 128.911 17.7357C132.235 18.8991 134.46 20.4345 134.46 24.2395H134.47ZM119.952 15.8332C119.952 11.0649 124.028 9.15766 127.774 9.15766C129.719 9.19154 131.631 9.66265 133.366 10.5357V12.5574L133.247 12.4954C131.564 11.5845 129.689 11.0829 127.774 11.0316C124.417 11.0316 122.057 12.9007 122.057 15.5804C122.057 18.1791 124.124 18.9945 126.983 20.1245L127.098 20.1675C131.155 21.7696 131.482 23.0284 131.482 24.4875C131.482 28.0255 127.515 28.302 126.302 28.302C124.434 28.2792 122.596 27.8357 120.925 27.0051L120.623 26.862V24.6543C122.48 25.6874 124.555 26.2752 126.681 26.3709C128.119 26.3709 129.203 25.8941 129.203 24.7402C129.203 23.1524 127.141 22.4419 125.587 21.8792C121.381 20.4345 119.952 18.6369 119.952 15.8332ZM68.7717 4.29409C68.7773 4.44665 68.7508 4.59869 68.6939 4.74049C68.637 4.88228 68.5509 5.0107 68.4412 5.11752C68.3315 5.22434 68.2006 5.30722 68.0568 5.36084C67.913 5.41446 67.7595 5.43765 67.6062 5.42892C67.4536 5.43952 67.3004 5.41744 67.1571 5.36416C67.0138 5.31088 66.8836 5.22764 66.7754 5.12007C66.6672 5.0125 66.5835 4.8831 66.5299 4.7406C66.4763 4.59811 66.4541 4.44584 66.4647 4.29409C66.4532 4.14013 66.4744 3.98548 66.5271 3.84024C66.5798 3.69501 66.6627 3.56247 66.7704 3.4513C66.8782 3.34012 67.0083 3.25282 67.1524 3.1951C67.2964 3.13738 67.4511 3.11054 67.6062 3.11634C67.7617 3.11366 67.916 3.14244 68.0599 3.20093C68.2038 3.25942 68.3342 3.34639 68.4432 3.45655C68.5522 3.56672 68.6376 3.69778 68.694 3.84176C68.7505 3.98574 68.7769 4.13963 68.7717 4.29409Z" fill="#99A3B1"/>
</g>
<defs>
<clipPath id="clip0_1563_9433">
<rect width="134" height="36" fill="white" transform="translate(0.459961 0.779297)"/>
</clipPath>
</defs>
</svg>
