<svg width="157" height="38" viewBox="0 0 157 38" fill="none" xmlns="http://www.w3.org/2000/svg">
<g clip-path="url(#clip0_968_6902)">
<path d="M13.0034 2.898V25.8972H24.873C31.4295 25.8972 36.7425 20.3324 36.7425 13.4652C36.7425 6.598 31.4295 1.0332 24.873 1.0332H14.7839C13.7947 1.0332 13.0034 1.862 13.0034 2.898Z" fill="#99A3B1"/>
<path d="M21.3969 15.2412C22.386 15.2412 23.1773 16.07 23.1773 17.106V25.8972H13.0034V15.2412H21.3969C21.3686 15.2412 21.3686 15.2412 21.3969 15.2412Z" fill="#99A3B1"/>
<path d="M21.3969 15.2412C22.386 15.2412 23.1773 16.07 23.1773 17.106V25.8972H13.0034V15.2412H21.3969C21.3686 15.2412 21.3686 15.2412 21.3969 15.2412Z" fill="#828B96"/>
<path d="M2.5186 15.2412H13.0034V25.8972H5.71208C5.23164 25.8972 4.72295 25.8972 4.4686 25.3348L0.935988 18.0828C0.794684 17.7868 0.681641 17.4612 0.681641 17.1356C0.681641 16.0996 1.47295 15.2708 2.46208 15.2412H2.5186C2.49034 15.2412 2.49034 15.2412 2.5186 15.2412ZM23.1773 34.6292V25.8972H13.0034V31.2844C13.0034 31.7876 13.0034 32.3204 13.5686 32.5868L20.4925 36.2572C20.7751 36.4052 21.086 36.494 21.3969 36.494C22.386 36.494 23.1773 35.6652 23.2056 34.6292C23.2338 33.5932 23.1773 34.6588 23.1773 34.6292Z" fill="#747D8A"/>
<path d="M23.1773 25.8967H24.8729C27.0207 25.8967 28.999 25.3047 30.7512 24.2687L22.7251 15.8623C23.0077 16.1879 23.1773 16.6319 23.1773 17.1055V25.8967Z" fill="#8D96A3"/>
<path fill-rule="evenodd" clip-rule="evenodd" d="M45.8146 16.0402H48.5277C50.1951 16.0402 50.9864 15.3002 50.9864 13.9978C50.9864 12.725 50.1951 11.9554 48.5277 11.9554H45.8146V16.0402ZM42.6777 8.87695H48.7538C52.1451 8.87695 54.2364 10.8306 54.2081 14.0274C54.2081 17.2242 52.1451 19.1778 48.7255 19.1778H45.7864V24.565H42.6494V8.87695H42.6777Z" fill="#747D8A"/>
<path d="M88.1775 8.87695H85.0688V24.4762H95.0732V21.3386H88.1775V8.87695Z" fill="#747D8A"/>
<path fill-rule="evenodd" clip-rule="evenodd" d="M65.4277 21.9009C67.0669 21.9009 68.3951 20.5097 68.3951 18.7929C68.3951 17.0761 67.0669 15.6849 65.4277 15.6849C63.7886 15.6849 62.4603 17.0761 62.4603 18.7929C62.4603 20.5097 63.7886 21.9009 65.4277 21.9009ZM71.3625 18.7041C71.3625 22.0193 68.9321 24.6833 65.9364 24.6833C64.8625 24.6833 63.9016 24.3577 63.0538 23.7657V28.6497H60.0864V13.0209H63.0538V13.6425C63.9016 13.0505 64.8908 12.7249 65.9364 12.7249C68.9038 12.7249 71.3625 15.3889 71.3625 18.7041ZM75.5734 17.3129C75.969 15.9809 76.9582 15.3001 78.3712 15.3001C79.7277 15.3001 80.6321 15.9513 80.9147 17.3129H75.5734ZM83.8821 18.4081C83.8821 14.8857 81.5929 12.7249 78.3995 12.7249C74.8951 12.7249 72.4647 15.2705 72.4647 18.8225C72.4647 22.2857 74.7821 24.7425 78.3995 24.7425C80.519 24.7425 82.2712 23.9137 83.5147 22.2857L81.1973 20.8945C80.3777 21.7529 79.4734 22.1081 78.4277 22.1081C76.7321 22.1081 75.6582 21.2497 75.4038 19.5625H83.769C83.8538 19.1185 83.8821 18.7633 83.8821 18.4081ZM104.626 20.6577C103.976 21.4569 103.071 21.8417 102.167 21.8417C100.528 21.8417 99.3125 20.5985 99.3125 18.7337C99.3125 16.8393 100.528 15.6257 102.167 15.6257C103.071 15.6257 103.976 16.0105 104.626 16.7801V20.6577ZM104.626 13.7313C103.806 13.0801 102.789 12.6953 101.686 12.6953C98.719 12.6953 96.2886 15.1817 96.2886 18.7041C96.2886 22.1673 98.719 24.7129 101.686 24.7129C102.789 24.7129 103.806 24.3577 104.626 23.7065V24.4761H107.593V12.9913H104.626V13.7313Z" fill="#747D8A"/>
<path d="M116.608 20.6282C115.93 21.457 115.082 21.8418 114.234 21.8418C112.962 21.8418 112.256 21.013 112.256 19.2962V12.9618H109.288V19.9474C109.288 22.9666 110.928 24.713 113.415 24.713C114.601 24.713 115.704 24.3282 116.608 23.5882V24.417H119.575V12.9618H116.608V20.6282ZM124.21 13.8498C125.086 13.1098 126.217 12.725 127.404 12.725C129.919 12.725 131.643 14.4418 131.643 17.5794V24.4762H128.675V18.2602C128.675 16.4842 127.884 15.6258 126.612 15.6258C125.793 15.6258 124.917 16.0106 124.238 16.8394V24.4762H121.271V12.9914H124.238V13.8498H124.21ZM141.251 20.5098C140.545 21.3682 139.669 21.8418 138.708 21.8418C137.125 21.8418 135.882 20.6282 135.882 18.7338C135.882 16.869 137.069 15.6258 138.68 15.6258C139.641 15.6258 140.517 16.0994 141.28 17.1354L143.569 15.2114C142.467 13.613 140.715 12.725 138.708 12.725C135.43 12.725 132.858 15.2114 132.858 18.7634C132.858 22.2858 135.345 24.713 138.651 24.713C140.771 24.713 142.636 23.7066 143.71 21.9602L141.251 20.5098ZM147.865 13.909C148.769 13.169 149.871 12.7842 151.058 12.7842C153.573 12.7842 155.297 14.501 155.297 17.609V24.5058H152.33V18.2898C152.33 16.5138 151.538 15.6554 150.267 15.6554C149.447 15.6554 148.571 16.0402 147.893 16.869V24.5058H144.925V8.87695H147.893V13.909H147.865ZM56.8645 8.87695C56.0167 8.87695 55.3667 9.58735 55.3667 10.4162C55.3667 11.2746 56.0167 11.9554 56.8645 11.9554C57.6841 11.9554 58.3341 11.2746 58.3341 10.4162C58.3624 9.55775 57.6841 8.87695 56.8645 8.87695ZM58.3623 13.0506H55.395V24.565H58.3623V24.417V13.0506Z" fill="#747D8A"/>
</g>
<defs>
<clipPath id="clip0_968_6902">
<rect width="156" height="37" fill="white" transform="translate(0.314453 0.5)"/>
</clipPath>
</defs>
</svg>
