<svg width="108" height="38" viewBox="0 0 108 38" fill="none" xmlns="http://www.w3.org/2000/svg">
<path d="M107.969 0.898438H0.970703V37.101H107.969V0.898438Z" fill="#99A3B1"/>
<path d="M20.1205 22.4006C20.1205 26.3492 16.967 27.7361 12.6442 27.7361C10.7146 27.7361 8.72994 27.6025 7.94147 27.4961C7.58801 27.4425 7.39763 27.2825 7.4515 26.8828L7.77839 24.8287C7.88687 24.2418 8.07725 24.1618 8.78344 24.215C9.46307 24.2686 11.4477 24.4286 12.5896 24.4286C15.0908 24.4286 16.1243 24.1618 16.1243 22.6681C16.1243 21.6541 15.4174 21.174 13.7589 20.7472L11.748 20.2404C9.10997 19.5739 7.58838 17.9466 7.58838 15.1984C7.58838 12.1571 9.7634 10.2369 14.2485 10.2369C16.4508 10.2369 18.1912 10.3701 18.9793 10.4773C19.3328 10.5301 19.5231 10.6901 19.4685 11.0905L19.1424 13.0911C19.0339 13.6779 18.8435 13.7579 18.1362 13.7051C17.4566 13.6515 15.7435 13.5183 14.0585 13.5183C12.8073 13.5183 11.5023 13.7847 11.5023 15.1724C11.5023 16.1596 12.1273 16.5861 13.487 16.9333L15.4989 17.4401C19.087 18.3462 20.1205 20.08 20.1205 22.4006ZM32.4906 20.2139C33.8229 19.3867 35.3183 18.213 35.3183 15.6249C35.3183 12.2903 33.4156 10.423 29.2283 10.423H23.1652C22.622 10.423 22.4586 10.6098 22.4586 11.143V26.856C22.4586 27.3896 22.622 27.5761 23.1652 27.5761H25.6663C26.2106 27.5761 26.3736 27.3896 26.3736 26.856V13.5976H28.9571C30.5883 13.5976 31.3764 14.1848 31.3764 15.6785C31.3764 17.039 30.7514 17.4662 30.1252 17.7326C29.3371 18.053 29.0656 17.7058 28.8206 18.7199L28.5487 19.8403C28.4667 20.1603 28.4402 20.3204 28.4402 20.4272C28.4402 20.694 28.5214 20.9072 28.7117 21.2272L31.9468 26.9364C32.2194 27.3904 32.4371 27.5764 33.0895 27.5764H36.0529C36.433 27.5764 36.896 27.3364 36.4603 26.6692L32.4906 20.2139ZM51.1143 17.2794H46.6554C46.1112 17.2794 45.9481 17.4662 45.9481 17.9994V19.84C45.9481 20.3736 46.1112 20.5604 46.6554 20.5604H47.9331V24.2954C47.77 24.3218 47.2258 24.3483 46.6008 24.3483C42.9038 24.3483 41.9515 22.0012 41.9515 18.7734C41.9515 14.6912 43.5288 13.6504 46.9543 13.6504C47.9877 13.6504 49.3739 13.7308 50.1627 13.7836C50.8689 13.8372 51.0593 13.7572 51.1689 13.1704L51.495 11.2498C51.5762 10.7162 51.4677 10.4765 50.8962 10.423C50.7058 10.3962 49.4827 10.2362 46.6827 10.2362C40.2927 10.2362 37.7103 13.464 37.7103 18.7738C37.7103 24.0286 39.8311 27.7632 46.4373 27.7632C49.4008 27.7632 50.5162 27.63 51.0866 27.4968C51.6581 27.3636 51.8208 27.15 51.8208 26.5635V17.9994C51.8212 17.4662 51.6585 17.2794 51.1143 17.2794ZM66.3479 17.4394L64.336 16.9325C62.9764 16.5854 62.3513 16.1589 62.3513 15.1716C62.3513 13.784 63.6564 13.5175 64.9071 13.5175C66.5922 13.5175 68.3049 13.6508 68.9845 13.7044C69.6918 13.7576 69.8822 13.6776 69.9907 13.0904L70.3168 11.0898C70.3714 10.689 70.1811 10.529 69.8276 10.4765C69.0391 10.369 67.2991 10.2362 65.0964 10.2362C60.6117 10.2362 58.4378 12.1563 58.4378 15.1977C58.4378 17.9462 59.9594 19.5731 62.596 20.2396L64.6072 20.7465C66.2653 21.1733 66.9726 21.6533 66.9726 22.6674C66.9726 24.1611 65.9395 24.4279 63.4379 24.4279C62.2964 24.4279 60.3121 24.2679 59.6332 24.2143C58.9267 24.1611 58.7366 24.2411 58.6282 24.8279L58.3009 26.8821C58.247 27.2817 58.4374 27.4418 58.7909 27.4953C59.579 27.6018 61.5621 27.7354 63.4925 27.7354C67.8149 27.7354 70.9688 26.3484 70.9688 22.3998C70.9699 20.08 69.9364 18.3462 66.3479 17.4394ZM80.4035 17.4394L78.3926 16.9325C77.033 16.5854 76.408 16.1589 76.408 15.1716C76.408 13.784 77.713 13.5175 78.9631 13.5175C80.6488 13.5175 82.3619 13.6508 83.0415 13.7044C83.7477 13.7576 83.9385 13.6776 84.0466 13.0904L84.3728 11.0898C84.4277 10.689 84.237 10.529 83.8835 10.4765C83.095 10.369 81.3558 10.2362 79.1534 10.2362C74.6676 10.2362 72.4926 12.1563 72.4926 15.1977C72.4926 17.9462 74.0149 19.5731 76.6523 20.2396L78.6642 20.7465C80.3223 21.1733 81.0296 21.6533 81.0296 22.6674C81.0296 24.1611 79.9961 24.4279 77.495 24.4279C76.3534 24.4279 74.3684 24.2679 73.6888 24.2143C72.9815 24.1611 72.7911 24.2411 72.6826 24.8279L72.3564 26.8821C72.3018 27.2817 72.4922 27.4418 72.8457 27.4953C73.6342 27.6018 75.6184 27.7354 77.5496 27.7354C81.8723 27.7354 85.0258 26.3484 85.0258 22.3998C85.0258 20.08 83.9924 18.3462 80.4035 17.4394ZM101.366 26.6692L97.396 20.2136C98.7283 19.3863 100.224 18.2127 100.224 15.6245C100.224 12.2899 98.3202 10.4226 94.1329 10.4226H88.0705C87.5266 10.4226 87.3632 10.6094 87.3632 11.1427V26.8556C87.3632 27.3893 87.5263 27.5757 88.0705 27.5757H90.572C91.1162 27.5757 91.2793 27.3893 91.2793 26.8556V13.5976H93.8617C95.4929 13.5976 96.281 14.1848 96.281 15.6785C96.281 17.039 95.6559 17.4662 95.0309 17.7326C94.2424 18.053 93.9702 17.7058 93.7259 18.7199L93.4532 19.8403C93.3721 20.1603 93.3448 20.3204 93.3448 20.4272C93.3448 20.694 93.4267 20.9072 93.6171 21.2272L96.8521 26.9364C97.1237 27.3904 97.3417 27.5764 97.994 27.5764H100.958C101.338 27.5764 101.8 27.3364 101.366 26.6692Z" fill="white"/>
</svg>
